G04 #@! TF.GenerationSoftware,KiCad,Pcbnew,5.1.5+dfsg1-2build2*
G04 #@! TF.CreationDate,2021-05-15T15:28:44-07:00*
G04 #@! TF.ProjectId,preamp-board-v5,70726561-6d70-42d6-926f-6172642d7635,rev?*
G04 #@! TF.SameCoordinates,Original*
G04 #@! TF.FileFunction,Soldermask,Bot*
G04 #@! TF.FilePolarity,Negative*
%FSLAX46Y46*%
G04 Gerber Fmt 4.6, Leading zero omitted, Abs format (unit mm)*
G04 Created by KiCad (PCBNEW 5.1.5+dfsg1-2build2) date 2021-05-15 15:28:44*
%MOMM*%
%LPD*%
G04 APERTURE LIST*
%ADD10R,4.000000X2.000000*%
%ADD11O,4.000000X2.000000*%
%ADD12C,0.100000*%
%ADD13R,1.600000X1.600000*%
%ADD14O,1.600000X1.600000*%
G04 APERTURE END LIST*
D10*
X678450000Y640715000D03*
D11*
X682950000Y640715000D03*
X678490000Y658495000D03*
D10*
X682990000Y658495000D03*
D11*
X664480000Y658495000D03*
X671480000Y658495000D03*
X671480000Y653415000D03*
X664480000Y653415000D03*
D12*
G36*
X639359925Y662181039D02*
G01*
X639379305Y662178164D01*
X639398310Y662173403D01*
X639416756Y662166803D01*
X639434468Y662158426D01*
X639451272Y662148354D01*
X639467009Y662136683D01*
X639481526Y662123526D01*
X639494683Y662109009D01*
X639506354Y662093272D01*
X639516426Y662076468D01*
X639524803Y662058756D01*
X639531403Y662040310D01*
X639536164Y662021305D01*
X639539039Y662001925D01*
X639540000Y661982356D01*
X639540000Y660857644D01*
X639539039Y660838075D01*
X639536164Y660818695D01*
X639531403Y660799690D01*
X639524803Y660781244D01*
X639516426Y660763532D01*
X639506354Y660746728D01*
X639494683Y660730991D01*
X639481526Y660716474D01*
X639467009Y660703317D01*
X639451272Y660691646D01*
X639434468Y660681574D01*
X639416756Y660673197D01*
X639398310Y660666597D01*
X639379305Y660661836D01*
X639359925Y660658961D01*
X639340356Y660658000D01*
X635739644Y660658000D01*
X635720075Y660658961D01*
X635700695Y660661836D01*
X635681690Y660666597D01*
X635663244Y660673197D01*
X635645532Y660681574D01*
X635628728Y660691646D01*
X635612991Y660703317D01*
X635598474Y660716474D01*
X635585317Y660730991D01*
X635573646Y660746728D01*
X635563574Y660763532D01*
X635555197Y660781244D01*
X635548597Y660799690D01*
X635543836Y660818695D01*
X635540961Y660838075D01*
X635540000Y660857644D01*
X635540000Y661982356D01*
X635540961Y662001925D01*
X635543836Y662021305D01*
X635548597Y662040310D01*
X635555197Y662058756D01*
X635563574Y662076468D01*
X635573646Y662093272D01*
X635585317Y662109009D01*
X635598474Y662123526D01*
X635612991Y662136683D01*
X635628728Y662148354D01*
X635645532Y662158426D01*
X635663244Y662166803D01*
X635681690Y662173403D01*
X635700695Y662178164D01*
X635720075Y662181039D01*
X635739644Y662182000D01*
X639340356Y662182000D01*
X639359925Y662181039D01*
G37*
G36*
X639359925Y659641039D02*
G01*
X639379305Y659638164D01*
X639398310Y659633403D01*
X639416756Y659626803D01*
X639434468Y659618426D01*
X639451272Y659608354D01*
X639467009Y659596683D01*
X639481526Y659583526D01*
X639494683Y659569009D01*
X639506354Y659553272D01*
X639516426Y659536468D01*
X639524803Y659518756D01*
X639531403Y659500310D01*
X639536164Y659481305D01*
X639539039Y659461925D01*
X639540000Y659442356D01*
X639540000Y658317644D01*
X639539039Y658298075D01*
X639536164Y658278695D01*
X639531403Y658259690D01*
X639524803Y658241244D01*
X639516426Y658223532D01*
X639506354Y658206728D01*
X639494683Y658190991D01*
X639481526Y658176474D01*
X639467009Y658163317D01*
X639451272Y658151646D01*
X639434468Y658141574D01*
X639416756Y658133197D01*
X639398310Y658126597D01*
X639379305Y658121836D01*
X639359925Y658118961D01*
X639340356Y658118000D01*
X635739644Y658118000D01*
X635720075Y658118961D01*
X635700695Y658121836D01*
X635681690Y658126597D01*
X635663244Y658133197D01*
X635645532Y658141574D01*
X635628728Y658151646D01*
X635612991Y658163317D01*
X635598474Y658176474D01*
X635585317Y658190991D01*
X635573646Y658206728D01*
X635563574Y658223532D01*
X635555197Y658241244D01*
X635548597Y658259690D01*
X635543836Y658278695D01*
X635540961Y658298075D01*
X635540000Y658317644D01*
X635540000Y659442356D01*
X635540961Y659461925D01*
X635543836Y659481305D01*
X635548597Y659500310D01*
X635555197Y659518756D01*
X635563574Y659536468D01*
X635573646Y659553272D01*
X635585317Y659569009D01*
X635598474Y659583526D01*
X635612991Y659596683D01*
X635628728Y659608354D01*
X635645532Y659618426D01*
X635663244Y659626803D01*
X635681690Y659633403D01*
X635700695Y659638164D01*
X635720075Y659641039D01*
X635739644Y659642000D01*
X639340356Y659642000D01*
X639359925Y659641039D01*
G37*
G36*
X639359925Y657101039D02*
G01*
X639379305Y657098164D01*
X639398310Y657093403D01*
X639416756Y657086803D01*
X639434468Y657078426D01*
X639451272Y657068354D01*
X639467009Y657056683D01*
X639481526Y657043526D01*
X639494683Y657029009D01*
X639506354Y657013272D01*
X639516426Y656996468D01*
X639524803Y656978756D01*
X639531403Y656960310D01*
X639536164Y656941305D01*
X639539039Y656921925D01*
X639540000Y656902356D01*
X639540000Y655777644D01*
X639539039Y655758075D01*
X639536164Y655738695D01*
X639531403Y655719690D01*
X639524803Y655701244D01*
X639516426Y655683532D01*
X639506354Y655666728D01*
X639494683Y655650991D01*
X639481526Y655636474D01*
X639467009Y655623317D01*
X639451272Y655611646D01*
X639434468Y655601574D01*
X639416756Y655593197D01*
X639398310Y655586597D01*
X639379305Y655581836D01*
X639359925Y655578961D01*
X639340356Y655578000D01*
X635739644Y655578000D01*
X635720075Y655578961D01*
X635700695Y655581836D01*
X635681690Y655586597D01*
X635663244Y655593197D01*
X635645532Y655601574D01*
X635628728Y655611646D01*
X635612991Y655623317D01*
X635598474Y655636474D01*
X635585317Y655650991D01*
X635573646Y655666728D01*
X635563574Y655683532D01*
X635555197Y655701244D01*
X635548597Y655719690D01*
X635543836Y655738695D01*
X635540961Y655758075D01*
X635540000Y655777644D01*
X635540000Y656902356D01*
X635540961Y656921925D01*
X635543836Y656941305D01*
X635548597Y656960310D01*
X635555197Y656978756D01*
X635563574Y656996468D01*
X635573646Y657013272D01*
X635585317Y657029009D01*
X635598474Y657043526D01*
X635612991Y657056683D01*
X635628728Y657068354D01*
X635645532Y657078426D01*
X635663244Y657086803D01*
X635681690Y657093403D01*
X635700695Y657098164D01*
X635720075Y657101039D01*
X635739644Y657102000D01*
X639340356Y657102000D01*
X639359925Y657101039D01*
G37*
G36*
X639359925Y654561039D02*
G01*
X639379305Y654558164D01*
X639398310Y654553403D01*
X639416756Y654546803D01*
X639434468Y654538426D01*
X639451272Y654528354D01*
X639467009Y654516683D01*
X639481526Y654503526D01*
X639494683Y654489009D01*
X639506354Y654473272D01*
X639516426Y654456468D01*
X639524803Y654438756D01*
X639531403Y654420310D01*
X639536164Y654401305D01*
X639539039Y654381925D01*
X639540000Y654362356D01*
X639540000Y653237644D01*
X639539039Y653218075D01*
X639536164Y653198695D01*
X639531403Y653179690D01*
X639524803Y653161244D01*
X639516426Y653143532D01*
X639506354Y653126728D01*
X639494683Y653110991D01*
X639481526Y653096474D01*
X639467009Y653083317D01*
X639451272Y653071646D01*
X639434468Y653061574D01*
X639416756Y653053197D01*
X639398310Y653046597D01*
X639379305Y653041836D01*
X639359925Y653038961D01*
X639340356Y653038000D01*
X635739644Y653038000D01*
X635720075Y653038961D01*
X635700695Y653041836D01*
X635681690Y653046597D01*
X635663244Y653053197D01*
X635645532Y653061574D01*
X635628728Y653071646D01*
X635612991Y653083317D01*
X635598474Y653096474D01*
X635585317Y653110991D01*
X635573646Y653126728D01*
X635563574Y653143532D01*
X635555197Y653161244D01*
X635548597Y653179690D01*
X635543836Y653198695D01*
X635540961Y653218075D01*
X635540000Y653237644D01*
X635540000Y654362356D01*
X635540961Y654381925D01*
X635543836Y654401305D01*
X635548597Y654420310D01*
X635555197Y654438756D01*
X635563574Y654456468D01*
X635573646Y654473272D01*
X635585317Y654489009D01*
X635598474Y654503526D01*
X635612991Y654516683D01*
X635628728Y654528354D01*
X635645532Y654538426D01*
X635663244Y654546803D01*
X635681690Y654553403D01*
X635700695Y654558164D01*
X635720075Y654561039D01*
X635739644Y654562000D01*
X639340356Y654562000D01*
X639359925Y654561039D01*
G37*
G36*
X639359925Y652021039D02*
G01*
X639379305Y652018164D01*
X639398310Y652013403D01*
X639416756Y652006803D01*
X639434468Y651998426D01*
X639451272Y651988354D01*
X639467009Y651976683D01*
X639481526Y651963526D01*
X639494683Y651949009D01*
X639506354Y651933272D01*
X639516426Y651916468D01*
X639524803Y651898756D01*
X639531403Y651880310D01*
X639536164Y651861305D01*
X639539039Y651841925D01*
X639540000Y651822356D01*
X639540000Y650697644D01*
X639539039Y650678075D01*
X639536164Y650658695D01*
X639531403Y650639690D01*
X639524803Y650621244D01*
X639516426Y650603532D01*
X639506354Y650586728D01*
X639494683Y650570991D01*
X639481526Y650556474D01*
X639467009Y650543317D01*
X639451272Y650531646D01*
X639434468Y650521574D01*
X639416756Y650513197D01*
X639398310Y650506597D01*
X639379305Y650501836D01*
X639359925Y650498961D01*
X639340356Y650498000D01*
X635739644Y650498000D01*
X635720075Y650498961D01*
X635700695Y650501836D01*
X635681690Y650506597D01*
X635663244Y650513197D01*
X635645532Y650521574D01*
X635628728Y650531646D01*
X635612991Y650543317D01*
X635598474Y650556474D01*
X635585317Y650570991D01*
X635573646Y650586728D01*
X635563574Y650603532D01*
X635555197Y650621244D01*
X635548597Y650639690D01*
X635543836Y650658695D01*
X635540961Y650678075D01*
X635540000Y650697644D01*
X635540000Y651822356D01*
X635540961Y651841925D01*
X635543836Y651861305D01*
X635548597Y651880310D01*
X635555197Y651898756D01*
X635563574Y651916468D01*
X635573646Y651933272D01*
X635585317Y651949009D01*
X635598474Y651963526D01*
X635612991Y651976683D01*
X635628728Y651988354D01*
X635645532Y651998426D01*
X635663244Y652006803D01*
X635681690Y652013403D01*
X635700695Y652018164D01*
X635720075Y652021039D01*
X635739644Y652022000D01*
X639340356Y652022000D01*
X639359925Y652021039D01*
G37*
G36*
X639359925Y649481039D02*
G01*
X639379305Y649478164D01*
X639398310Y649473403D01*
X639416756Y649466803D01*
X639434468Y649458426D01*
X639451272Y649448354D01*
X639467009Y649436683D01*
X639481526Y649423526D01*
X639494683Y649409009D01*
X639506354Y649393272D01*
X639516426Y649376468D01*
X639524803Y649358756D01*
X639531403Y649340310D01*
X639536164Y649321305D01*
X639539039Y649301925D01*
X639540000Y649282356D01*
X639540000Y648157644D01*
X639539039Y648138075D01*
X639536164Y648118695D01*
X639531403Y648099690D01*
X639524803Y648081244D01*
X639516426Y648063532D01*
X639506354Y648046728D01*
X639494683Y648030991D01*
X639481526Y648016474D01*
X639467009Y648003317D01*
X639451272Y647991646D01*
X639434468Y647981574D01*
X639416756Y647973197D01*
X639398310Y647966597D01*
X639379305Y647961836D01*
X639359925Y647958961D01*
X639340356Y647958000D01*
X635739644Y647958000D01*
X635720075Y647958961D01*
X635700695Y647961836D01*
X635681690Y647966597D01*
X635663244Y647973197D01*
X635645532Y647981574D01*
X635628728Y647991646D01*
X635612991Y648003317D01*
X635598474Y648016474D01*
X635585317Y648030991D01*
X635573646Y648046728D01*
X635563574Y648063532D01*
X635555197Y648081244D01*
X635548597Y648099690D01*
X635543836Y648118695D01*
X635540961Y648138075D01*
X635540000Y648157644D01*
X635540000Y649282356D01*
X635540961Y649301925D01*
X635543836Y649321305D01*
X635548597Y649340310D01*
X635555197Y649358756D01*
X635563574Y649376468D01*
X635573646Y649393272D01*
X635585317Y649409009D01*
X635598474Y649423526D01*
X635612991Y649436683D01*
X635628728Y649448354D01*
X635645532Y649458426D01*
X635663244Y649466803D01*
X635681690Y649473403D01*
X635700695Y649478164D01*
X635720075Y649481039D01*
X635739644Y649482000D01*
X639340356Y649482000D01*
X639359925Y649481039D01*
G37*
G36*
X639359925Y646941039D02*
G01*
X639379305Y646938164D01*
X639398310Y646933403D01*
X639416756Y646926803D01*
X639434468Y646918426D01*
X639451272Y646908354D01*
X639467009Y646896683D01*
X639481526Y646883526D01*
X639494683Y646869009D01*
X639506354Y646853272D01*
X639516426Y646836468D01*
X639524803Y646818756D01*
X639531403Y646800310D01*
X639536164Y646781305D01*
X639539039Y646761925D01*
X639540000Y646742356D01*
X639540000Y645617644D01*
X639539039Y645598075D01*
X639536164Y645578695D01*
X639531403Y645559690D01*
X639524803Y645541244D01*
X639516426Y645523532D01*
X639506354Y645506728D01*
X639494683Y645490991D01*
X639481526Y645476474D01*
X639467009Y645463317D01*
X639451272Y645451646D01*
X639434468Y645441574D01*
X639416756Y645433197D01*
X639398310Y645426597D01*
X639379305Y645421836D01*
X639359925Y645418961D01*
X639340356Y645418000D01*
X635739644Y645418000D01*
X635720075Y645418961D01*
X635700695Y645421836D01*
X635681690Y645426597D01*
X635663244Y645433197D01*
X635645532Y645441574D01*
X635628728Y645451646D01*
X635612991Y645463317D01*
X635598474Y645476474D01*
X635585317Y645490991D01*
X635573646Y645506728D01*
X635563574Y645523532D01*
X635555197Y645541244D01*
X635548597Y645559690D01*
X635543836Y645578695D01*
X635540961Y645598075D01*
X635540000Y645617644D01*
X635540000Y646742356D01*
X635540961Y646761925D01*
X635543836Y646781305D01*
X635548597Y646800310D01*
X635555197Y646818756D01*
X635563574Y646836468D01*
X635573646Y646853272D01*
X635585317Y646869009D01*
X635598474Y646883526D01*
X635612991Y646896683D01*
X635628728Y646908354D01*
X635645532Y646918426D01*
X635663244Y646926803D01*
X635681690Y646933403D01*
X635700695Y646938164D01*
X635720075Y646941039D01*
X635739644Y646942000D01*
X639340356Y646942000D01*
X639359925Y646941039D01*
G37*
G36*
X639359925Y644401039D02*
G01*
X639379305Y644398164D01*
X639398310Y644393403D01*
X639416756Y644386803D01*
X639434468Y644378426D01*
X639451272Y644368354D01*
X639467009Y644356683D01*
X639481526Y644343526D01*
X639494683Y644329009D01*
X639506354Y644313272D01*
X639516426Y644296468D01*
X639524803Y644278756D01*
X639531403Y644260310D01*
X639536164Y644241305D01*
X639539039Y644221925D01*
X639540000Y644202356D01*
X639540000Y643077644D01*
X639539039Y643058075D01*
X639536164Y643038695D01*
X639531403Y643019690D01*
X639524803Y643001244D01*
X639516426Y642983532D01*
X639506354Y642966728D01*
X639494683Y642950991D01*
X639481526Y642936474D01*
X639467009Y642923317D01*
X639451272Y642911646D01*
X639434468Y642901574D01*
X639416756Y642893197D01*
X639398310Y642886597D01*
X639379305Y642881836D01*
X639359925Y642878961D01*
X639340356Y642878000D01*
X635739644Y642878000D01*
X635720075Y642878961D01*
X635700695Y642881836D01*
X635681690Y642886597D01*
X635663244Y642893197D01*
X635645532Y642901574D01*
X635628728Y642911646D01*
X635612991Y642923317D01*
X635598474Y642936474D01*
X635585317Y642950991D01*
X635573646Y642966728D01*
X635563574Y642983532D01*
X635555197Y643001244D01*
X635548597Y643019690D01*
X635543836Y643038695D01*
X635540961Y643058075D01*
X635540000Y643077644D01*
X635540000Y644202356D01*
X635540961Y644221925D01*
X635543836Y644241305D01*
X635548597Y644260310D01*
X635555197Y644278756D01*
X635563574Y644296468D01*
X635573646Y644313272D01*
X635585317Y644329009D01*
X635598474Y644343526D01*
X635612991Y644356683D01*
X635628728Y644368354D01*
X635645532Y644378426D01*
X635663244Y644386803D01*
X635681690Y644393403D01*
X635700695Y644398164D01*
X635720075Y644401039D01*
X635739644Y644402000D01*
X639340356Y644402000D01*
X639359925Y644401039D01*
G37*
G36*
X639359925Y641861039D02*
G01*
X639379305Y641858164D01*
X639398310Y641853403D01*
X639416756Y641846803D01*
X639434468Y641838426D01*
X639451272Y641828354D01*
X639467009Y641816683D01*
X639481526Y641803526D01*
X639494683Y641789009D01*
X639506354Y641773272D01*
X639516426Y641756468D01*
X639524803Y641738756D01*
X639531403Y641720310D01*
X639536164Y641701305D01*
X639539039Y641681925D01*
X639540000Y641662356D01*
X639540000Y640537644D01*
X639539039Y640518075D01*
X639536164Y640498695D01*
X639531403Y640479690D01*
X639524803Y640461244D01*
X639516426Y640443532D01*
X639506354Y640426728D01*
X639494683Y640410991D01*
X639481526Y640396474D01*
X639467009Y640383317D01*
X639451272Y640371646D01*
X639434468Y640361574D01*
X639416756Y640353197D01*
X639398310Y640346597D01*
X639379305Y640341836D01*
X639359925Y640338961D01*
X639340356Y640338000D01*
X635739644Y640338000D01*
X635720075Y640338961D01*
X635700695Y640341836D01*
X635681690Y640346597D01*
X635663244Y640353197D01*
X635645532Y640361574D01*
X635628728Y640371646D01*
X635612991Y640383317D01*
X635598474Y640396474D01*
X635585317Y640410991D01*
X635573646Y640426728D01*
X635563574Y640443532D01*
X635555197Y640461244D01*
X635548597Y640479690D01*
X635543836Y640498695D01*
X635540961Y640518075D01*
X635540000Y640537644D01*
X635540000Y641662356D01*
X635540961Y641681925D01*
X635543836Y641701305D01*
X635548597Y641720310D01*
X635555197Y641738756D01*
X635563574Y641756468D01*
X635573646Y641773272D01*
X635585317Y641789009D01*
X635598474Y641803526D01*
X635612991Y641816683D01*
X635628728Y641828354D01*
X635645532Y641838426D01*
X635663244Y641846803D01*
X635681690Y641853403D01*
X635700695Y641858164D01*
X635720075Y641861039D01*
X635739644Y641862000D01*
X639340356Y641862000D01*
X639359925Y641861039D01*
G37*
G36*
X639359925Y639321039D02*
G01*
X639379305Y639318164D01*
X639398310Y639313403D01*
X639416756Y639306803D01*
X639434468Y639298426D01*
X639451272Y639288354D01*
X639467009Y639276683D01*
X639481526Y639263526D01*
X639494683Y639249009D01*
X639506354Y639233272D01*
X639516426Y639216468D01*
X639524803Y639198756D01*
X639531403Y639180310D01*
X639536164Y639161305D01*
X639539039Y639141925D01*
X639540000Y639122356D01*
X639540000Y637997644D01*
X639539039Y637978075D01*
X639536164Y637958695D01*
X639531403Y637939690D01*
X639524803Y637921244D01*
X639516426Y637903532D01*
X639506354Y637886728D01*
X639494683Y637870991D01*
X639481526Y637856474D01*
X639467009Y637843317D01*
X639451272Y637831646D01*
X639434468Y637821574D01*
X639416756Y637813197D01*
X639398310Y637806597D01*
X639379305Y637801836D01*
X639359925Y637798961D01*
X639340356Y637798000D01*
X635739644Y637798000D01*
X635720075Y637798961D01*
X635700695Y637801836D01*
X635681690Y637806597D01*
X635663244Y637813197D01*
X635645532Y637821574D01*
X635628728Y637831646D01*
X635612991Y637843317D01*
X635598474Y637856474D01*
X635585317Y637870991D01*
X635573646Y637886728D01*
X635563574Y637903532D01*
X635555197Y637921244D01*
X635548597Y637939690D01*
X635543836Y637958695D01*
X635540961Y637978075D01*
X635540000Y637997644D01*
X635540000Y639122356D01*
X635540961Y639141925D01*
X635543836Y639161305D01*
X635548597Y639180310D01*
X635555197Y639198756D01*
X635563574Y639216468D01*
X635573646Y639233272D01*
X635585317Y639249009D01*
X635598474Y639263526D01*
X635612991Y639276683D01*
X635628728Y639288354D01*
X635645532Y639298426D01*
X635663244Y639306803D01*
X635681690Y639313403D01*
X635700695Y639318164D01*
X635720075Y639321039D01*
X635739644Y639322000D01*
X639340356Y639322000D01*
X639359925Y639321039D01*
G37*
D11*
X646700000Y658495000D03*
X656320000Y658495000D03*
X656320000Y640715000D03*
X646700000Y640715000D03*
X646700000Y653415000D03*
X656320000Y653415000D03*
X656320000Y645795000D03*
X646700000Y645795000D03*
D13*
X671830000Y648335000D03*
D14*
X664210000Y640715000D03*
X669290000Y648335000D03*
X666750000Y640715000D03*
X666750000Y648335000D03*
X669290000Y640715000D03*
X664210000Y648335000D03*
X671830000Y640715000D03*
M02*
