G04 #@! TF.GenerationSoftware,KiCad,Pcbnew,5.1.5+dfsg1-2build2*
G04 #@! TF.CreationDate,2021-05-15T15:28:44-07:00*
G04 #@! TF.ProjectId,preamp-board-v5,70726561-6d70-42d6-926f-6172642d7635,rev?*
G04 #@! TF.SameCoordinates,Original*
G04 #@! TF.FileFunction,Legend,Top*
G04 #@! TF.FilePolarity,Positive*
%FSLAX46Y46*%
G04 Gerber Fmt 4.6, Leading zero omitted, Abs format (unit mm)*
G04 Created by KiCad (PCBNEW 5.1.5+dfsg1-2build2) date 2021-05-15 15:28:44*
%MOMM*%
%LPD*%
G04 APERTURE LIST*
%ADD10C,0.120000*%
%ADD11C,0.150000*%
G04 APERTURE END LIST*
D10*
X683320000Y640715000D02*
G75*
G03X683320000Y640715000I-2620000J0D01*
G01*
X680700000Y643295000D02*
X680700000Y638135000D01*
X680740000Y643295000D02*
X680740000Y638135000D01*
X680780000Y643294000D02*
X680780000Y638136000D01*
X680820000Y643293000D02*
X680820000Y638137000D01*
X680860000Y643291000D02*
X680860000Y638139000D01*
X680900000Y643288000D02*
X680900000Y638142000D01*
X680940000Y643284000D02*
X680940000Y641755000D01*
X680940000Y639675000D02*
X680940000Y638146000D01*
X680980000Y643280000D02*
X680980000Y641755000D01*
X680980000Y639675000D02*
X680980000Y638150000D01*
X681020000Y643276000D02*
X681020000Y641755000D01*
X681020000Y639675000D02*
X681020000Y638154000D01*
X681060000Y643271000D02*
X681060000Y641755000D01*
X681060000Y639675000D02*
X681060000Y638159000D01*
X681100000Y643265000D02*
X681100000Y641755000D01*
X681100000Y639675000D02*
X681100000Y638165000D01*
X681140000Y643258000D02*
X681140000Y641755000D01*
X681140000Y639675000D02*
X681140000Y638172000D01*
X681180000Y643251000D02*
X681180000Y641755000D01*
X681180000Y639675000D02*
X681180000Y638179000D01*
X681220000Y643243000D02*
X681220000Y641755000D01*
X681220000Y639675000D02*
X681220000Y638187000D01*
X681260000Y643235000D02*
X681260000Y641755000D01*
X681260000Y639675000D02*
X681260000Y638195000D01*
X681300000Y643226000D02*
X681300000Y641755000D01*
X681300000Y639675000D02*
X681300000Y638204000D01*
X681340000Y643216000D02*
X681340000Y641755000D01*
X681340000Y639675000D02*
X681340000Y638214000D01*
X681380000Y643206000D02*
X681380000Y641755000D01*
X681380000Y639675000D02*
X681380000Y638224000D01*
X681421000Y643195000D02*
X681421000Y641755000D01*
X681421000Y639675000D02*
X681421000Y638235000D01*
X681461000Y643183000D02*
X681461000Y641755000D01*
X681461000Y639675000D02*
X681461000Y638247000D01*
X681501000Y643170000D02*
X681501000Y641755000D01*
X681501000Y639675000D02*
X681501000Y638260000D01*
X681541000Y643157000D02*
X681541000Y641755000D01*
X681541000Y639675000D02*
X681541000Y638273000D01*
X681581000Y643143000D02*
X681581000Y641755000D01*
X681581000Y639675000D02*
X681581000Y638287000D01*
X681621000Y643129000D02*
X681621000Y641755000D01*
X681621000Y639675000D02*
X681621000Y638301000D01*
X681661000Y643113000D02*
X681661000Y641755000D01*
X681661000Y639675000D02*
X681661000Y638317000D01*
X681701000Y643097000D02*
X681701000Y641755000D01*
X681701000Y639675000D02*
X681701000Y638333000D01*
X681741000Y643080000D02*
X681741000Y641755000D01*
X681741000Y639675000D02*
X681741000Y638350000D01*
X681781000Y643063000D02*
X681781000Y641755000D01*
X681781000Y639675000D02*
X681781000Y638367000D01*
X681821000Y643044000D02*
X681821000Y641755000D01*
X681821000Y639675000D02*
X681821000Y638386000D01*
X681861000Y643025000D02*
X681861000Y641755000D01*
X681861000Y639675000D02*
X681861000Y638405000D01*
X681901000Y643005000D02*
X681901000Y641755000D01*
X681901000Y639675000D02*
X681901000Y638425000D01*
X681941000Y642983000D02*
X681941000Y641755000D01*
X681941000Y639675000D02*
X681941000Y638447000D01*
X681981000Y642962000D02*
X681981000Y641755000D01*
X681981000Y639675000D02*
X681981000Y638468000D01*
X682021000Y642939000D02*
X682021000Y641755000D01*
X682021000Y639675000D02*
X682021000Y638491000D01*
X682061000Y642915000D02*
X682061000Y641755000D01*
X682061000Y639675000D02*
X682061000Y638515000D01*
X682101000Y642890000D02*
X682101000Y641755000D01*
X682101000Y639675000D02*
X682101000Y638540000D01*
X682141000Y642864000D02*
X682141000Y641755000D01*
X682141000Y639675000D02*
X682141000Y638566000D01*
X682181000Y642837000D02*
X682181000Y641755000D01*
X682181000Y639675000D02*
X682181000Y638593000D01*
X682221000Y642810000D02*
X682221000Y641755000D01*
X682221000Y639675000D02*
X682221000Y638620000D01*
X682261000Y642780000D02*
X682261000Y641755000D01*
X682261000Y639675000D02*
X682261000Y638650000D01*
X682301000Y642750000D02*
X682301000Y641755000D01*
X682301000Y639675000D02*
X682301000Y638680000D01*
X682341000Y642719000D02*
X682341000Y641755000D01*
X682341000Y639675000D02*
X682341000Y638711000D01*
X682381000Y642686000D02*
X682381000Y641755000D01*
X682381000Y639675000D02*
X682381000Y638744000D01*
X682421000Y642652000D02*
X682421000Y641755000D01*
X682421000Y639675000D02*
X682421000Y638778000D01*
X682461000Y642616000D02*
X682461000Y641755000D01*
X682461000Y639675000D02*
X682461000Y638814000D01*
X682501000Y642579000D02*
X682501000Y641755000D01*
X682501000Y639675000D02*
X682501000Y638851000D01*
X682541000Y642541000D02*
X682541000Y641755000D01*
X682541000Y639675000D02*
X682541000Y638889000D01*
X682581000Y642500000D02*
X682581000Y641755000D01*
X682581000Y639675000D02*
X682581000Y638930000D01*
X682621000Y642458000D02*
X682621000Y641755000D01*
X682621000Y639675000D02*
X682621000Y638972000D01*
X682661000Y642414000D02*
X682661000Y641755000D01*
X682661000Y639675000D02*
X682661000Y639016000D01*
X682701000Y642368000D02*
X682701000Y641755000D01*
X682701000Y639675000D02*
X682701000Y639062000D01*
X682741000Y642320000D02*
X682741000Y641755000D01*
X682741000Y639675000D02*
X682741000Y639110000D01*
X682781000Y642269000D02*
X682781000Y641755000D01*
X682781000Y639675000D02*
X682781000Y639161000D01*
X682821000Y642215000D02*
X682821000Y641755000D01*
X682821000Y639675000D02*
X682821000Y639215000D01*
X682861000Y642158000D02*
X682861000Y641755000D01*
X682861000Y639675000D02*
X682861000Y639272000D01*
X682901000Y642098000D02*
X682901000Y641755000D01*
X682901000Y639675000D02*
X682901000Y639332000D01*
X682941000Y642034000D02*
X682941000Y641755000D01*
X682941000Y639675000D02*
X682941000Y639396000D01*
X682981000Y641966000D02*
X682981000Y641755000D01*
X682981000Y639675000D02*
X682981000Y639464000D01*
X683021000Y641893000D02*
X683021000Y639537000D01*
X683061000Y641813000D02*
X683061000Y639617000D01*
X683101000Y641726000D02*
X683101000Y639704000D01*
X683141000Y641630000D02*
X683141000Y639800000D01*
X683181000Y641520000D02*
X683181000Y639910000D01*
X683221000Y641392000D02*
X683221000Y640038000D01*
X683261000Y641233000D02*
X683261000Y640197000D01*
X683301000Y640999000D02*
X683301000Y640431000D01*
X677895225Y642190000D02*
X678395225Y642190000D01*
X678145225Y642440000D02*
X678145225Y641940000D01*
X683294775Y656770000D02*
X683294775Y657270000D01*
X683544775Y657020000D02*
X683044775Y657020000D01*
X678139000Y658211000D02*
X678139000Y658779000D01*
X678179000Y657977000D02*
X678179000Y659013000D01*
X678219000Y657818000D02*
X678219000Y659172000D01*
X678259000Y657690000D02*
X678259000Y659300000D01*
X678299000Y657580000D02*
X678299000Y659410000D01*
X678339000Y657484000D02*
X678339000Y659506000D01*
X678379000Y657397000D02*
X678379000Y659593000D01*
X678419000Y657317000D02*
X678419000Y659673000D01*
X678459000Y659535000D02*
X678459000Y659746000D01*
X678459000Y657244000D02*
X678459000Y657455000D01*
X678499000Y659535000D02*
X678499000Y659814000D01*
X678499000Y657176000D02*
X678499000Y657455000D01*
X678539000Y659535000D02*
X678539000Y659878000D01*
X678539000Y657112000D02*
X678539000Y657455000D01*
X678579000Y659535000D02*
X678579000Y659938000D01*
X678579000Y657052000D02*
X678579000Y657455000D01*
X678619000Y659535000D02*
X678619000Y659995000D01*
X678619000Y656995000D02*
X678619000Y657455000D01*
X678659000Y659535000D02*
X678659000Y660049000D01*
X678659000Y656941000D02*
X678659000Y657455000D01*
X678699000Y659535000D02*
X678699000Y660100000D01*
X678699000Y656890000D02*
X678699000Y657455000D01*
X678739000Y659535000D02*
X678739000Y660148000D01*
X678739000Y656842000D02*
X678739000Y657455000D01*
X678779000Y659535000D02*
X678779000Y660194000D01*
X678779000Y656796000D02*
X678779000Y657455000D01*
X678819000Y659535000D02*
X678819000Y660238000D01*
X678819000Y656752000D02*
X678819000Y657455000D01*
X678859000Y659535000D02*
X678859000Y660280000D01*
X678859000Y656710000D02*
X678859000Y657455000D01*
X678899000Y659535000D02*
X678899000Y660321000D01*
X678899000Y656669000D02*
X678899000Y657455000D01*
X678939000Y659535000D02*
X678939000Y660359000D01*
X678939000Y656631000D02*
X678939000Y657455000D01*
X678979000Y659535000D02*
X678979000Y660396000D01*
X678979000Y656594000D02*
X678979000Y657455000D01*
X679019000Y659535000D02*
X679019000Y660432000D01*
X679019000Y656558000D02*
X679019000Y657455000D01*
X679059000Y659535000D02*
X679059000Y660466000D01*
X679059000Y656524000D02*
X679059000Y657455000D01*
X679099000Y659535000D02*
X679099000Y660499000D01*
X679099000Y656491000D02*
X679099000Y657455000D01*
X679139000Y659535000D02*
X679139000Y660530000D01*
X679139000Y656460000D02*
X679139000Y657455000D01*
X679179000Y659535000D02*
X679179000Y660560000D01*
X679179000Y656430000D02*
X679179000Y657455000D01*
X679219000Y659535000D02*
X679219000Y660590000D01*
X679219000Y656400000D02*
X679219000Y657455000D01*
X679259000Y659535000D02*
X679259000Y660617000D01*
X679259000Y656373000D02*
X679259000Y657455000D01*
X679299000Y659535000D02*
X679299000Y660644000D01*
X679299000Y656346000D02*
X679299000Y657455000D01*
X679339000Y659535000D02*
X679339000Y660670000D01*
X679339000Y656320000D02*
X679339000Y657455000D01*
X679379000Y659535000D02*
X679379000Y660695000D01*
X679379000Y656295000D02*
X679379000Y657455000D01*
X679419000Y659535000D02*
X679419000Y660719000D01*
X679419000Y656271000D02*
X679419000Y657455000D01*
X679459000Y659535000D02*
X679459000Y660742000D01*
X679459000Y656248000D02*
X679459000Y657455000D01*
X679499000Y659535000D02*
X679499000Y660763000D01*
X679499000Y656227000D02*
X679499000Y657455000D01*
X679539000Y659535000D02*
X679539000Y660785000D01*
X679539000Y656205000D02*
X679539000Y657455000D01*
X679579000Y659535000D02*
X679579000Y660805000D01*
X679579000Y656185000D02*
X679579000Y657455000D01*
X679619000Y659535000D02*
X679619000Y660824000D01*
X679619000Y656166000D02*
X679619000Y657455000D01*
X679659000Y659535000D02*
X679659000Y660843000D01*
X679659000Y656147000D02*
X679659000Y657455000D01*
X679699000Y659535000D02*
X679699000Y660860000D01*
X679699000Y656130000D02*
X679699000Y657455000D01*
X679739000Y659535000D02*
X679739000Y660877000D01*
X679739000Y656113000D02*
X679739000Y657455000D01*
X679779000Y659535000D02*
X679779000Y660893000D01*
X679779000Y656097000D02*
X679779000Y657455000D01*
X679819000Y659535000D02*
X679819000Y660909000D01*
X679819000Y656081000D02*
X679819000Y657455000D01*
X679859000Y659535000D02*
X679859000Y660923000D01*
X679859000Y656067000D02*
X679859000Y657455000D01*
X679899000Y659535000D02*
X679899000Y660937000D01*
X679899000Y656053000D02*
X679899000Y657455000D01*
X679939000Y659535000D02*
X679939000Y660950000D01*
X679939000Y656040000D02*
X679939000Y657455000D01*
X679979000Y659535000D02*
X679979000Y660963000D01*
X679979000Y656027000D02*
X679979000Y657455000D01*
X680019000Y659535000D02*
X680019000Y660975000D01*
X680019000Y656015000D02*
X680019000Y657455000D01*
X680060000Y659535000D02*
X680060000Y660986000D01*
X680060000Y656004000D02*
X680060000Y657455000D01*
X680100000Y659535000D02*
X680100000Y660996000D01*
X680100000Y655994000D02*
X680100000Y657455000D01*
X680140000Y659535000D02*
X680140000Y661006000D01*
X680140000Y655984000D02*
X680140000Y657455000D01*
X680180000Y659535000D02*
X680180000Y661015000D01*
X680180000Y655975000D02*
X680180000Y657455000D01*
X680220000Y659535000D02*
X680220000Y661023000D01*
X680220000Y655967000D02*
X680220000Y657455000D01*
X680260000Y659535000D02*
X680260000Y661031000D01*
X680260000Y655959000D02*
X680260000Y657455000D01*
X680300000Y659535000D02*
X680300000Y661038000D01*
X680300000Y655952000D02*
X680300000Y657455000D01*
X680340000Y659535000D02*
X680340000Y661045000D01*
X680340000Y655945000D02*
X680340000Y657455000D01*
X680380000Y659535000D02*
X680380000Y661051000D01*
X680380000Y655939000D02*
X680380000Y657455000D01*
X680420000Y659535000D02*
X680420000Y661056000D01*
X680420000Y655934000D02*
X680420000Y657455000D01*
X680460000Y659535000D02*
X680460000Y661060000D01*
X680460000Y655930000D02*
X680460000Y657455000D01*
X680500000Y659535000D02*
X680500000Y661064000D01*
X680500000Y655926000D02*
X680500000Y657455000D01*
X680540000Y655922000D02*
X680540000Y661068000D01*
X680580000Y655919000D02*
X680580000Y661071000D01*
X680620000Y655917000D02*
X680620000Y661073000D01*
X680660000Y655916000D02*
X680660000Y661074000D01*
X680700000Y655915000D02*
X680700000Y661075000D01*
X680740000Y655915000D02*
X680740000Y661075000D01*
X683360000Y658495000D02*
G75*
G03X683360000Y658495000I-2620000J0D01*
G01*
X664260000Y659865000D02*
X671700000Y659865000D01*
X664260000Y657125000D02*
X671700000Y657125000D01*
X664260000Y659865000D02*
X664260000Y657125000D01*
X671700000Y659865000D02*
X671700000Y657125000D01*
X671700000Y654785000D02*
X671700000Y652045000D01*
X664260000Y654785000D02*
X664260000Y652045000D01*
X664260000Y652045000D02*
X671700000Y652045000D01*
X664260000Y654785000D02*
X671700000Y654785000D01*
X648640000Y658495000D02*
X649590000Y658495000D01*
X654380000Y658495000D02*
X653430000Y658495000D01*
X649590000Y657575000D02*
X653430000Y657575000D01*
X649590000Y659415000D02*
X649590000Y657575000D01*
X653430000Y659415000D02*
X649590000Y659415000D01*
X653430000Y657575000D02*
X653430000Y659415000D01*
X653430000Y639795000D02*
X653430000Y641635000D01*
X653430000Y641635000D02*
X649590000Y641635000D01*
X649590000Y641635000D02*
X649590000Y639795000D01*
X649590000Y639795000D02*
X653430000Y639795000D01*
X654380000Y640715000D02*
X653430000Y640715000D01*
X648640000Y640715000D02*
X649590000Y640715000D01*
X649590000Y654335000D02*
X649590000Y652495000D01*
X649590000Y652495000D02*
X653430000Y652495000D01*
X653430000Y652495000D02*
X653430000Y654335000D01*
X653430000Y654335000D02*
X649590000Y654335000D01*
X648640000Y653415000D02*
X649590000Y653415000D01*
X654380000Y653415000D02*
X653430000Y653415000D01*
X654380000Y645795000D02*
X653430000Y645795000D01*
X648640000Y645795000D02*
X649590000Y645795000D01*
X653430000Y646715000D02*
X649590000Y646715000D01*
X653430000Y644875000D02*
X653430000Y646715000D01*
X649590000Y644875000D02*
X653430000Y644875000D01*
X649590000Y646715000D02*
X649590000Y644875000D01*
X673160000Y643525000D02*
G75*
G02X673160000Y645525000I0J1000000D01*
G01*
X673160000Y645525000D02*
X673160000Y647175000D01*
X673160000Y647175000D02*
X662880000Y647175000D01*
X662880000Y647175000D02*
X662880000Y641875000D01*
X662880000Y641875000D02*
X673160000Y641875000D01*
X673160000Y641875000D02*
X673160000Y643525000D01*
X673220000Y649665000D02*
X662820000Y649665000D01*
X662820000Y649665000D02*
X662820000Y639385000D01*
X662820000Y639385000D02*
X673220000Y639385000D01*
X673220000Y639385000D02*
X673220000Y649665000D01*
D11*
X680533333Y644107857D02*
X680485714Y644060238D01*
X680342857Y644012619D01*
X680247619Y644012619D01*
X680104761Y644060238D01*
X680009523Y644155476D01*
X679961904Y644250714D01*
X679914285Y644441190D01*
X679914285Y644584047D01*
X679961904Y644774523D01*
X680009523Y644869761D01*
X680104761Y644965000D01*
X680247619Y645012619D01*
X680342857Y645012619D01*
X680485714Y644965000D01*
X680533333Y644917380D01*
X681485714Y644012619D02*
X680914285Y644012619D01*
X681200000Y644012619D02*
X681200000Y645012619D01*
X681104761Y644869761D01*
X681009523Y644774523D01*
X680914285Y644726904D01*
X680573333Y654387857D02*
X680525714Y654340238D01*
X680382857Y654292619D01*
X680287619Y654292619D01*
X680144761Y654340238D01*
X680049523Y654435476D01*
X680001904Y654530714D01*
X679954285Y654721190D01*
X679954285Y654864047D01*
X680001904Y655054523D01*
X680049523Y655149761D01*
X680144761Y655245000D01*
X680287619Y655292619D01*
X680382857Y655292619D01*
X680525714Y655245000D01*
X680573333Y655197380D01*
X680954285Y655197380D02*
X681001904Y655245000D01*
X681097142Y655292619D01*
X681335238Y655292619D01*
X681430476Y655245000D01*
X681478095Y655197380D01*
X681525714Y655102142D01*
X681525714Y655006904D01*
X681478095Y654864047D01*
X680906666Y654292619D01*
X681525714Y654292619D01*
X667813333Y660637857D02*
X667765714Y660590238D01*
X667622857Y660542619D01*
X667527619Y660542619D01*
X667384761Y660590238D01*
X667289523Y660685476D01*
X667241904Y660780714D01*
X667194285Y660971190D01*
X667194285Y661114047D01*
X667241904Y661304523D01*
X667289523Y661399761D01*
X667384761Y661495000D01*
X667527619Y661542619D01*
X667622857Y661542619D01*
X667765714Y661495000D01*
X667813333Y661447380D01*
X668146666Y661542619D02*
X668765714Y661542619D01*
X668432380Y661161666D01*
X668575238Y661161666D01*
X668670476Y661114047D01*
X668718095Y661066428D01*
X668765714Y660971190D01*
X668765714Y660733095D01*
X668718095Y660637857D01*
X668670476Y660590238D01*
X668575238Y660542619D01*
X668289523Y660542619D01*
X668194285Y660590238D01*
X668146666Y660637857D01*
X667813333Y655557857D02*
X667765714Y655510238D01*
X667622857Y655462619D01*
X667527619Y655462619D01*
X667384761Y655510238D01*
X667289523Y655605476D01*
X667241904Y655700714D01*
X667194285Y655891190D01*
X667194285Y656034047D01*
X667241904Y656224523D01*
X667289523Y656319761D01*
X667384761Y656415000D01*
X667527619Y656462619D01*
X667622857Y656462619D01*
X667765714Y656415000D01*
X667813333Y656367380D01*
X668670476Y656129285D02*
X668670476Y655462619D01*
X668432380Y656510238D02*
X668194285Y655795952D01*
X668813333Y655795952D01*
X639746666Y668567619D02*
X639746666Y667853333D01*
X639699047Y667710476D01*
X639603809Y667615238D01*
X639460952Y667567619D01*
X639365714Y667567619D01*
X640746666Y667567619D02*
X640175238Y667567619D01*
X640460952Y667567619D02*
X640460952Y668567619D01*
X640365714Y668424761D01*
X640270476Y668329523D01*
X640175238Y668281904D01*
X651343333Y656122619D02*
X651010000Y656598809D01*
X650771904Y656122619D02*
X650771904Y657122619D01*
X651152857Y657122619D01*
X651248095Y657075000D01*
X651295714Y657027380D01*
X651343333Y656932142D01*
X651343333Y656789285D01*
X651295714Y656694047D01*
X651248095Y656646428D01*
X651152857Y656598809D01*
X650771904Y656598809D01*
X652295714Y656122619D02*
X651724285Y656122619D01*
X652010000Y656122619D02*
X652010000Y657122619D01*
X651914761Y656979761D01*
X651819523Y656884523D01*
X651724285Y656836904D01*
X651343333Y638342619D02*
X651010000Y638818809D01*
X650771904Y638342619D02*
X650771904Y639342619D01*
X651152857Y639342619D01*
X651248095Y639295000D01*
X651295714Y639247380D01*
X651343333Y639152142D01*
X651343333Y639009285D01*
X651295714Y638914047D01*
X651248095Y638866428D01*
X651152857Y638818809D01*
X650771904Y638818809D01*
X651724285Y639247380D02*
X651771904Y639295000D01*
X651867142Y639342619D01*
X652105238Y639342619D01*
X652200476Y639295000D01*
X652248095Y639247380D01*
X652295714Y639152142D01*
X652295714Y639056904D01*
X652248095Y638914047D01*
X651676666Y638342619D01*
X652295714Y638342619D01*
X651343333Y654882619D02*
X651010000Y655358809D01*
X650771904Y654882619D02*
X650771904Y655882619D01*
X651152857Y655882619D01*
X651248095Y655835000D01*
X651295714Y655787380D01*
X651343333Y655692142D01*
X651343333Y655549285D01*
X651295714Y655454047D01*
X651248095Y655406428D01*
X651152857Y655358809D01*
X650771904Y655358809D01*
X651676666Y655882619D02*
X652295714Y655882619D01*
X651962380Y655501666D01*
X652105238Y655501666D01*
X652200476Y655454047D01*
X652248095Y655406428D01*
X652295714Y655311190D01*
X652295714Y655073095D01*
X652248095Y654977857D01*
X652200476Y654930238D01*
X652105238Y654882619D01*
X651819523Y654882619D01*
X651724285Y654930238D01*
X651676666Y654977857D01*
X651343333Y647262619D02*
X651010000Y647738809D01*
X650771904Y647262619D02*
X650771904Y648262619D01*
X651152857Y648262619D01*
X651248095Y648215000D01*
X651295714Y648167380D01*
X651343333Y648072142D01*
X651343333Y647929285D01*
X651295714Y647834047D01*
X651248095Y647786428D01*
X651152857Y647738809D01*
X650771904Y647738809D01*
X652200476Y647929285D02*
X652200476Y647262619D01*
X651962380Y648310238D02*
X651724285Y647595952D01*
X652343333Y647595952D01*
X673612380Y643763095D02*
X674421904Y643763095D01*
X674517142Y643810714D01*
X674564761Y643858333D01*
X674612380Y643953571D01*
X674612380Y644144047D01*
X674564761Y644239285D01*
X674517142Y644286904D01*
X674421904Y644334523D01*
X673612380Y644334523D01*
X674612380Y645334523D02*
X674612380Y644763095D01*
X674612380Y645048809D02*
X673612380Y645048809D01*
X673755238Y644953571D01*
X673850476Y644858333D01*
X673898095Y644763095D01*
M02*
