<?xml version="1.0" standalone="no"?>
<!DOCTYPE svg PUBLIC "-//W3C//DTD SVG 1.1//EN"
"http://www.w3.org/Graphics/SVG/1.1/DTD/svg11.dtd">
<svg width="302.513" height="225.713" viewBox="0 0 6302.36 4702.36" version="1.1"
xmlns="http://www.w3.org/2000/svg"
xmlns:xlink="http://www.w3.org/1999/xlink">
<circle cx="51.1811" cy="2449.61" r="51.1811" style=""/>
<circle cx="51.1811" cy="2252.76" r="51.1811" style=""/>
<circle cx="951.181" cy="2252.76" r="51.1811" style=""/>
<circle cx="951.181" cy="2449.61" r="51.1811" style=""/>
<circle cx="2251.18" cy="1451.18" r="51.1811" style=""/>
<circle cx="2251.18" cy="1651.18" r="51.1811" style=""/>
<circle cx="2451.18" cy="1451.18" r="51.1811" style=""/>
<circle cx="2451.18" cy="1651.18" r="51.1811" style=""/>
<circle cx="2251.18" cy="1851.18" r="51.1811" style=""/>
<circle cx="2251.18" cy="2051.18" r="51.1811" style=""/>
<circle cx="2451.18" cy="1851.18" r="51.1811" style=""/>
<circle cx="2451.18" cy="2051.18" r="51.1811" style=""/>
<circle cx="2251.18" cy="2251.18" r="51.1811" style=""/>
<circle cx="2251.18" cy="2451.18" r="51.1811" style=""/>
<circle cx="2451.18" cy="2251.18" r="51.1811" style=""/>
<circle cx="2451.18" cy="2451.18" r="51.1811" style=""/>
<circle cx="2251.18" cy="2651.18" r="51.1811" style=""/>
<circle cx="2451.18" cy="2651.18" r="51.1811" style=""/>
<circle cx="2251.18" cy="2851.18" r="51.1811" style=""/>
<circle cx="2451.18" cy="2851.18" r="51.1811" style=""/>
<circle cx="2251.18" cy="3051.18" r="51.1811" style=""/>
<circle cx="2451.18" cy="3051.18" r="51.1811" style=""/>
<circle cx="2251.18" cy="3251.18" r="51.1811" style=""/>
<circle cx="2451.18" cy="3251.18" r="51.1811" style=""/>
<circle cx="4051.18" cy="2038.58" r="51.1811" style=""/>
<circle cx="4251.18" cy="2038.58" r="51.1811" style=""/>
<circle cx="4451.18" cy="2038.58" r="51.1811" style=""/>
<circle cx="4651.18" cy="2038.58" r="51.1811" style=""/>
<circle cx="4051.18" cy="2663.78" r="51.1811" style=""/>
<circle cx="4251.18" cy="2663.78" r="51.1811" style=""/>
<circle cx="4451.18" cy="2663.78" r="51.1811" style=""/>
<circle cx="4651.18" cy="2663.78" r="51.1811" style=""/>
<circle cx="4051.18" cy="3778.35" r="51.1811" style=""/>
<circle cx="4651.18" cy="3778.35" r="51.1811" style=""/>
<circle cx="4051.18" cy="4651.18" r="51.1811" style=""/>
<circle cx="4651.18" cy="4651.18" r="51.1811" style=""/>
<circle cx="6251.18" cy="2944.88" r="51.1811" style=""/>
<circle cx="6251.18" cy="2551.18" r="51.1811" style=""/>
<circle cx="6251.18" cy="1951.18" r="51.1811" style=""/>
<circle cx="6251.18" cy="1557.48" r="51.1811" style=""/>
<circle cx="4651.18" cy="51.1811" r="51.1811" style=""/>
<circle cx="4051.18" cy="51.1811" r="51.1811" style=""/>
<circle cx="4051.18" cy="924.016" r="51.1811" style=""/>
<circle cx="4651.18" cy="924.016" r="51.1811" style=""/>
</svg>
