%FSLAX45Y45*%
G04 Gerber Fmt 4.5, Leading zero omitted, Abs format (unit mm)*
G04 Created by KiCad (PCBNEW (5.1.9)-1) date 2021-04-30 18:01:18*
%MOMM*%
%LPD*%
G01*
G04 APERTURE LIST*
%ADD10C,0.200000*%
%ADD11C,0.300000*%
G04 APERTURE END LIST*
D10*
X4211000Y3432300D02*
X4251000Y3392300D01*
X4251000Y3432300D02*
X4211000Y3392300D01*
X4801500Y1908000D02*
X4841500Y1868000D01*
X4841500Y1908000D02*
X4801500Y1868000D01*
X5206500Y3668800D02*
X5246500Y3628800D01*
X5246500Y3668800D02*
X5206500Y3628800D01*
X5500000Y2937000D02*
G75*
G03*
X5500000Y2937000I-39000J0D01*
G01*
X5500000Y2143000D02*
G75*
G03*
X5500000Y2143000I-39000J0D01*
G01*
X5754000Y2937000D02*
G75*
G03*
X5754000Y2937000I-39000J0D01*
G01*
X5754000Y2143000D02*
G75*
G03*
X5754000Y2143000I-39000J0D01*
G01*
X6008000Y2937000D02*
G75*
G03*
X6008000Y2937000I-39000J0D01*
G01*
X6008000Y2143000D02*
G75*
G03*
X6008000Y2143000I-39000J0D01*
G01*
X6262000Y2937000D02*
G75*
G03*
X6262000Y2937000I-39000J0D01*
G01*
X6262000Y2143000D02*
G75*
G03*
X6262000Y2143000I-39000J0D01*
G01*
X1651000Y3504000D02*
X1651000Y3354000D01*
X1576000Y3429000D02*
X1726000Y3429000D01*
X1651000Y3254000D02*
X1651000Y3104000D01*
X1576000Y3179000D02*
X1726000Y3179000D01*
X2286000Y3504000D02*
X2286000Y3354000D01*
X2211000Y3429000D02*
X2361000Y3429000D01*
X2286000Y3254000D02*
X2286000Y3104000D01*
X2211000Y3179000D02*
X2361000Y3179000D01*
X3302000Y4393000D02*
X3302000Y4243000D01*
X3227000Y4318000D02*
X3377000Y4318000D01*
X3302000Y4139000D02*
X3302000Y3989000D01*
X3227000Y4064000D02*
X3377000Y4064000D01*
X3302000Y3885000D02*
X3302000Y3735000D01*
X3227000Y3810000D02*
X3377000Y3810000D01*
X3302000Y3631000D02*
X3302000Y3481000D01*
X3227000Y3556000D02*
X3377000Y3556000D01*
X3302000Y3377000D02*
X3302000Y3227000D01*
X3227000Y3302000D02*
X3377000Y3302000D01*
X3302000Y3123000D02*
X3302000Y2973000D01*
X3227000Y3048000D02*
X3377000Y3048000D01*
X3302000Y2869000D02*
X3302000Y2719000D01*
X3227000Y2794000D02*
X3377000Y2794000D01*
X3302000Y2615000D02*
X3302000Y2465000D01*
X3227000Y2540000D02*
X3377000Y2540000D01*
X3302000Y2361000D02*
X3302000Y2211000D01*
X3227000Y2286000D02*
X3377000Y2286000D01*
X3302000Y2107000D02*
X3302000Y1957000D01*
X3227000Y2032000D02*
X3377000Y2032000D01*
X3556000Y4393000D02*
X3556000Y4243000D01*
X3481000Y4318000D02*
X3631000Y4318000D01*
X3556000Y4139000D02*
X3556000Y3989000D01*
X3481000Y4064000D02*
X3631000Y4064000D01*
X3556000Y3885000D02*
X3556000Y3735000D01*
X3481000Y3810000D02*
X3631000Y3810000D01*
X3556000Y3631000D02*
X3556000Y3481000D01*
X3481000Y3556000D02*
X3631000Y3556000D01*
X3556000Y3377000D02*
X3556000Y3227000D01*
X3481000Y3302000D02*
X3631000Y3302000D01*
X3556000Y3123000D02*
X3556000Y2973000D01*
X3481000Y3048000D02*
X3631000Y3048000D01*
X3556000Y2869000D02*
X3556000Y2719000D01*
X3481000Y2794000D02*
X3631000Y2794000D01*
X3556000Y2615000D02*
X3556000Y2465000D01*
X3481000Y2540000D02*
X3631000Y2540000D01*
X3556000Y2361000D02*
X3556000Y2211000D01*
X3481000Y2286000D02*
X3631000Y2286000D01*
X3556000Y2107000D02*
X3556000Y1957000D01*
X3481000Y2032000D02*
X3631000Y2032000D01*
X5080000Y5155000D02*
X5080000Y5005000D01*
X5005000Y5080000D02*
X5155000Y5080000D01*
X5080000Y4012000D02*
X5080000Y3862000D01*
X5005000Y3937000D02*
X5155000Y3937000D01*
X5080000Y1472000D02*
X5080000Y1322000D01*
X5005000Y1397000D02*
X5155000Y1397000D01*
X5080000Y1091000D02*
X5080000Y941000D01*
X5005000Y1016000D02*
X5155000Y1016000D01*
X5842000Y5155000D02*
X5842000Y5005000D01*
X5767000Y5080000D02*
X5917000Y5080000D01*
X5842000Y4012000D02*
X5842000Y3862000D01*
X5767000Y3937000D02*
X5917000Y3937000D01*
X5842000Y1472000D02*
X5842000Y1322000D01*
X5767000Y1397000D02*
X5917000Y1397000D01*
X5842000Y1091000D02*
X5842000Y941000D01*
X5767000Y1016000D02*
X5917000Y1016000D01*
X6350000Y4512000D02*
X6350000Y4362000D01*
X6275000Y4437000D02*
X6425000Y4437000D01*
X6350000Y4012000D02*
X6350000Y3862000D01*
X6275000Y3937000D02*
X6425000Y3937000D01*
X6350000Y1472000D02*
X6350000Y1322000D01*
X6275000Y1397000D02*
X6425000Y1397000D01*
X6350000Y972000D02*
X6350000Y822000D01*
X6275000Y897000D02*
X6425000Y897000D01*
D11*
X-29304571Y82465286D02*
X-29304571Y82765286D01*
X-29233143Y82765286D01*
X-29190286Y82751000D01*
X-29161714Y82722429D01*
X-29147429Y82693857D01*
X-29133143Y82636714D01*
X-29133143Y82593857D01*
X-29147429Y82536714D01*
X-29161714Y82508143D01*
X-29190286Y82479572D01*
X-29233143Y82465286D01*
X-29304571Y82465286D01*
X-29004571Y82465286D02*
X-29004571Y82665286D01*
X-29004571Y82608143D02*
X-28990286Y82636714D01*
X-28976000Y82651000D01*
X-28947429Y82665286D01*
X-28918857Y82665286D01*
X-28818857Y82465286D02*
X-28818857Y82665286D01*
X-28818857Y82765286D02*
X-28833143Y82751000D01*
X-28818857Y82736714D01*
X-28804571Y82751000D01*
X-28818857Y82765286D01*
X-28818857Y82736714D01*
X-28633143Y82465286D02*
X-28661714Y82479572D01*
X-28676000Y82508143D01*
X-28676000Y82765286D01*
X-28476000Y82465286D02*
X-28504571Y82479572D01*
X-28518857Y82508143D01*
X-28518857Y82765286D01*
X-28133143Y82465286D02*
X-28133143Y82765286D01*
X-28033143Y82551000D01*
X-27933143Y82765286D01*
X-27933143Y82465286D01*
X-27661714Y82465286D02*
X-27661714Y82622429D01*
X-27676000Y82651000D01*
X-27704571Y82665286D01*
X-27761714Y82665286D01*
X-27790286Y82651000D01*
X-27661714Y82479572D02*
X-27690286Y82465286D01*
X-27761714Y82465286D01*
X-27790286Y82479572D01*
X-27804571Y82508143D01*
X-27804571Y82536714D01*
X-27790286Y82565286D01*
X-27761714Y82579572D01*
X-27690286Y82579572D01*
X-27661714Y82593857D01*
X-27518857Y82665286D02*
X-27518857Y82365286D01*
X-27518857Y82651000D02*
X-27490286Y82665286D01*
X-27433143Y82665286D01*
X-27404571Y82651000D01*
X-27390286Y82636714D01*
X-27376000Y82608143D01*
X-27376000Y82522429D01*
X-27390286Y82493857D01*
X-27404571Y82479572D01*
X-27433143Y82465286D01*
X-27490286Y82465286D01*
X-27518857Y82479572D01*
X-27247429Y82493857D02*
X-27233143Y82479572D01*
X-27247429Y82465286D01*
X-27261714Y82479572D01*
X-27247429Y82493857D01*
X-27247429Y82465286D01*
X-27247429Y82651000D02*
X-27233143Y82636714D01*
X-27247429Y82622429D01*
X-27261714Y82636714D01*
X-27247429Y82651000D01*
X-27247429Y82622429D01*
X-29631000Y81991000D02*
X-29591000Y81951000D01*
X-29591000Y81991000D02*
X-29631000Y81951000D01*
X-29247429Y82135286D02*
X-29218857Y82135286D01*
X-29190286Y82121000D01*
X-29176000Y82106714D01*
X-29161714Y82078143D01*
X-29147429Y82021000D01*
X-29147429Y81949572D01*
X-29161714Y81892429D01*
X-29176000Y81863857D01*
X-29190286Y81849572D01*
X-29218857Y81835286D01*
X-29247429Y81835286D01*
X-29276000Y81849572D01*
X-29290286Y81863857D01*
X-29304571Y81892429D01*
X-29318857Y81949572D01*
X-29318857Y82021000D01*
X-29304571Y82078143D01*
X-29290286Y82106714D01*
X-29276000Y82121000D01*
X-29247429Y82135286D01*
X-29018857Y81863857D02*
X-29004571Y81849572D01*
X-29018857Y81835286D01*
X-29033143Y81849572D01*
X-29018857Y81863857D01*
X-29018857Y81835286D01*
X-28747429Y82035286D02*
X-28747429Y81835286D01*
X-28818857Y82149572D02*
X-28890286Y81935286D01*
X-28704571Y81935286D01*
X-28533143Y82135286D02*
X-28504571Y82135286D01*
X-28476000Y82121000D01*
X-28461714Y82106714D01*
X-28447429Y82078143D01*
X-28433143Y82021000D01*
X-28433143Y81949572D01*
X-28447429Y81892429D01*
X-28461714Y81863857D01*
X-28476000Y81849572D01*
X-28504571Y81835286D01*
X-28533143Y81835286D01*
X-28561714Y81849572D01*
X-28576000Y81863857D01*
X-28590286Y81892429D01*
X-28604571Y81949572D01*
X-28604571Y82021000D01*
X-28590286Y82078143D01*
X-28576000Y82106714D01*
X-28561714Y82121000D01*
X-28533143Y82135286D01*
X-28304571Y81835286D02*
X-28304571Y82035286D01*
X-28304571Y82006714D02*
X-28290286Y82021000D01*
X-28261714Y82035286D01*
X-28218857Y82035286D01*
X-28190286Y82021000D01*
X-28176000Y81992429D01*
X-28176000Y81835286D01*
X-28176000Y81992429D02*
X-28161714Y82021000D01*
X-28133143Y82035286D01*
X-28090286Y82035286D01*
X-28061714Y82021000D01*
X-28047429Y81992429D01*
X-28047429Y81835286D01*
X-27904571Y81835286D02*
X-27904571Y82035286D01*
X-27904571Y82006714D02*
X-27890286Y82021000D01*
X-27861714Y82035286D01*
X-27818857Y82035286D01*
X-27790286Y82021000D01*
X-27776000Y81992429D01*
X-27776000Y81835286D01*
X-27776000Y81992429D02*
X-27761714Y82021000D01*
X-27733143Y82035286D01*
X-27690286Y82035286D01*
X-27661714Y82021000D01*
X-27647429Y81992429D01*
X-27647429Y81835286D01*
X-27061714Y82149572D02*
X-27318857Y81763857D01*
X-26676000Y82135286D02*
X-26647429Y82135286D01*
X-26618857Y82121000D01*
X-26604571Y82106714D01*
X-26590286Y82078143D01*
X-26576000Y82021000D01*
X-26576000Y81949572D01*
X-26590286Y81892429D01*
X-26604571Y81863857D01*
X-26618857Y81849572D01*
X-26647429Y81835286D01*
X-26676000Y81835286D01*
X-26704571Y81849572D01*
X-26718857Y81863857D01*
X-26733143Y81892429D01*
X-26747429Y81949572D01*
X-26747429Y82021000D01*
X-26733143Y82078143D01*
X-26718857Y82106714D01*
X-26704571Y82121000D01*
X-26676000Y82135286D01*
X-26447429Y81863857D02*
X-26433143Y81849572D01*
X-26447429Y81835286D01*
X-26461714Y81849572D01*
X-26447429Y81863857D01*
X-26447429Y81835286D01*
X-26247429Y82135286D02*
X-26218857Y82135286D01*
X-26190286Y82121000D01*
X-26176000Y82106714D01*
X-26161714Y82078143D01*
X-26147429Y82021000D01*
X-26147429Y81949572D01*
X-26161714Y81892429D01*
X-26176000Y81863857D01*
X-26190286Y81849572D01*
X-26218857Y81835286D01*
X-26247429Y81835286D01*
X-26276000Y81849572D01*
X-26290286Y81863857D01*
X-26304571Y81892429D01*
X-26318857Y81949572D01*
X-26318857Y82021000D01*
X-26304571Y82078143D01*
X-26290286Y82106714D01*
X-26276000Y82121000D01*
X-26247429Y82135286D01*
X-25861714Y81835286D02*
X-26033143Y81835286D01*
X-25947429Y81835286D02*
X-25947429Y82135286D01*
X-25976000Y82092429D01*
X-26004571Y82063857D01*
X-26033143Y82049572D01*
X-25604571Y82135286D02*
X-25661714Y82135286D01*
X-25690286Y82121000D01*
X-25704571Y82106714D01*
X-25733143Y82063857D01*
X-25747429Y82006714D01*
X-25747429Y81892429D01*
X-25733143Y81863857D01*
X-25718857Y81849572D01*
X-25690286Y81835286D01*
X-25633143Y81835286D01*
X-25604571Y81849572D01*
X-25590286Y81863857D01*
X-25576000Y81892429D01*
X-25576000Y81963857D01*
X-25590286Y81992429D01*
X-25604571Y82006714D01*
X-25633143Y82021000D01*
X-25690286Y82021000D01*
X-25718857Y82006714D01*
X-25733143Y81992429D01*
X-25747429Y81963857D01*
X-25461714Y82135286D02*
X-25461714Y82078143D01*
X-25347429Y82135286D02*
X-25347429Y82078143D01*
X-24904571Y81721000D02*
X-24918857Y81735286D01*
X-24947429Y81778143D01*
X-24961714Y81806714D01*
X-24976000Y81849572D01*
X-24990286Y81921000D01*
X-24990286Y81978143D01*
X-24976000Y82049572D01*
X-24961714Y82092429D01*
X-24947429Y82121000D01*
X-24918857Y82163857D01*
X-24904571Y82178143D01*
X-24818857Y82135286D02*
X-24633143Y82135286D01*
X-24733143Y82021000D01*
X-24690286Y82021000D01*
X-24661714Y82006714D01*
X-24647429Y81992429D01*
X-24633143Y81963857D01*
X-24633143Y81892429D01*
X-24647429Y81863857D01*
X-24661714Y81849572D01*
X-24690286Y81835286D01*
X-24776000Y81835286D01*
X-24804571Y81849572D01*
X-24818857Y81863857D01*
X-24276000Y81835286D02*
X-24276000Y82135286D01*
X-24147429Y81835286D02*
X-24147429Y81992429D01*
X-24161714Y82021000D01*
X-24190286Y82035286D01*
X-24233143Y82035286D01*
X-24261714Y82021000D01*
X-24276000Y82006714D01*
X-23961714Y81835286D02*
X-23990286Y81849572D01*
X-24004571Y81863857D01*
X-24018857Y81892429D01*
X-24018857Y81978143D01*
X-24004571Y82006714D01*
X-23990286Y82021000D01*
X-23961714Y82035286D01*
X-23918857Y82035286D01*
X-23890286Y82021000D01*
X-23876000Y82006714D01*
X-23861714Y81978143D01*
X-23861714Y81892429D01*
X-23876000Y81863857D01*
X-23890286Y81849572D01*
X-23918857Y81835286D01*
X-23961714Y81835286D01*
X-23690286Y81835286D02*
X-23718857Y81849572D01*
X-23733143Y81878143D01*
X-23733143Y82135286D01*
X-23461714Y81849572D02*
X-23490286Y81835286D01*
X-23547429Y81835286D01*
X-23576000Y81849572D01*
X-23590286Y81878143D01*
X-23590286Y81992429D01*
X-23576000Y82021000D01*
X-23547429Y82035286D01*
X-23490286Y82035286D01*
X-23461714Y82021000D01*
X-23447429Y81992429D01*
X-23447429Y81963857D01*
X-23590286Y81935286D01*
X-23333143Y81849572D02*
X-23304571Y81835286D01*
X-23247429Y81835286D01*
X-23218857Y81849572D01*
X-23204571Y81878143D01*
X-23204571Y81892429D01*
X-23218857Y81921000D01*
X-23247429Y81935286D01*
X-23290286Y81935286D01*
X-23318857Y81949572D01*
X-23333143Y81978143D01*
X-23333143Y81992429D01*
X-23318857Y82021000D01*
X-23290286Y82035286D01*
X-23247429Y82035286D01*
X-23218857Y82021000D01*
X-23104571Y81721000D02*
X-23090286Y81735286D01*
X-23061714Y81778143D01*
X-23047429Y81806714D01*
X-23033143Y81849572D01*
X-23018857Y81921000D01*
X-23018857Y81978143D01*
X-23033143Y82049572D01*
X-23047429Y82092429D01*
X-23061714Y82121000D01*
X-23090286Y82163857D01*
X-23104571Y82178143D01*
X-29591000Y81575000D02*
G75*
G03*
X-29591000Y81575000I-39000J0D01*
G01*
X-29247429Y81739286D02*
X-29218857Y81739286D01*
X-29190286Y81725000D01*
X-29176000Y81710714D01*
X-29161714Y81682143D01*
X-29147429Y81625000D01*
X-29147429Y81553572D01*
X-29161714Y81496429D01*
X-29176000Y81467857D01*
X-29190286Y81453572D01*
X-29218857Y81439286D01*
X-29247429Y81439286D01*
X-29276000Y81453572D01*
X-29290286Y81467857D01*
X-29304571Y81496429D01*
X-29318857Y81553572D01*
X-29318857Y81625000D01*
X-29304571Y81682143D01*
X-29290286Y81710714D01*
X-29276000Y81725000D01*
X-29247429Y81739286D01*
X-29018857Y81467857D02*
X-29004571Y81453572D01*
X-29018857Y81439286D01*
X-29033143Y81453572D01*
X-29018857Y81467857D01*
X-29018857Y81439286D01*
X-28904571Y81739286D02*
X-28704571Y81739286D01*
X-28833143Y81439286D01*
X-28547429Y81610714D02*
X-28576000Y81625000D01*
X-28590286Y81639286D01*
X-28604571Y81667857D01*
X-28604571Y81682143D01*
X-28590286Y81710714D01*
X-28576000Y81725000D01*
X-28547429Y81739286D01*
X-28490286Y81739286D01*
X-28461714Y81725000D01*
X-28447429Y81710714D01*
X-28433143Y81682143D01*
X-28433143Y81667857D01*
X-28447429Y81639286D01*
X-28461714Y81625000D01*
X-28490286Y81610714D01*
X-28547429Y81610714D01*
X-28576000Y81596429D01*
X-28590286Y81582143D01*
X-28604571Y81553572D01*
X-28604571Y81496429D01*
X-28590286Y81467857D01*
X-28576000Y81453572D01*
X-28547429Y81439286D01*
X-28490286Y81439286D01*
X-28461714Y81453572D01*
X-28447429Y81467857D01*
X-28433143Y81496429D01*
X-28433143Y81553572D01*
X-28447429Y81582143D01*
X-28461714Y81596429D01*
X-28490286Y81610714D01*
X-28304571Y81439286D02*
X-28304571Y81639286D01*
X-28304571Y81610714D02*
X-28290286Y81625000D01*
X-28261714Y81639286D01*
X-28218857Y81639286D01*
X-28190286Y81625000D01*
X-28176000Y81596429D01*
X-28176000Y81439286D01*
X-28176000Y81596429D02*
X-28161714Y81625000D01*
X-28133143Y81639286D01*
X-28090286Y81639286D01*
X-28061714Y81625000D01*
X-28047429Y81596429D01*
X-28047429Y81439286D01*
X-27904571Y81439286D02*
X-27904571Y81639286D01*
X-27904571Y81610714D02*
X-27890286Y81625000D01*
X-27861714Y81639286D01*
X-27818857Y81639286D01*
X-27790286Y81625000D01*
X-27776000Y81596429D01*
X-27776000Y81439286D01*
X-27776000Y81596429D02*
X-27761714Y81625000D01*
X-27733143Y81639286D01*
X-27690286Y81639286D01*
X-27661714Y81625000D01*
X-27647429Y81596429D01*
X-27647429Y81439286D01*
X-27061714Y81753572D02*
X-27318857Y81367857D01*
X-26676000Y81739286D02*
X-26647429Y81739286D01*
X-26618857Y81725000D01*
X-26604571Y81710714D01*
X-26590286Y81682143D01*
X-26576000Y81625000D01*
X-26576000Y81553572D01*
X-26590286Y81496429D01*
X-26604571Y81467857D01*
X-26618857Y81453572D01*
X-26647429Y81439286D01*
X-26676000Y81439286D01*
X-26704571Y81453572D01*
X-26718857Y81467857D01*
X-26733143Y81496429D01*
X-26747429Y81553572D01*
X-26747429Y81625000D01*
X-26733143Y81682143D01*
X-26718857Y81710714D01*
X-26704571Y81725000D01*
X-26676000Y81739286D01*
X-26447429Y81467857D02*
X-26433143Y81453572D01*
X-26447429Y81439286D01*
X-26461714Y81453572D01*
X-26447429Y81467857D01*
X-26447429Y81439286D01*
X-26247429Y81739286D02*
X-26218857Y81739286D01*
X-26190286Y81725000D01*
X-26176000Y81710714D01*
X-26161714Y81682143D01*
X-26147429Y81625000D01*
X-26147429Y81553572D01*
X-26161714Y81496429D01*
X-26176000Y81467857D01*
X-26190286Y81453572D01*
X-26218857Y81439286D01*
X-26247429Y81439286D01*
X-26276000Y81453572D01*
X-26290286Y81467857D01*
X-26304571Y81496429D01*
X-26318857Y81553572D01*
X-26318857Y81625000D01*
X-26304571Y81682143D01*
X-26290286Y81710714D01*
X-26276000Y81725000D01*
X-26247429Y81739286D01*
X-26047429Y81739286D02*
X-25861714Y81739286D01*
X-25961714Y81625000D01*
X-25918857Y81625000D01*
X-25890286Y81610714D01*
X-25876000Y81596429D01*
X-25861714Y81567857D01*
X-25861714Y81496429D01*
X-25876000Y81467857D01*
X-25890286Y81453572D01*
X-25918857Y81439286D01*
X-26004571Y81439286D01*
X-26033143Y81453572D01*
X-26047429Y81467857D01*
X-25576000Y81439286D02*
X-25747429Y81439286D01*
X-25661714Y81439286D02*
X-25661714Y81739286D01*
X-25690286Y81696429D01*
X-25718857Y81667857D01*
X-25747429Y81653572D01*
X-25461714Y81739286D02*
X-25461714Y81682143D01*
X-25347429Y81739286D02*
X-25347429Y81682143D01*
X-24904571Y81325000D02*
X-24918857Y81339286D01*
X-24947429Y81382143D01*
X-24961714Y81410714D01*
X-24976000Y81453572D01*
X-24990286Y81525000D01*
X-24990286Y81582143D01*
X-24976000Y81653572D01*
X-24961714Y81696429D01*
X-24947429Y81725000D01*
X-24918857Y81767857D01*
X-24904571Y81782143D01*
X-24747429Y81610714D02*
X-24776000Y81625000D01*
X-24790286Y81639286D01*
X-24804571Y81667857D01*
X-24804571Y81682143D01*
X-24790286Y81710714D01*
X-24776000Y81725000D01*
X-24747429Y81739286D01*
X-24690286Y81739286D01*
X-24661714Y81725000D01*
X-24647429Y81710714D01*
X-24633143Y81682143D01*
X-24633143Y81667857D01*
X-24647429Y81639286D01*
X-24661714Y81625000D01*
X-24690286Y81610714D01*
X-24747429Y81610714D01*
X-24776000Y81596429D01*
X-24790286Y81582143D01*
X-24804571Y81553572D01*
X-24804571Y81496429D01*
X-24790286Y81467857D01*
X-24776000Y81453572D01*
X-24747429Y81439286D01*
X-24690286Y81439286D01*
X-24661714Y81453572D01*
X-24647429Y81467857D01*
X-24633143Y81496429D01*
X-24633143Y81553572D01*
X-24647429Y81582143D01*
X-24661714Y81596429D01*
X-24690286Y81610714D01*
X-24276000Y81439286D02*
X-24276000Y81739286D01*
X-24147429Y81439286D02*
X-24147429Y81596429D01*
X-24161714Y81625000D01*
X-24190286Y81639286D01*
X-24233143Y81639286D01*
X-24261714Y81625000D01*
X-24276000Y81610714D01*
X-23961714Y81439286D02*
X-23990286Y81453572D01*
X-24004571Y81467857D01*
X-24018857Y81496429D01*
X-24018857Y81582143D01*
X-24004571Y81610714D01*
X-23990286Y81625000D01*
X-23961714Y81639286D01*
X-23918857Y81639286D01*
X-23890286Y81625000D01*
X-23876000Y81610714D01*
X-23861714Y81582143D01*
X-23861714Y81496429D01*
X-23876000Y81467857D01*
X-23890286Y81453572D01*
X-23918857Y81439286D01*
X-23961714Y81439286D01*
X-23690286Y81439286D02*
X-23718857Y81453572D01*
X-23733143Y81482143D01*
X-23733143Y81739286D01*
X-23461714Y81453572D02*
X-23490286Y81439286D01*
X-23547429Y81439286D01*
X-23576000Y81453572D01*
X-23590286Y81482143D01*
X-23590286Y81596429D01*
X-23576000Y81625000D01*
X-23547429Y81639286D01*
X-23490286Y81639286D01*
X-23461714Y81625000D01*
X-23447429Y81596429D01*
X-23447429Y81567857D01*
X-23590286Y81539286D01*
X-23333143Y81453572D02*
X-23304571Y81439286D01*
X-23247429Y81439286D01*
X-23218857Y81453572D01*
X-23204571Y81482143D01*
X-23204571Y81496429D01*
X-23218857Y81525000D01*
X-23247429Y81539286D01*
X-23290286Y81539286D01*
X-23318857Y81553572D01*
X-23333143Y81582143D01*
X-23333143Y81596429D01*
X-23318857Y81625000D01*
X-23290286Y81639286D01*
X-23247429Y81639286D01*
X-23218857Y81625000D01*
X-23104571Y81325000D02*
X-23090286Y81339286D01*
X-23061714Y81382143D01*
X-23047429Y81410714D01*
X-23033143Y81453572D01*
X-23018857Y81525000D01*
X-23018857Y81582143D01*
X-23033143Y81653572D01*
X-23047429Y81696429D01*
X-23061714Y81725000D01*
X-23090286Y81767857D01*
X-23104571Y81782143D01*
X-29666000Y81254000D02*
X-29666000Y81104000D01*
X-29741000Y81179000D02*
X-29591000Y81179000D01*
X-29147429Y81043286D02*
X-29318857Y81043286D01*
X-29233143Y81043286D02*
X-29233143Y81343286D01*
X-29261714Y81300429D01*
X-29290286Y81271857D01*
X-29318857Y81257572D01*
X-29018857Y81071857D02*
X-29004571Y81057572D01*
X-29018857Y81043286D01*
X-29033143Y81057572D01*
X-29018857Y81071857D01*
X-29018857Y81043286D01*
X-28733143Y81343286D02*
X-28876000Y81343286D01*
X-28890286Y81200429D01*
X-28876000Y81214714D01*
X-28847429Y81229000D01*
X-28776000Y81229000D01*
X-28747429Y81214714D01*
X-28733143Y81200429D01*
X-28718857Y81171857D01*
X-28718857Y81100429D01*
X-28733143Y81071857D01*
X-28747429Y81057572D01*
X-28776000Y81043286D01*
X-28847429Y81043286D01*
X-28876000Y81057572D01*
X-28890286Y81071857D01*
X-28533143Y81343286D02*
X-28504571Y81343286D01*
X-28476000Y81329000D01*
X-28461714Y81314714D01*
X-28447429Y81286143D01*
X-28433143Y81229000D01*
X-28433143Y81157572D01*
X-28447429Y81100429D01*
X-28461714Y81071857D01*
X-28476000Y81057572D01*
X-28504571Y81043286D01*
X-28533143Y81043286D01*
X-28561714Y81057572D01*
X-28576000Y81071857D01*
X-28590286Y81100429D01*
X-28604571Y81157572D01*
X-28604571Y81229000D01*
X-28590286Y81286143D01*
X-28576000Y81314714D01*
X-28561714Y81329000D01*
X-28533143Y81343286D01*
X-28304571Y81043286D02*
X-28304571Y81243286D01*
X-28304571Y81214714D02*
X-28290286Y81229000D01*
X-28261714Y81243286D01*
X-28218857Y81243286D01*
X-28190286Y81229000D01*
X-28176000Y81200429D01*
X-28176000Y81043286D01*
X-28176000Y81200429D02*
X-28161714Y81229000D01*
X-28133143Y81243286D01*
X-28090286Y81243286D01*
X-28061714Y81229000D01*
X-28047429Y81200429D01*
X-28047429Y81043286D01*
X-27904571Y81043286D02*
X-27904571Y81243286D01*
X-27904571Y81214714D02*
X-27890286Y81229000D01*
X-27861714Y81243286D01*
X-27818857Y81243286D01*
X-27790286Y81229000D01*
X-27776000Y81200429D01*
X-27776000Y81043286D01*
X-27776000Y81200429D02*
X-27761714Y81229000D01*
X-27733143Y81243286D01*
X-27690286Y81243286D01*
X-27661714Y81229000D01*
X-27647429Y81200429D01*
X-27647429Y81043286D01*
X-27061714Y81357572D02*
X-27318857Y80971857D01*
X-26676000Y81343286D02*
X-26647429Y81343286D01*
X-26618857Y81329000D01*
X-26604571Y81314714D01*
X-26590286Y81286143D01*
X-26576000Y81229000D01*
X-26576000Y81157572D01*
X-26590286Y81100429D01*
X-26604571Y81071857D01*
X-26618857Y81057572D01*
X-26647429Y81043286D01*
X-26676000Y81043286D01*
X-26704571Y81057572D01*
X-26718857Y81071857D01*
X-26733143Y81100429D01*
X-26747429Y81157572D01*
X-26747429Y81229000D01*
X-26733143Y81286143D01*
X-26718857Y81314714D01*
X-26704571Y81329000D01*
X-26676000Y81343286D01*
X-26447429Y81071857D02*
X-26433143Y81057572D01*
X-26447429Y81043286D01*
X-26461714Y81057572D01*
X-26447429Y81071857D01*
X-26447429Y81043286D01*
X-26247429Y81343286D02*
X-26218857Y81343286D01*
X-26190286Y81329000D01*
X-26176000Y81314714D01*
X-26161714Y81286143D01*
X-26147429Y81229000D01*
X-26147429Y81157572D01*
X-26161714Y81100429D01*
X-26176000Y81071857D01*
X-26190286Y81057572D01*
X-26218857Y81043286D01*
X-26247429Y81043286D01*
X-26276000Y81057572D01*
X-26290286Y81071857D01*
X-26304571Y81100429D01*
X-26318857Y81157572D01*
X-26318857Y81229000D01*
X-26304571Y81286143D01*
X-26290286Y81314714D01*
X-26276000Y81329000D01*
X-26247429Y81343286D01*
X-25876000Y81343286D02*
X-26018857Y81343286D01*
X-26033143Y81200429D01*
X-26018857Y81214714D01*
X-25990286Y81229000D01*
X-25918857Y81229000D01*
X-25890286Y81214714D01*
X-25876000Y81200429D01*
X-25861714Y81171857D01*
X-25861714Y81100429D01*
X-25876000Y81071857D01*
X-25890286Y81057572D01*
X-25918857Y81043286D01*
X-25990286Y81043286D01*
X-26018857Y81057572D01*
X-26033143Y81071857D01*
X-25718857Y81043286D02*
X-25661714Y81043286D01*
X-25633143Y81057572D01*
X-25618857Y81071857D01*
X-25590286Y81114714D01*
X-25576000Y81171857D01*
X-25576000Y81286143D01*
X-25590286Y81314714D01*
X-25604571Y81329000D01*
X-25633143Y81343286D01*
X-25690286Y81343286D01*
X-25718857Y81329000D01*
X-25733143Y81314714D01*
X-25747429Y81286143D01*
X-25747429Y81214714D01*
X-25733143Y81186143D01*
X-25718857Y81171857D01*
X-25690286Y81157572D01*
X-25633143Y81157572D01*
X-25604571Y81171857D01*
X-25590286Y81186143D01*
X-25576000Y81214714D01*
X-25461714Y81343286D02*
X-25461714Y81286143D01*
X-25347429Y81343286D02*
X-25347429Y81286143D01*
X-24904571Y80929000D02*
X-24918857Y80943286D01*
X-24947429Y80986143D01*
X-24961714Y81014714D01*
X-24976000Y81057572D01*
X-24990286Y81129000D01*
X-24990286Y81186143D01*
X-24976000Y81257572D01*
X-24961714Y81300429D01*
X-24947429Y81329000D01*
X-24918857Y81371857D01*
X-24904571Y81386143D01*
X-24818857Y81343286D02*
X-24633143Y81343286D01*
X-24733143Y81229000D01*
X-24690286Y81229000D01*
X-24661714Y81214714D01*
X-24647429Y81200429D01*
X-24633143Y81171857D01*
X-24633143Y81100429D01*
X-24647429Y81071857D01*
X-24661714Y81057572D01*
X-24690286Y81043286D01*
X-24776000Y81043286D01*
X-24804571Y81057572D01*
X-24818857Y81071857D01*
X-24376000Y81343286D02*
X-24433143Y81343286D01*
X-24461714Y81329000D01*
X-24476000Y81314714D01*
X-24504571Y81271857D01*
X-24518857Y81214714D01*
X-24518857Y81100429D01*
X-24504571Y81071857D01*
X-24490286Y81057572D01*
X-24461714Y81043286D01*
X-24404571Y81043286D01*
X-24376000Y81057572D01*
X-24361714Y81071857D01*
X-24347429Y81100429D01*
X-24347429Y81171857D01*
X-24361714Y81200429D01*
X-24376000Y81214714D01*
X-24404571Y81229000D01*
X-24461714Y81229000D01*
X-24490286Y81214714D01*
X-24504571Y81200429D01*
X-24518857Y81171857D01*
X-23990286Y81043286D02*
X-23990286Y81343286D01*
X-23861714Y81043286D02*
X-23861714Y81200429D01*
X-23876000Y81229000D01*
X-23904571Y81243286D01*
X-23947429Y81243286D01*
X-23976000Y81229000D01*
X-23990286Y81214714D01*
X-23676000Y81043286D02*
X-23704571Y81057572D01*
X-23718857Y81071857D01*
X-23733143Y81100429D01*
X-23733143Y81186143D01*
X-23718857Y81214714D01*
X-23704571Y81229000D01*
X-23676000Y81243286D01*
X-23633143Y81243286D01*
X-23604571Y81229000D01*
X-23590286Y81214714D01*
X-23576000Y81186143D01*
X-23576000Y81100429D01*
X-23590286Y81071857D01*
X-23604571Y81057572D01*
X-23633143Y81043286D01*
X-23676000Y81043286D01*
X-23404571Y81043286D02*
X-23433143Y81057572D01*
X-23447429Y81086143D01*
X-23447429Y81343286D01*
X-23176000Y81057572D02*
X-23204571Y81043286D01*
X-23261714Y81043286D01*
X-23290286Y81057572D01*
X-23304571Y81086143D01*
X-23304571Y81200429D01*
X-23290286Y81229000D01*
X-23261714Y81243286D01*
X-23204571Y81243286D01*
X-23176000Y81229000D01*
X-23161714Y81200429D01*
X-23161714Y81171857D01*
X-23304571Y81143286D01*
X-23047429Y81057572D02*
X-23018857Y81043286D01*
X-22961714Y81043286D01*
X-22933143Y81057572D01*
X-22918857Y81086143D01*
X-22918857Y81100429D01*
X-22933143Y81129000D01*
X-22961714Y81143286D01*
X-23004571Y81143286D01*
X-23033143Y81157572D01*
X-23047429Y81186143D01*
X-23047429Y81200429D01*
X-23033143Y81229000D01*
X-23004571Y81243286D01*
X-22961714Y81243286D01*
X-22933143Y81229000D01*
X-22818857Y80929000D02*
X-22804571Y80943286D01*
X-22776000Y80986143D01*
X-22761714Y81014714D01*
X-22747429Y81057572D01*
X-22733143Y81129000D01*
X-22733143Y81186143D01*
X-22747429Y81257572D01*
X-22761714Y81300429D01*
X-22776000Y81329000D01*
X-22804571Y81371857D01*
X-22818857Y81386143D01*
M02*
