M48
; DRILL file {KiCad (5.1.9)-1} date 04/30/21 18:22:10
; FORMAT={-:-/ absolute / metric / decimal}
; #@! TF.CreationDate,2021-04-30T18:22:10-07:00
; #@! TF.GenerationSoftware,Kicad,Pcbnew,(5.1.9)-1
; #@! TF.FileFunction,Plated,1,2,PTH
FMAT,2
METRIC
T1C0.780
T2C1.500
%
G90
G05
T1
X54.61Y29.37
X54.61Y21.43
X57.15Y29.37
X57.15Y21.43
X59.69Y29.37
X59.69Y21.43
X62.23Y29.37
X62.23Y21.43
T2
X16.51Y34.29
X16.51Y31.79
X22.86Y34.29
X22.86Y31.79
X33.02Y43.18
X33.02Y40.64
X33.02Y38.1
X33.02Y35.56
X33.02Y33.02
X33.02Y30.48
X33.02Y27.94
X33.02Y25.4
X33.02Y22.86
X33.02Y20.32
X35.56Y43.18
X35.56Y40.64
X35.56Y38.1
X35.56Y35.56
X35.56Y33.02
X35.56Y30.48
X35.56Y27.94
X35.56Y25.4
X35.56Y22.86
X35.56Y20.32
X39.505Y21.463
X41.42Y35.4
X50.8Y50.8
X50.8Y39.37
X50.8Y13.97
X50.8Y10.16
X51.384Y30.909
X58.42Y50.8
X58.42Y39.37
X58.42Y13.97
X58.42Y10.16
X63.5Y44.37
X63.5Y39.37
X63.5Y13.97
X63.5Y8.97
T0
M30
