M48
; DRILL file {KiCad 5.1.5+dfsg1-2build2} date Sat 15 May 2021 03:30:23 PM PDT
; FORMAT={-:-/ absolute / inch / decimal}
; #@! TF.CreationDate,2021-05-15T15:30:23-07:00
; #@! TF.GenerationSoftware,Kicad,Pcbnew,5.1.5+dfsg1-2build2
FMAT,2
INCH
T1C0.0315
T2C0.0472
T3C0.0512
%
G90
G05
T1
X26.15Y25.525
X26.15Y25.225
X26.25Y25.525
X26.25Y25.225
X26.35Y25.525
X26.35Y25.225
X26.45Y25.525
X26.45Y25.225
T2
X26.3969Y25.725
X26.3969Y25.925
T3
X25.6464Y25.938
X25.5Y25.925
X25.8Y25.925
X25.5Y25.425
X25.8Y25.425
X26.2Y25.725
X25.5Y25.225
X25.8Y25.225
X25.5Y25.725
X25.8Y25.725
X26.2Y25.925
X26.75Y25.225
X26.8484Y25.225
X26.7516Y25.925
X26.85Y25.925
T0
M30
