M48
; DRILL file {KiCad (5.1.9-0-10_14)} date Saturday, May 08, 2021 at 09:43:37 AM
; FORMAT={-:-/ absolute / inch / decimal}
; #@! TF.CreationDate,2021-05-08T09:43:37-07:00
; #@! TF.GenerationSoftware,Kicad,Pcbnew,(5.1.9-0-10_14)
FMAT,2
INCH
T1C0.0394
T2C0.0512
%
G90
G05
T1
X0.45Y2.85
X0.475Y2.25
X0.5Y1.7
X0.525Y3.55
X0.525Y3.45
X0.55Y2.85
X0.575Y2.25
X0.575Y1.2
X0.575Y1.1
X0.6Y1.7
X0.625Y3.55
X0.625Y3.45
X0.65Y2.85
X0.675Y2.25
X0.675Y1.2
X0.675Y1.1
X0.7Y1.7
X0.725Y3.55
X0.725Y3.45
X0.775Y1.2
X0.775Y1.1
X0.825Y3.55
X0.825Y3.45
X0.875Y1.2
X0.875Y1.1
X0.925Y3.55
X0.925Y3.45
X0.975Y1.2
X0.975Y1.1
X1.025Y3.55
X1.025Y3.45
X1.075Y1.2
X1.075Y1.1
X1.125Y3.55
X1.125Y3.45
X1.175Y1.2
X1.175Y1.1
X1.225Y3.55
X1.225Y3.45
X1.275Y1.2
X1.275Y1.1
X1.325Y3.55
X1.325Y3.45
X1.325Y2.85
X1.325Y2.25
X1.375Y1.2
X1.375Y1.1
X1.425Y3.55
X1.425Y3.45
X1.425Y2.85
X1.425Y2.25
X1.475Y1.2
X1.475Y1.1
X1.525Y2.85
X1.525Y2.25
X2.075Y1.25
X2.075Y1.15
X2.075Y1.05
X2.1Y2.85
X2.1Y2.25
X2.1Y1.7
X2.2Y3.55
X2.2Y3.45
X2.2Y2.85
X2.2Y2.25
X2.2Y1.7
X2.3Y3.55
X2.3Y3.45
X2.3Y2.85
X2.3Y2.25
X2.3Y1.7
X2.4Y3.55
X2.4Y3.45
X2.5Y3.55
X2.5Y3.45
X2.6Y3.55
X2.6Y3.45
X2.7Y3.55
X2.7Y3.45
X2.725Y1.2
X2.725Y1.1
X2.8Y3.55
X2.8Y3.45
X2.825Y1.2
X2.825Y1.1
X2.9Y3.55
X2.9Y3.45
X2.925Y1.2
X2.925Y1.1
X3.0Y3.55
X3.0Y3.45
X3.0Y2.85
X3.0Y2.25
X3.025Y1.2
X3.025Y1.1
X3.1Y3.55
X3.1Y3.45
X3.1Y2.85
X3.1Y2.25
X3.125Y1.2
X3.125Y1.1
X3.2Y2.85
X3.2Y2.25
X3.225Y1.2
X3.225Y1.1
X3.325Y1.2
X3.325Y1.1
X3.425Y1.2
X3.425Y1.1
X3.525Y1.2
X3.525Y1.1
X3.625Y1.2
X3.625Y1.1
X3.775Y2.85
X3.775Y2.25
X3.775Y1.7
X3.875Y3.55
X3.875Y3.45
X3.875Y2.85
X3.875Y2.25
X3.875Y1.7
X3.975Y3.55
X3.975Y3.45
X3.975Y2.85
X3.975Y2.25
X3.975Y1.7
X4.075Y3.55
X4.075Y3.45
X4.175Y3.55
X4.175Y3.45
X4.225Y1.25
X4.225Y1.15
X4.225Y1.05
X4.275Y3.55
X4.275Y3.45
X4.375Y3.55
X4.375Y3.45
X4.475Y3.55
X4.475Y3.45
X4.575Y3.55
X4.575Y3.45
X4.675Y3.55
X4.675Y3.45
X4.675Y2.85
X4.7Y2.25
X4.775Y3.55
X4.775Y3.45
X4.775Y2.85
X4.8Y2.25
X4.875Y2.85
X4.875Y1.2
X4.875Y1.1
X4.9Y2.25
X4.975Y1.2
X4.975Y1.1
X5.075Y1.2
X5.075Y1.1
X5.175Y1.2
X5.175Y1.1
X5.275Y1.2
X5.275Y1.1
X5.375Y1.2
X5.375Y1.1
X5.475Y2.85
X5.475Y2.25
X5.475Y1.7
X5.475Y1.2
X5.475Y1.1
X5.575Y3.55
X5.575Y3.45
X5.575Y2.85
X5.575Y2.25
X5.575Y1.7
X5.575Y1.2
X5.575Y1.1
X5.675Y3.55
X5.675Y3.45
X5.675Y2.85
X5.675Y2.25
X5.675Y1.7
X5.675Y1.2
X5.675Y1.1
X5.775Y3.55
X5.775Y3.45
X5.775Y1.2
X5.775Y1.1
X5.875Y3.55
X5.875Y3.45
X5.975Y3.55
X5.975Y3.45
X6.075Y3.55
X6.075Y3.45
X6.175Y3.55
X6.175Y3.45
X6.275Y3.55
X6.275Y3.45
X6.375Y3.55
X6.375Y3.45
X6.375Y2.85
X6.375Y2.25
X6.375Y1.7
X6.45Y1.25
X6.45Y1.15
X6.45Y1.05
X6.475Y3.55
X6.475Y3.45
X6.475Y2.85
X6.475Y2.25
X6.475Y1.7
X6.575Y2.85
X6.575Y2.25
X6.575Y1.7
T2
X0.6057Y2.5406
X1.6813Y2.0164
X1.7649Y0.9494
X1.8315Y2.2158
X1.9362Y0.8914
X2.4893Y0.9568
X2.627Y0.9592
X3.1438Y0.5817
X3.2944Y0.7889
X3.3765Y0.7123
X3.8245Y0.8847
X4.443Y0.9826
X4.5357Y2.0094
X4.5795Y0.963
X4.5838Y0.5547
X4.7285Y1.0002
T0
M30
