<?xml version="1.0" standalone="no"?>
<!DOCTYPE svg PUBLIC "-//W3C//DTD SVG 1.1//EN"
"http://www.w3.org/Graphics/SVG/1.1/DTD/svg11.dtd">
<svg width="221.537" height="130.337" viewBox="0 0 4615.35 2715.35" version="1.1"
xmlns="http://www.w3.org/2000/svg"
xmlns:xlink="http://www.w3.org/1999/xlink">
<polyline points="4194.14,1678.58 4193.4,1678.58 4192.05,1678.56 4190.93,1678.59 4189.77,1678.58 4189.63,1678.57 4188.54,1678.55 4187.42,1678.59 4186.41,1678.58 4186.21,1678.57 4185.21,1678.56 4184.1,1678.59 4183.06,1678.58 4182.89,1678.57 4181.79,1678.56 4180.68,1678.59 4180.08,1678.6 4179.38,1678.59 4178.05,1678.64 4177.02,1678.73" style="stroke:rgb(255,0,0);stroke-width:15.748031;fill:none;stroke-opacity:0.5;stroke-linecap:round;stroke-linejoin:round;;fill:none"/>
<polyline points="4194.14,1678.58 4193.4,1678.58 4192.05,1678.56 4190.93,1678.59 4189.77,1678.58 4189.63,1678.57 4188.54,1678.55 4187.42,1678.59 4186.41,1678.58 4186.21,1678.57 4185.21,1678.56 4184.1,1678.59 4183.06,1678.58 4182.89,1678.57 4181.79,1678.56 4180.68,1678.59 4180.08,1678.6 4179.38,1678.59 4178.05,1678.64 4177.02,1678.73" style="stroke:rgb(0,0,0);stroke-width:1px;fill:none;stroke-opacity:1;stroke-linecap:round;stroke-linejoin:round;;fill:none"/>
<polyline points="4194.14,1678.58 4193.4,1678.58 4192.05,1678.56 4190.93,1678.59 4189.77,1678.58 4189.63,1678.57 4188.54,1678.55 4187.42,1678.59 4186.41,1678.58 4186.21,1678.57 4185.21,1678.56 4184.1,1678.59 4183.06,1678.58 4182.89,1678.57 4181.79,1678.56 4180.68,1678.59 4180.08,1678.6 4179.38,1678.59 4178.05,1678.64 4177.02,1678.73" style="stroke:rgb(255,0,0);stroke-width:15.748031;fill:none;stroke-opacity:0.5;stroke-linecap:round;stroke-linejoin:round;;fill:none"/>
<polyline points="4194.14,1678.58 4193.4,1678.58 4192.05,1678.56 4190.93,1678.59 4189.77,1678.58 4189.63,1678.57 4188.54,1678.55 4187.42,1678.59 4186.41,1678.58 4186.21,1678.57 4185.21,1678.56 4184.1,1678.59 4183.06,1678.58 4182.89,1678.57 4181.79,1678.56 4180.68,1678.59 4180.08,1678.6 4179.38,1678.59 4178.05,1678.64 4177.02,1678.73" style="stroke:rgb(0,0,0);stroke-width:1px;fill:none;stroke-opacity:1;stroke-linecap:round;stroke-linejoin:round;;fill:none"/>
<polyline points="4177.04,1678.73 4178.05,1678.64 4179.38,1678.59 4180.08,1678.6 4180.68,1678.59 4181.79,1678.56 4182.89,1678.57 4183.06,1678.58 4184.1,1678.59 4185.21,1678.56 4186.21,1678.57 4186.41,1678.58 4187.42,1678.59 4188.54,1678.55 4189.63,1678.57 4189.77,1678.58 4190.93,1678.59 4192.05,1678.56 4193.4,1678.58 4194.12,1678.58" style="stroke:rgb(255,0,0);stroke-width:15.748031;fill:none;stroke-opacity:0.5;stroke-linecap:round;stroke-linejoin:round;;fill:none"/>
<polyline points="4177.04,1678.73 4178.05,1678.64 4179.38,1678.59 4180.08,1678.6 4180.68,1678.59 4181.79,1678.56 4182.89,1678.57 4183.06,1678.58 4184.1,1678.59 4185.21,1678.56 4186.21,1678.57 4186.41,1678.58 4187.42,1678.59 4188.54,1678.55 4189.63,1678.57 4189.77,1678.58 4190.93,1678.59 4192.05,1678.56 4193.4,1678.58 4194.12,1678.58" style="stroke:rgb(0,0,0);stroke-width:1px;fill:none;stroke-opacity:1;stroke-linecap:round;stroke-linejoin:round;;fill:none"/>
<polyline points="4177.04,1678.73 4178.05,1678.64 4179.38,1678.59 4180.08,1678.6 4180.68,1678.59 4181.79,1678.56 4182.89,1678.57 4183.06,1678.58 4184.1,1678.59 4185.21,1678.56 4186.21,1678.57 4186.41,1678.58 4187.42,1678.59 4188.54,1678.55 4189.63,1678.57 4189.77,1678.58 4190.93,1678.59 4192.05,1678.56 4193.4,1678.58 4194.12,1678.58" style="stroke:rgb(255,0,0);stroke-width:15.748031;fill:none;stroke-opacity:0.5;stroke-linecap:round;stroke-linejoin:round;;fill:none"/>
<polyline points="4177.04,1678.73 4178.05,1678.64 4179.38,1678.59 4180.08,1678.6 4180.68,1678.59 4181.79,1678.56 4182.89,1678.57 4183.06,1678.58 4184.1,1678.59 4185.21,1678.56 4186.21,1678.57 4186.41,1678.58 4187.42,1678.59 4188.54,1678.55 4189.63,1678.57 4189.77,1678.58 4190.93,1678.59 4192.05,1678.56 4193.4,1678.58 4194.12,1678.58" style="stroke:rgb(0,0,0);stroke-width:1px;fill:none;stroke-opacity:1;stroke-linecap:round;stroke-linejoin:round;;fill:none"/>
</svg>
