<?xml version="1.0" standalone="no"?>
<!DOCTYPE svg PUBLIC "-//W3C//DTD SVG 1.1//EN"
"http://www.w3.org/Graphics/SVG/1.1/DTD/svg11.dtd">
<svg width="221.537" height="130.337" viewBox="0 0 4615.35 2715.35" version="1.1"
xmlns="http://www.w3.org/2000/svg"
xmlns:xlink="http://www.w3.org/1999/xlink">
<circle cx="1032.68" cy="1682.68" r="31.5" style=""/>
<circle cx="1032.68" cy="2082.68" r="31.5" style=""/>
<circle cx="1632.68" cy="1682.68" r="31.5" style=""/>
<circle cx="1632.68" cy="1082.68" r="31.5" style=""/>
<circle cx="1032.68" cy="1082.68" r="31.5" style=""/>
<circle cx="1032.68" cy="682.677" r="31.5" style=""/>
<circle cx="1325.48" cy="656.677" r="31.5" style=""/>
<circle cx="1632.68" cy="682.677" r="31.5" style=""/>
<circle cx="2432.68" cy="682.677" r="31.5" style=""/>
<circle cx="2826.48" cy="682.677" r="31.5" style=""/>
<circle cx="2432.68" cy="1082.68" r="31.5" style=""/>
<circle cx="2826.48" cy="1082.68" r="31.5" style=""/>
<circle cx="2932.68" cy="1482.68" r="31.5" style=""/>
<circle cx="2732.68" cy="1482.68" r="31.5" style=""/>
<circle cx="2532.68" cy="1482.68" r="31.5" style=""/>
<circle cx="2332.68" cy="1482.68" r="31.5" style=""/>
<circle cx="1632.68" cy="2082.68" r="31.5" style=""/>
<circle cx="2332.68" cy="2082.68" r="31.5" style=""/>
<circle cx="2532.68" cy="2082.68" r="31.5" style=""/>
<circle cx="2732.68" cy="2082.68" r="31.5" style=""/>
<circle cx="2932.68" cy="2082.68" r="31.5" style=""/>
<circle cx="3532.68" cy="2082.68" r="31.5" style=""/>
<circle cx="3729.48" cy="2082.68" r="31.5" style=""/>
<circle cx="3535.88" cy="682.677" r="31.5" style=""/>
<circle cx="3732.68" cy="682.677" r="31.5" style=""/>
</svg>
