<?xml version="1.0" standalone="no"?>
<!DOCTYPE svg PUBLIC "-//W3C//DTD SVG 1.1//EN"
"http://www.w3.org/Graphics/SVG/1.1/DTD/svg11.dtd">
<svg width="221.537" height="130.337" viewBox="0 0 4615.35 2715.35" version="1.1"
xmlns="http://www.w3.org/2000/svg"
xmlns:xlink="http://www.w3.org/1999/xlink">
<g fill-rule="evenodd"><path d="M 75.1952,2296.64 L 75.1952,2208.08 L 75.2712,2206.54 L 75.4972,2205.02 L 75.8732,2203.52 L 76.3932,2202.07 L 77.0512,2200.67 L 77.8452,2199.35 L 78.7632,2198.11 L 79.7992,2196.97 L 80.9432,2195.93 L 82.1832,2195.01 L 83.5052,2194.22 L 84.8992,2193.56 L 86.3532,2193.04 L 87.8492,2192.67 L 89.3752,2192.44 L 90.9152,2192.36 L 203.15,2192.36 L 203.15,2112.36 L 90.9152,2112.36 L 89.3752,2112.29 L 87.8492,2112.06 L 86.3532,2111.69 L 84.8992,2111.17 L 83.5052,2110.51 L 82.1832,2109.71 L 80.9432,2108.8 L 79.7992,2107.76 L 78.7632,2106.62 L 77.8452,2105.38 L 77.0512,2104.05 L 76.3932,2102.66 L 75.8732,2101.21 L 75.4972,2099.71 L 75.2712,2098.18 L 75.1952,2096.64 L 75.1952,2008.08 L 75.2712,2006.54 L 75.4972,2005.02 L 75.8732,2003.52 L 76.3932,2002.07 L 77.0512,2000.67 L 77.8452,1999.35 L 78.7632,1998.11 L 79.7992,1996.97 L 80.9432,1995.93 L 82.1832,1995.01 L 83.5052,1994.22 L 84.8992,1993.56 L 86.3532,1993.04 L 87.8492,1992.67 L 89.3752,1992.44 L 90.9152,1992.36 L 374.437,1992.36 L 375.977,1992.44 L 377.503,1992.67 L 378.999,1993.04 L 380.453,1993.56 L 381.847,1994.22 L 383.169,1995.01 L 384.409,1995.93 L 385.553,1996.97 L 386.589,1998.11 L 387.507,1999.35 L 388.301,2000.67 L 388.959,2002.07 L 389.479,2003.52 L 389.855,2005.02 L 390.081,2006.54 L 390.157,2008.08 L 390.157,2096.64 L 390.081,2098.18 L 389.855,2099.71 L 389.479,2101.21 L 388.959,2102.66 L 388.301,2104.05 L 387.507,2105.38 L 386.589,2106.62 L 385.553,2107.76 L 384.409,2108.8 L 383.169,2109.71 L 381.847,2110.51 L 380.453,2111.17 L 378.999,2111.69 L 377.503,2112.06 L 375.977,2112.29 L 374.437,2112.36 L 262.205,2112.36 L 262.205,2192.36 L 374.437,2192.36 L 375.977,2192.44 L 377.503,2192.67 L 378.999,2193.04 L 380.453,2193.56 L 381.847,2194.22 L 383.169,2195.01 L 384.409,2195.93 L 385.553,2196.97 L 386.589,2198.11 L 387.507,2199.35 L 388.301,2200.67 L 388.959,2202.07 L 389.479,2203.52 L 389.855,2205.02 L 390.081,2206.54 L 390.157,2208.08 L 390.157,2222.84 L 1950.76,2222.84 L 2233.84,1939.75 L 2238.32,1936.08 L 2243.42,1933.35 L 2248.96,1931.67 L 2254.72,1931.1 L 2720.45,1931.1 L 3011.57,1639.97 L 3011.57,1378.53 L 2883.04,1250 L 2826.38,1250 L 2820.62,1249.43 L 2815.08,1247.75 L 2809.97,1245.02 L 2805.5,1241.35 L 2801.83,1236.88 L 2799.1,1231.77 L 2797.42,1226.23 L 2796.85,1220.47 L 2796.85,1155.42 L 2794.35,1154.61 L 2780.1,1146.38 L 2767.86,1135.36 L 2758.19,1122.05 L 2751.49,1107.01 L 2748.07,1090.91 L 2748.07,1074.45 L 2751.49,1058.35 L 2758.19,1043.31 L 2767.86,1029.99 L 2780.1,1018.98 L 2794.35,1010.74 L 2810.01,1005.66 L 2826.38,1003.94 L 2983.86,1003.94 L 3000.23,1005.66 L 3015.88,1010.74 L 3030.14,1018.98 L 3042.37,1029.99 L 3052.05,1043.31 L 3058.74,1058.35 L 3062.17,1074.45 L 3062.17,1090.91 L 3058.74,1107.01 L 3052.05,1122.05 L 3042.37,1135.36 L 3030.14,1146.38 L 3015.88,1154.61 L 3000.23,1159.7 L 2983.86,1161.42 L 2855.9,1161.42 L 2855.9,1190.95 L 2895.28,1190.95 L 2899.89,1191.31 L 2904.4,1192.39 L 2908.68,1194.16 L 2912.63,1196.58 L 2916.15,1199.59 L 3061.98,1345.42 L 3065.65,1349.9 L 3068.38,1355 L 3070.06,1360.54 L 3070.63,1366.3 L 3070.63,1652.21 L 3070.06,1657.97 L 3068.38,1663.5 L 3065.65,1668.61 L 3061.98,1673.08 L 2762.2,1972.86 L 2762.2,2027.25 L 2764.17,2028.12 L 2774.83,2035.86 L 2783.64,2045.65 L 2790.22,2057.06 L 2794.29,2069.58 L 2795.67,2082.68 L 2794.29,2095.77 L 2790.22,2108.3 L 2783.64,2119.7 L 2774.83,2129.49 L 2764.17,2137.23 L 2752.14,2142.59 L 2739.26,2145.32 L 2726.09,2145.32 L 2713.21,2142.59 L 2701.18,2137.23 L 2690.53,2129.49 L 2681.72,2119.7 L 2675.13,2108.3 L 2671.06,2095.77 L 2669.69,2082.68 L 2671.06,2069.58 L 2675.13,2057.06 L 2681.72,2045.65 L 2690.53,2035.86 L 2701.18,2028.12 L 2703.15,2027.25 L 2703.15,1990.16 L 2266.95,1990.16 L 1983.87,2273.24 L 1979.4,2276.91 L 1974.29,2279.64 L 1968.75,2281.32 L 1962.99,2281.89 L 390.157,2281.89 L 390.157,2296.64 L 390.081,2298.18 L 389.855,2299.71 L 389.479,2301.21 L 388.959,2302.66 L 388.301,2304.05 L 387.507,2305.38 L 386.589,2306.62 L 385.553,2307.76 L 384.409,2308.8 L 383.169,2309.71 L 381.847,2310.51 L 380.453,2311.17 L 378.999,2311.69 L 377.503,2312.06 L 375.977,2312.29 L 374.437,2312.36 L 90.9152,2312.36 L 89.3752,2312.29 L 87.8492,2312.06 L 86.3532,2311.69 L 84.8992,2311.17 L 83.5052,2310.51 L 82.1832,2309.71 L 80.9432,2308.8 L 79.7992,2307.76 L 78.7632,2306.62 L 77.8452,2305.38 L 77.0512,2304.05 L 76.3932,2302.66 L 75.8732,2301.21 L 75.4972,2299.71 L 75.2712,2298.18 L 75.1952,2296.64 z " style="fill-opacity:1.000000;fill:rgb(103,198,105);stroke:rgb(0,0,0);stroke-width:2"/></g>
<g fill-rule="evenodd"><path d="M 75.1952,1896.64 L 75.1952,1808.08 L 75.2712,1806.54 L 75.4972,1805.02 L 75.8732,1803.52 L 76.3932,1802.07 L 77.0512,1800.67 L 77.8452,1799.35 L 78.7632,1798.11 L 79.7992,1796.97 L 80.9432,1795.93 L 82.1832,1795.01 L 83.5052,1794.22 L 84.8992,1793.56 L 86.3532,1793.04 L 87.8492,1792.67 L 89.3752,1792.44 L 90.9152,1792.36 L 374.437,1792.36 L 375.977,1792.44 L 377.503,1792.67 L 378.999,1793.04 L 380.453,1793.56 L 381.847,1794.22 L 383.169,1795.01 L 384.409,1795.93 L 385.553,1796.97 L 386.589,1798.11 L 387.507,1799.35 L 388.301,1800.67 L 388.959,1802.07 L 389.479,1803.52 L 389.855,1805.02 L 390.081,1806.54 L 390.157,1808.08 L 390.157,1822.84 L 507.085,1822.84 L 512.846,1823.4 L 518.385,1825.08 L 523.49,1827.81 L 527.964,1831.48 L 749.632,2053.15 L 802.624,2053.15 L 807.006,2043.31 L 816.682,2029.99 L 828.915,2018.98 L 843.17,2010.74 L 858.826,2005.66 L 875.197,2003.94 L 1032.68,2003.94 L 1049.05,2005.66 L 1064.7,2010.74 L 1078.96,2018.98 L 1091.19,2029.99 L 1100.87,2043.31 L 1107.56,2058.35 L 1110.99,2074.45 L 1110.99,2090.91 L 1107.56,2107.01 L 1100.87,2122.05 L 1091.19,2135.36 L 1078.96,2146.38 L 1064.7,2154.61 L 1049.05,2159.7 L 1032.68,2161.42 L 875.197,2161.42 L 858.826,2159.7 L 843.17,2154.61 L 828.915,2146.38 L 816.682,2135.36 L 807.006,2122.05 L 802.624,2112.2 L 737.401,2112.2 L 731.641,2111.64 L 726.102,2109.96 L 720.997,2107.23 L 716.522,2103.56 L 494.855,1881.89 L 390.157,1881.89 L 390.157,1896.64 L 390.081,1898.18 L 389.855,1899.71 L 389.479,1901.21 L 388.959,1902.66 L 388.301,1904.05 L 387.507,1905.38 L 386.589,1906.62 L 385.553,1907.76 L 384.409,1908.8 L 383.169,1909.71 L 381.847,1910.51 L 380.453,1911.17 L 378.999,1911.69 L 377.503,1912.06 L 375.977,1912.29 L 374.437,1912.36 L 90.9152,1912.36 L 89.3752,1912.29 L 87.8492,1912.06 L 86.3532,1911.69 L 84.8992,1911.17 L 83.5052,1910.51 L 82.1832,1909.71 L 80.9432,1908.8 L 79.7992,1907.76 L 78.7632,1906.62 L 77.8452,1905.38 L 77.0512,1904.05 L 76.3932,1902.66 L 75.8732,1901.21 L 75.4972,1899.71 L 75.2712,1898.18 L 75.1952,1896.64 z " style="fill-opacity:1.000000;fill:rgb(115,81,255);stroke:rgb(0,0,0);stroke-width:2"/></g>
<g fill-rule="evenodd"><path d="M 75.1952,1696.64 L 75.1952,1608.08 L 75.2712,1606.54 L 75.4972,1605.02 L 75.8732,1603.52 L 76.3932,1602.07 L 77.0512,1600.67 L 77.8452,1599.35 L 78.7632,1598.11 L 79.7992,1596.97 L 80.9432,1595.93 L 82.1832,1595.01 L 83.5052,1594.22 L 84.8992,1593.56 L 86.3532,1593.04 L 87.8492,1592.67 L 89.3752,1592.44 L 90.9152,1592.36 L 250.919,1592.36 L 306.286,1537 L 310.761,1533.32 L 315.865,1530.6 L 321.405,1528.91 L 327.165,1528.35 L 2223.62,1528.35 L 2229.38,1528.91 L 2234.92,1530.6 L 2240.03,1533.32 L 2244.5,1537 L 2310.42,1602.91 L 2370.68,1602.91 L 2472.72,1500.88 L 2471.06,1495.77 L 2469.69,1482.68 L 2471.06,1469.58 L 2475.13,1457.06 L 2481.72,1445.65 L 2490.53,1435.86 L 2501.18,1428.12 L 2513.21,1422.77 L 2526.09,1420.03 L 2539.26,1420.03 L 2552.14,1422.77 L 2564.17,1428.12 L 2574.83,1435.86 L 2583.64,1445.65 L 2590.22,1457.06 L 2594.29,1469.58 L 2595.67,1482.68 L 2594.29,1495.77 L 2590.22,1508.3 L 2583.64,1519.7 L 2574.83,1529.49 L 2564.17,1537.23 L 2552.14,1542.59 L 2539.26,1545.32 L 2526.09,1545.32 L 2514.3,1542.82 L 2403.79,1653.32 L 2399.32,1656.99 L 2394.21,1659.72 L 2388.67,1661.4 L 2382.91,1661.97 L 2298.19,1661.97 L 2292.43,1661.4 L 2286.89,1659.72 L 2281.78,1656.99 L 2277.31,1653.32 L 2211.39,1587.4 L 339.396,1587.4 L 334.436,1592.36 L 374.437,1592.36 L 375.977,1592.44 L 377.503,1592.67 L 378.999,1593.04 L 380.453,1593.56 L 381.847,1594.22 L 383.169,1595.01 L 384.409,1595.93 L 385.553,1596.97 L 386.589,1598.11 L 387.507,1599.35 L 388.301,1600.67 L 388.959,1602.07 L 389.479,1603.52 L 389.855,1605.02 L 390.081,1606.54 L 390.157,1608.08 L 390.157,1696.64 L 390.081,1698.18 L 389.855,1699.71 L 389.479,1701.21 L 388.959,1702.66 L 388.301,1704.05 L 387.507,1705.38 L 386.589,1706.62 L 385.553,1707.76 L 384.409,1708.8 L 383.169,1709.71 L 381.847,1710.51 L 380.453,1711.17 L 378.999,1711.69 L 377.503,1712.06 L 375.977,1712.29 L 374.437,1712.36 L 90.9152,1712.36 L 89.3752,1712.29 L 87.8492,1712.06 L 86.3532,1711.69 L 84.8992,1711.17 L 83.5052,1710.51 L 82.1832,1709.71 L 80.9432,1708.8 L 79.7992,1707.76 L 78.7632,1706.62 L 77.8452,1705.38 L 77.0512,1704.05 L 76.3932,1702.66 L 75.8732,1701.21 L 75.4972,1699.71 L 75.2712,1698.18 L 75.1952,1696.64 z " style="fill-opacity:1.000000;fill:rgb(74,236,41);stroke:rgb(0,0,0);stroke-width:2"/></g>
<g fill-rule="evenodd"><path d="M 75.1952,1496.64 L 75.1952,1408.08 L 75.2712,1406.54 L 75.4972,1405.02 L 75.8732,1403.52 L 76.3932,1402.07 L 77.0512,1400.67 L 77.8452,1399.35 L 78.7632,1398.11 L 79.7992,1396.97 L 80.9432,1395.93 L 82.1832,1395.01 L 83.5052,1394.22 L 84.8992,1393.56 L 86.3532,1393.04 L 87.8492,1392.67 L 89.3752,1392.44 L 90.9152,1392.36 L 203.15,1392.36 L 203.15,1312.36 L 90.9152,1312.36 L 89.3752,1312.29 L 87.8492,1312.06 L 86.3532,1311.69 L 84.8992,1311.17 L 83.5052,1310.51 L 82.1832,1309.71 L 80.9432,1308.8 L 79.7992,1307.76 L 78.7632,1306.62 L 77.8452,1305.38 L 77.0512,1304.05 L 76.3932,1302.66 L 75.8732,1301.21 L 75.4972,1299.71 L 75.2712,1298.18 L 75.1952,1296.64 L 75.1952,1208.08 L 75.2712,1206.54 L 75.4972,1205.02 L 75.8732,1203.52 L 76.3932,1202.07 L 77.0512,1200.67 L 77.8452,1199.35 L 78.7632,1198.11 L 79.7992,1196.97 L 80.9432,1195.93 L 82.1832,1195.01 L 83.5052,1194.22 L 84.8992,1193.56 L 86.3532,1193.04 L 87.8492,1192.67 L 89.3752,1192.44 L 90.9152,1192.36 L 374.437,1192.36 L 375.977,1192.44 L 377.503,1192.67 L 378.999,1193.04 L 380.453,1193.56 L 381.847,1194.22 L 383.169,1195.01 L 384.409,1195.93 L 385.553,1196.97 L 386.589,1198.11 L 387.507,1199.35 L 388.301,1200.67 L 388.959,1202.07 L 389.479,1203.52 L 389.855,1205.02 L 390.081,1206.54 L 390.157,1208.08 L 390.157,1222.84 L 1868.95,1222.84 L 1893.23,1198.56 L 1893.23,1046.72 L 1728.4,881.891 L 390.157,881.891 L 390.157,896.643 L 390.081,898.183 L 389.855,899.709 L 389.479,901.207 L 388.959,902.659 L 388.301,904.053 L 387.507,905.377 L 386.589,906.615 L 385.553,907.759 L 384.409,908.795 L 383.169,909.713 L 381.847,910.507 L 380.453,911.167 L 378.999,911.687 L 377.503,912.061 L 375.977,912.287 L 374.437,912.363 L 90.9152,912.363 L 89.3752,912.287 L 87.8492,912.061 L 86.3532,911.687 L 84.8992,911.167 L 83.5052,910.507 L 82.1832,909.713 L 80.9432,908.795 L 79.7992,907.759 L 78.7632,906.615 L 77.8452,905.377 L 77.0512,904.053 L 76.3932,902.659 L 75.8732,901.207 L 75.4972,899.709 L 75.2712,898.183 L 75.1952,896.643 L 75.1952,808.083 L 75.2712,806.543 L 75.4972,805.017 L 75.8732,803.519 L 76.3932,802.067 L 77.0512,800.673 L 77.8452,799.349 L 78.7632,798.111 L 79.7992,796.967 L 80.9432,795.931 L 82.1832,795.013 L 83.5052,794.219 L 84.8992,793.559 L 86.3532,793.039 L 87.8492,792.665 L 89.3752,792.439 L 90.9152,792.363 L 374.437,792.363 L 375.977,792.439 L 377.503,792.665 L 378.999,793.039 L 380.453,793.559 L 381.847,794.219 L 383.169,795.013 L 384.409,795.931 L 385.553,796.967 L 386.589,798.111 L 387.507,799.349 L 388.301,800.673 L 388.959,802.067 L 389.479,803.519 L 389.855,805.017 L 390.081,806.543 L 390.157,808.083 L 390.157,822.835 L 1470.08,822.836 L 1470.08,598.374 L 1353.59,481.891 L 390.157,481.891 L 390.157,512.362 L 75.1969,512.362 L 75.1969,392.362 L 390.157,392.362 L 390.157,422.836 L 1365.83,422.836 L 1371.59,423.403 L 1377.12,425.083 L 1382.23,427.812 L 1386.7,431.484 L 1520.48,565.264 L 1524.16,569.739 L 1526.89,574.843 L 1528.57,580.383 L 1529.13,586.143 L 1529.13,822.836 L 1740.63,822.836 L 1746.39,823.403 L 1751.93,825.083 L 1757.03,827.812 L 1761.51,831.484 L 1943.63,1013.61 L 1947.31,1018.08 L 1950.04,1023.19 L 1951.72,1028.73 L 1952.28,1034.49 L 1952.28,1181.26 L 2631.26,1181.26 L 2631.26,986.063 L 2631.83,980.303 L 2633.51,974.763 L 2636.24,969.659 L 2639.91,965.184 L 2796.85,808.242 L 2796.85,755.422 L 2794.35,754.61 L 2780.1,746.379 L 2767.86,735.365 L 2758.19,722.047 L 2751.49,707.009 L 2748.07,690.908 L 2748.07,674.447 L 2751.49,658.345 L 2758.19,643.307 L 2767.86,629.99 L 2780.1,618.975 L 2794.35,610.744 L 2810.01,605.658 L 2826.38,603.937 L 2983.86,603.937 L 3000.23,605.658 L 3015.88,610.744 L 3030.14,618.975 L 3042.37,629.99 L 3052.05,643.307 L 3058.74,658.345 L 3062.17,674.447 L 3062.17,690.908 L 3058.74,707.009 L 3052.05,722.047 L 3042.37,735.365 L 3030.14,746.379 L 3015.88,754.61 L 3000.23,759.697 L 2983.86,761.417 L 2855.9,761.417 L 2855.9,820.473 L 2855.34,826.234 L 2853.66,831.773 L 2850.93,836.878 L 2847.26,841.352 L 2690.31,998.294 L 2690.31,1198.56 L 2911.44,1419.69 L 2995.67,1419.69 L 2995.67,1545.67 L 2869.69,1545.67 L 2869.69,1461.44 L 2648.56,1240.32 L 1934.99,1240.32 L 1902.06,1273.24 L 1897.58,1276.91 L 1892.48,1279.64 L 1886.94,1281.32 L 1881.18,1281.89 L 390.157,1281.89 L 390.157,1296.64 L 390.081,1298.18 L 389.855,1299.71 L 389.479,1301.21 L 388.959,1302.66 L 388.301,1304.05 L 387.507,1305.38 L 386.589,1306.62 L 385.553,1307.76 L 384.409,1308.8 L 383.169,1309.71 L 381.847,1310.51 L 380.453,1311.17 L 378.999,1311.69 L 377.503,1312.06 L 375.977,1312.29 L 374.437,1312.36 L 262.205,1312.36 L 262.205,1392.36 L 374.437,1392.36 L 375.977,1392.44 L 377.503,1392.67 L 378.999,1393.04 L 380.453,1393.56 L 381.847,1394.22 L 383.169,1395.01 L 384.409,1395.93 L 385.553,1396.97 L 386.589,1398.11 L 387.507,1399.35 L 388.301,1400.67 L 388.959,1402.07 L 389.479,1403.52 L 389.855,1405.02 L 390.081,1406.54 L 390.157,1408.08 L 390.157,1496.64 L 390.081,1498.18 L 389.855,1499.71 L 389.479,1501.21 L 388.959,1502.66 L 388.301,1504.05 L 387.507,1505.38 L 386.589,1506.62 L 385.553,1507.76 L 384.409,1508.8 L 383.169,1509.71 L 381.847,1510.51 L 380.453,1511.17 L 378.999,1511.69 L 377.503,1512.06 L 375.977,1512.29 L 374.437,1512.36 L 90.9152,1512.36 L 89.3752,1512.29 L 87.8492,1512.06 L 86.3532,1511.69 L 84.8992,1511.17 L 83.5052,1510.51 L 82.1832,1509.71 L 80.9432,1508.8 L 79.7992,1507.76 L 78.7632,1506.62 L 77.8452,1505.38 L 77.0512,1504.05 L 76.3932,1502.66 L 75.8732,1501.21 L 75.4972,1499.71 L 75.2712,1498.18 L 75.1952,1496.64 z " style="fill-opacity:1.000000;fill:rgb(205,186,171);stroke:rgb(0,0,0);stroke-width:2"/></g>
<g fill-rule="evenodd"><path d="M 75.1952,1096.64 L 75.1952,1008.08 L 75.2712,1006.54 L 75.4972,1005.02 L 75.8732,1003.52 L 76.3932,1002.07 L 77.0512,1000.67 L 77.8452,999.349 L 78.7632,998.111 L 79.7992,996.967 L 80.9432,995.931 L 82.1832,995.013 L 83.5052,994.219 L 84.8992,993.559 L 86.3532,993.039 L 87.8492,992.665 L 89.3752,992.439 L 90.9152,992.363 L 250.919,992.363 L 305.656,937.626 L 310.131,933.954 L 315.235,931.225 L 320.775,929.545 L 326.535,928.978 L 1370.71,928.978 L 1376.47,929.545 L 1382.01,931.225 L 1387.11,933.954 L 1391.59,937.626 L 1507.11,1053.15 L 1560.1,1053.15 L 1564.49,1043.31 L 1574.16,1029.99 L 1586.39,1018.98 L 1600.65,1010.74 L 1616.31,1005.66 L 1632.68,1003.94 L 1790.16,1003.94 L 1806.53,1005.66 L 1822.18,1010.74 L 1836.44,1018.98 L 1848.67,1029.99 L 1858.35,1043.31 L 1865.04,1058.35 L 1868.47,1074.45 L 1868.47,1090.91 L 1865.04,1107.01 L 1858.35,1122.05 L 1848.67,1135.36 L 1836.44,1146.38 L 1822.18,1154.61 L 1806.53,1159.7 L 1790.16,1161.42 L 1632.68,1161.42 L 1616.31,1159.7 L 1600.65,1154.61 L 1586.39,1146.38 L 1574.16,1135.36 L 1564.49,1122.05 L 1560.1,1112.2 L 1494.88,1112.2 L 1489.12,1111.64 L 1483.58,1109.96 L 1478.48,1107.23 L 1474,1103.56 L 1358.48,988.033 L 338.766,988.033 L 334.435,992.363 L 374.437,992.363 L 375.977,992.439 L 377.503,992.665 L 378.999,993.039 L 380.453,993.559 L 381.847,994.219 L 383.169,995.013 L 384.409,995.931 L 385.553,996.967 L 386.589,998.111 L 387.507,999.349 L 388.301,1000.67 L 388.959,1002.07 L 389.479,1003.52 L 389.855,1005.02 L 390.081,1006.54 L 390.157,1008.08 L 390.157,1096.64 L 390.081,1098.18 L 389.855,1099.71 L 389.479,1101.21 L 388.959,1102.66 L 388.301,1104.05 L 387.507,1105.38 L 386.589,1106.62 L 385.553,1107.76 L 384.409,1108.8 L 383.169,1109.71 L 381.847,1110.51 L 380.453,1111.17 L 378.999,1111.69 L 377.503,1112.06 L 375.977,1112.29 L 374.437,1112.36 L 90.9152,1112.36 L 89.3752,1112.29 L 87.8492,1112.06 L 86.3532,1111.69 L 84.8992,1111.17 L 83.5052,1110.51 L 82.1832,1109.71 L 80.9432,1108.8 L 79.7992,1107.76 L 78.7632,1106.62 L 77.8452,1105.38 L 77.0512,1104.05 L 76.3932,1102.66 L 75.8732,1101.21 L 75.4972,1099.71 L 75.2712,1098.18 L 75.1952,1096.64 z " style="fill-opacity:1.000000;fill:rgb(242,251,227);stroke:rgb(0,0,0);stroke-width:2"/></g>
<g fill-rule="evenodd"><path d="M 75.1952,696.643 L 75.1952,608.083 L 75.2712,606.543 L 75.4972,605.017 L 75.8732,603.519 L 76.3932,602.067 L 77.0512,600.673 L 77.8452,599.349 L 78.7632,598.111 L 79.7992,596.967 L 80.9432,595.931 L 82.1832,595.013 L 83.5052,594.219 L 84.8992,593.559 L 86.3532,593.039 L 87.8492,592.665 L 89.3752,592.439 L 90.9152,592.363 L 250.919,592.363 L 306.364,536.918 L 310.839,533.246 L 315.943,530.517 L 321.483,528.837 L 327.243,528.27 L 1226.61,528.27 L 1232.37,528.837 L 1237.91,530.517 L 1243.02,533.246 L 1247.49,536.918 L 1265.6,555.028 L 1266.46,554.406 L 1289.01,544.363 L 1313.17,539.23 L 1337.86,539.23 L 1362.01,544.363 L 1384.57,554.406 L 1404.54,568.92 L 1421.06,587.269 L 1433.41,608.653 L 1441.04,632.136 L 1443.62,656.693 L 1441.04,681.249 L 1433.41,704.733 L 1421.06,726.116 L 1404.54,744.466 L 1384.57,758.979 L 1362.01,769.022 L 1337.86,774.156 L 1313.17,774.156 L 1289.01,769.022 L 1266.46,758.979 L 1246.48,744.466 L 1229.96,726.116 L 1217.61,704.733 L 1209.98,681.249 L 1207.4,656.693 L 1209.98,632.136 L 1217.61,608.653 L 1224.24,597.179 L 1214.38,587.325 L 339.474,587.325 L 334.435,592.363 L 374.437,592.363 L 375.977,592.439 L 377.503,592.665 L 378.999,593.039 L 380.453,593.559 L 381.847,594.219 L 383.169,595.013 L 384.409,595.931 L 385.553,596.967 L 386.589,598.111 L 387.507,599.349 L 388.301,600.673 L 388.959,602.067 L 389.479,603.519 L 389.855,605.017 L 390.081,606.543 L 390.157,608.083 L 390.157,696.643 L 390.081,698.183 L 389.855,699.709 L 389.479,701.207 L 388.959,702.659 L 388.301,704.053 L 387.507,705.377 L 386.589,706.615 L 385.553,707.759 L 384.409,708.795 L 383.169,709.713 L 381.847,710.507 L 380.453,711.167 L 378.999,711.687 L 377.503,712.061 L 375.977,712.287 L 374.437,712.363 L 90.9152,712.363 L 89.3752,712.287 L 87.8492,712.061 L 86.3532,711.687 L 84.8992,711.167 L 83.5052,710.507 L 82.1832,709.713 L 80.9432,708.795 L 79.7992,707.759 L 78.7632,706.615 L 77.8452,705.377 L 77.0512,704.053 L 76.3932,702.659 L 75.8732,701.207 L 75.4972,699.709 L 75.2712,698.183 L 75.1952,696.643 z " style="fill-opacity:1.000000;fill:rgb(70,124,194);stroke:rgb(0,0,0);stroke-width:2"/></g>
<g fill-rule="evenodd"><path d="M 796.888,1690.91 L 796.888,1674.45 L 800.311,1658.35 L 807.006,1643.31 L 816.682,1629.99 L 828.915,1618.98 L 843.17,1610.74 L 858.826,1605.66 L 875.197,1603.94 L 1032.68,1603.94 L 1049.05,1605.66 L 1064.7,1610.74 L 1078.96,1618.98 L 1091.19,1629.99 L 1100.87,1643.31 L 1107.56,1658.35 L 1110.99,1674.45 L 1110.99,1690.91 L 1107.56,1707.01 L 1100.87,1722.05 L 1091.19,1735.36 L 1078.96,1746.38 L 1064.7,1754.61 L 1049.05,1759.7 L 1032.68,1761.42 L 1032.68,1761.42 L 875.197,1761.42 L 858.826,1759.7 L 843.17,1754.61 L 828.915,1746.38 L 816.682,1735.36 L 807.006,1722.05 L 800.311,1707.01 L 796.888,1690.91 z " style="fill-opacity:1.000000;fill:rgb(84,248,27);stroke:rgb(0,0,0);stroke-width:2"/></g>
<g fill-rule="evenodd"><path d="M 796.888,1090.91 L 796.888,1074.45 L 800.311,1058.35 L 807.006,1043.31 L 816.682,1029.99 L 828.915,1018.98 L 843.17,1010.74 L 858.826,1005.66 L 875.197,1003.94 L 1032.68,1003.94 L 1049.05,1005.66 L 1064.7,1010.74 L 1078.96,1018.98 L 1091.19,1029.99 L 1100.87,1043.31 L 1107.56,1058.35 L 1110.99,1074.45 L 1110.99,1090.91 L 1107.56,1107.01 L 1100.87,1122.05 L 1091.19,1135.36 L 1078.96,1146.38 L 1064.7,1154.61 L 1049.05,1159.7 L 1032.68,1161.42 L 1032.68,1161.42 L 875.197,1161.42 L 858.826,1159.7 L 843.17,1154.61 L 828.915,1146.38 L 816.682,1135.36 L 807.006,1122.05 L 800.311,1107.01 L 796.888,1090.91 z " style="fill-opacity:1.000000;fill:rgb(232,231,141);stroke:rgb(0,0,0);stroke-width:2"/></g>
<g fill-rule="evenodd"><path d="M 796.888,690.908 L 796.888,674.447 L 800.311,658.345 L 807.006,643.307 L 816.682,629.99 L 828.915,618.975 L 843.17,610.744 L 858.826,605.658 L 875.197,603.937 L 1032.68,603.937 L 1049.05,605.658 L 1064.7,610.744 L 1078.96,618.975 L 1091.19,629.99 L 1100.87,643.307 L 1107.56,658.345 L 1110.99,674.447 L 1110.99,690.908 L 1107.56,707.009 L 1100.87,722.047 L 1091.19,735.365 L 1078.96,746.379 L 1064.7,754.61 L 1049.05,759.697 L 1032.68,761.417 L 1032.68,761.417 L 875.197,761.417 L 858.826,759.697 L 843.17,754.61 L 828.915,746.379 L 816.682,735.365 L 807.006,722.047 L 800.311,707.009 L 796.888,690.908 z " style="fill-opacity:1.000000;fill:rgb(118,90,46);stroke:rgb(0,0,0);stroke-width:2"/></g>
<g fill-rule="evenodd"><path d="M 1554.37,2090.91 L 1554.37,2074.45 L 1557.79,2058.35 L 1564.49,2043.31 L 1574.16,2029.99 L 1586.39,2018.98 L 1600.65,2010.74 L 1616.31,2005.66 L 1632.68,2003.94 L 1790.16,2003.94 L 1806.53,2005.66 L 1822.18,2010.74 L 1836.44,2018.98 L 1848.67,2029.99 L 1858.35,2043.31 L 1862.73,2053.15 L 1915.72,2053.15 L 2194.71,1774.16 L 2199.18,1770.49 L 2204.29,1767.76 L 2209.83,1766.08 L 2215.59,1765.51 L 2408.08,1765.51 L 2672.72,1500.88 L 2671.06,1495.77 L 2669.69,1482.68 L 2671.06,1469.58 L 2675.13,1457.06 L 2681.72,1445.65 L 2690.53,1435.86 L 2701.18,1428.12 L 2713.21,1422.77 L 2726.09,1420.03 L 2739.26,1420.03 L 2752.14,1422.77 L 2764.17,1428.12 L 2774.83,1435.86 L 2783.64,1445.65 L 2790.22,1457.06 L 2794.29,1469.58 L 2795.67,1482.68 L 2794.29,1495.77 L 2790.22,1508.3 L 2783.64,1519.7 L 2774.83,1529.49 L 2764.17,1537.23 L 2752.14,1542.59 L 2739.26,1545.32 L 2726.09,1545.32 L 2714.3,1542.82 L 2441.19,1815.92 L 2436.72,1819.59 L 2431.61,1822.32 L 2426.07,1824 L 2420.31,1824.57 L 2227.82,1824.57 L 1948.83,2103.56 L 1944.36,2107.23 L 1939.25,2109.96 L 1933.71,2111.64 L 1927.95,2112.2 L 1862.73,2112.2 L 1858.35,2122.05 L 1848.67,2135.36 L 1836.44,2146.38 L 1822.18,2154.61 L 1806.53,2159.7 L 1790.16,2161.42 L 1632.68,2161.42 L 1616.31,2159.7 L 1600.65,2154.61 L 1586.39,2146.38 L 1574.16,2135.36 L 1564.49,2122.05 L 1557.79,2107.01 L 1554.37,2090.91 z " style="fill-opacity:1.000000;fill:rgb(99,51,159);stroke:rgb(0,0,0);stroke-width:2"/></g>
<g fill-rule="evenodd"><path d="M 1554.37,1690.91 L 1554.37,1674.45 L 1557.79,1658.35 L 1564.49,1643.31 L 1574.16,1629.99 L 1586.39,1618.98 L 1600.65,1610.74 L 1616.31,1605.66 L 1632.68,1603.94 L 1790.16,1603.94 L 1806.53,1605.66 L 1822.18,1610.74 L 1836.44,1618.98 L 1848.67,1629.99 L 1858.35,1643.31 L 1865.04,1658.35 L 1868.47,1674.45 L 1868.47,1690.91 L 1865.04,1707.01 L 1858.35,1722.05 L 1848.67,1735.36 L 1836.44,1746.38 L 1822.18,1754.61 L 1806.53,1759.7 L 1790.16,1761.42 L 1790.16,1761.42 L 1632.68,1761.42 L 1616.31,1759.7 L 1600.65,1754.61 L 1586.39,1746.38 L 1574.16,1735.36 L 1564.49,1722.05 L 1557.79,1707.01 L 1554.37,1690.91 z " style="fill-opacity:1.000000;fill:rgb(201,154,102);stroke:rgb(0,0,0);stroke-width:2"/></g>
<g fill-rule="evenodd"><path d="M 1554.37,690.908 L 1554.37,674.447 L 1557.79,658.345 L 1564.49,643.307 L 1574.16,629.99 L 1586.39,618.975 L 1600.65,610.744 L 1616.31,605.658 L 1632.68,603.937 L 1790.16,603.937 L 1806.53,605.658 L 1822.18,610.744 L 1836.44,618.975 L 1848.67,629.99 L 1858.35,643.307 L 1862.73,653.15 L 1927.95,653.15 L 1933.71,653.717 L 1939.25,655.397 L 1944.36,658.126 L 1948.83,661.798 L 2202.39,915.356 L 2432.68,915.356 L 2438.44,915.923 L 2443.98,917.603 L 2449.08,920.332 L 2453.56,924.004 L 2457.23,928.479 L 2459.96,933.583 L 2461.64,939.123 L 2462.2,944.883 L 2462.2,1009.93 L 2464.7,1010.74 L 2478.96,1018.98 L 2491.19,1029.99 L 2500.87,1043.31 L 2507.56,1058.35 L 2510.99,1074.45 L 2510.99,1090.91 L 2507.56,1107.01 L 2500.87,1122.05 L 2491.19,1135.36 L 2478.96,1146.38 L 2464.7,1154.61 L 2449.05,1159.7 L 2432.68,1161.42 L 2275.2,1161.42 L 2258.83,1159.7 L 2243.17,1154.61 L 2228.91,1146.38 L 2216.68,1135.36 L 2207.01,1122.05 L 2200.31,1107.01 L 2196.89,1090.91 L 2196.89,1074.45 L 2200.31,1058.35 L 2207.01,1043.31 L 2216.68,1029.99 L 2228.91,1018.98 L 2243.17,1010.74 L 2258.83,1005.66 L 2275.2,1003.94 L 2403.15,1003.94 L 2403.15,974.411 L 2190.16,974.411 L 2184.4,973.843 L 2178.86,972.163 L 2173.75,969.434 L 2169.28,965.762 L 1915.72,712.205 L 1862.73,712.205 L 1858.35,722.047 L 1848.67,735.365 L 1836.44,746.379 L 1822.18,754.61 L 1806.53,759.697 L 1790.16,761.417 L 1632.68,761.417 L 1616.31,759.697 L 1600.65,754.61 L 1586.39,746.379 L 1574.16,735.365 L 1564.49,722.047 L 1557.79,707.009 L 1554.37,690.908 z " style="fill-opacity:1.000000;fill:rgb(50,13,183);stroke:rgb(0,0,0);stroke-width:2"/></g>
<g fill-rule="evenodd"><path d="M 2196.89,690.908 L 2196.89,674.447 L 2200.31,658.345 L 2207.01,643.307 L 2216.68,629.99 L 2228.91,618.975 L 2243.17,610.744 L 2258.83,605.658 L 2275.2,603.937 L 2432.68,603.937 L 2449.05,605.658 L 2464.7,610.744 L 2478.96,618.975 L 2491.19,629.99 L 2500.87,643.307 L 2507.56,658.345 L 2510.99,674.447 L 2510.99,690.908 L 2507.56,707.009 L 2500.87,722.047 L 2491.19,735.365 L 2478.96,746.379 L 2464.7,754.61 L 2449.05,759.697 L 2432.68,761.417 L 2432.68,761.417 L 2275.2,761.417 L 2258.83,759.697 L 2243.17,754.61 L 2228.91,746.379 L 2216.68,735.365 L 2207.01,722.047 L 2200.31,707.009 L 2196.89,690.908 z " style="fill-opacity:1.000000;fill:rgb(49,88,163);stroke:rgb(0,0,0);stroke-width:2"/></g>
<g fill-rule="evenodd"><path d="M 2269.69,2082.68 L 2271.06,2069.58 L 2275.13,2057.06 L 2281.72,2045.65 L 2290.53,2035.86 L 2301.18,2028.12 L 2313.21,2022.77 L 2326.09,2020.03 L 2339.26,2020.03 L 2352.14,2022.77 L 2364.17,2028.12 L 2374.83,2035.86 L 2383.64,2045.65 L 2390.22,2057.06 L 2394.29,2069.58 L 2395.67,2082.68 L 2394.29,2095.77 L 2392.63,2100.88 L 2482.7,2190.95 L 3700,2190.95 L 3700,2155.42 L 3697.5,2154.61 L 3683.25,2146.38 L 3671.01,2135.36 L 3661.34,2122.05 L 3654.64,2107.01 L 3651.22,2090.91 L 3651.22,2074.45 L 3654.64,2058.35 L 3661.34,2043.31 L 3671.01,2029.99 L 3683.25,2018.98 L 3697.5,2010.74 L 3713.16,2005.66 L 3729.53,2003.94 L 3887.01,2003.94 L 3903.38,2005.66 L 3919.03,2010.74 L 3933.29,2018.98 L 3945.52,2029.99 L 3955.2,2043.31 L 3961.89,2058.35 L 3965.32,2074.45 L 3965.32,2090.91 L 3961.89,2107.01 L 3955.2,2122.05 L 3945.52,2135.36 L 3933.29,2146.38 L 3919.03,2154.61 L 3903.38,2159.7 L 3887.01,2161.42 L 3759.05,2161.42 L 3759.05,2220.47 L 3758.49,2226.23 L 3756.81,2231.77 L 3754.08,2236.88 L 3750.41,2241.35 L 3745.93,2245.02 L 3740.83,2247.75 L 3735.29,2249.43 L 3729.53,2250 L 2470.47,2250 L 2465.85,2249.64 L 2461.35,2248.56 L 2457.07,2246.78 L 2453.12,2244.36 L 2449.59,2241.35 L 2351.06,2142.82 L 2339.26,2145.32 L 2326.09,2145.32 L 2313.21,2142.59 L 2301.18,2137.23 L 2290.53,2129.49 L 2281.72,2119.7 L 2275.13,2108.3 L 2271.06,2095.77 L 2269.69,2082.68 z " style="fill-opacity:1.000000;fill:rgb(90,37,93);stroke:rgb(0,0,0);stroke-width:2"/></g>
<g fill-rule="evenodd"><path d="M 2269.69,1482.68 L 2271.06,1469.58 L 2275.13,1457.06 L 2281.72,1445.65 L 2290.53,1435.86 L 2301.18,1428.12 L 2313.21,1422.77 L 2326.09,1420.03 L 2339.26,1420.03 L 2352.14,1422.77 L 2364.17,1428.12 L 2374.83,1435.86 L 2383.64,1445.65 L 2390.22,1457.06 L 2394.29,1469.58 L 2395.67,1482.68 L 2394.29,1495.77 L 2390.22,1508.3 L 2383.64,1519.7 L 2374.83,1529.49 L 2364.17,1537.23 L 2352.14,1542.59 L 2339.26,1545.32 L 2326.09,1545.32 L 2313.21,1542.59 L 2301.18,1537.23 L 2290.53,1529.49 L 2281.72,1519.7 L 2275.13,1508.3 L 2271.06,1495.77 L 2269.69,1482.68 z " style="fill-opacity:1.000000;fill:rgb(5,23,88);stroke:rgb(0,0,0);stroke-width:2"/></g>
<g fill-rule="evenodd"><path d="M 2469.69,2082.68 L 2471.06,2069.58 L 2475.13,2057.06 L 2481.72,2045.65 L 2490.53,2035.86 L 2501.18,2028.12 L 2513.21,2022.77 L 2526.09,2020.03 L 2539.26,2020.03 L 2552.14,2022.77 L 2564.17,2028.12 L 2574.83,2035.86 L 2583.64,2045.65 L 2590.22,2057.06 L 2594.29,2069.58 L 2595.67,2082.68 L 2594.29,2095.77 L 2590.22,2108.3 L 2583.64,2119.7 L 2574.83,2129.49 L 2564.17,2137.23 L 2552.14,2142.59 L 2539.26,2145.32 L 2526.09,2145.32 L 2513.21,2142.59 L 2501.18,2137.23 L 2490.53,2129.49 L 2481.72,2119.7 L 2475.13,2108.3 L 2471.06,2095.77 L 2469.69,2082.68 z " style="fill-opacity:1.000000;fill:rgb(233,94,212);stroke:rgb(0,0,0);stroke-width:2"/></g>
<g fill-rule="evenodd"><path d="M 2869.69,2082.68 L 2871.06,2069.58 L 2875.13,2057.06 L 2881.72,2045.65 L 2890.53,2035.86 L 2901.18,2028.12 L 2913.21,2022.77 L 2926.09,2020.03 L 2939.26,2020.03 L 2952.14,2022.77 L 2964.17,2028.12 L 2974.83,2035.86 L 2983.64,2045.65 L 2987.97,2053.15 L 3296.46,2053.15 L 3296.46,2003.94 L 3611.42,2003.94 L 3611.42,2161.42 L 3296.46,2161.42 L 3296.46,2112.2 L 2987.97,2112.2 L 2983.64,2119.7 L 2974.83,2129.49 L 2964.17,2137.23 L 2952.14,2142.59 L 2939.26,2145.32 L 2926.09,2145.32 L 2913.21,2142.59 L 2901.18,2137.23 L 2890.53,2129.49 L 2881.72,2119.7 L 2875.13,2108.3 L 2871.06,2095.77 L 2869.69,2082.68 z " style="fill-opacity:1.000000;fill:rgb(171,178,205);stroke:rgb(0,0,0);stroke-width:2"/></g>
<g fill-rule="evenodd"><path d="M 3300.04,690.908 L 3300.04,674.447 L 3303.46,658.345 L 3310.16,643.307 L 3319.83,629.99 L 3332.06,618.975 L 3346.32,610.744 L 3361.98,605.658 L 3378.35,603.937 L 3535.83,603.937 L 3552.2,605.658 L 3567.85,610.744 L 3582.11,618.975 L 3594.34,629.99 L 3604.02,643.307 L 3610.71,658.345 L 3614.14,674.447 L 3614.14,690.908 L 3610.71,707.009 L 3604.02,722.047 L 3594.34,735.365 L 3582.11,746.379 L 3567.85,754.61 L 3552.2,759.697 L 3535.83,761.417 L 3535.83,761.417 L 3378.35,761.417 L 3361.98,759.697 L 3346.32,754.61 L 3332.06,746.379 L 3319.83,735.365 L 3310.16,722.047 L 3303.46,707.009 L 3300.04,690.908 z " style="fill-opacity:1.000000;fill:rgb(198,155,180);stroke:rgb(0,0,0);stroke-width:2"/></g>
<g fill-rule="evenodd"><path d="M 3653.94,761.417 L 3653.94,603.937 L 3968.9,603.937 L 3968.9,761.417 L 3653.94,761.417 z " style="fill-opacity:1.000000;fill:rgb(84,17,14);stroke:rgb(0,0,0);stroke-width:2"/></g>
<g fill-rule="evenodd"><path d="M 4055.79,1987.91 L 4055.79,1942.92 L 4055.93,1941.1 L 4056.35,1939.32 L 4057.04,1937.63 L 4062.66,1926.38 L 4063.65,1924.76 L 4064.88,1923.31 L 4070.5,1917.69 L 4071.95,1916.46 L 4073.57,1915.48 L 4084.82,1909.85 L 4086.51,1909.17 L 4088.28,1908.75 L 4090.1,1908.61 L 4106.97,1908.61 L 4108.79,1908.75 L 4110.57,1909.17 L 4112.26,1909.85 L 4123.5,1915.48 L 4125.13,1916.46 L 4126.57,1917.69 L 4132.2,1923.31 L 4133.43,1924.76 L 4134.41,1926.38 L 4140.03,1937.63 L 4140.72,1939.32 L 4141.14,1941.1 L 4141.28,1942.92 L 4141.28,1976.1 L 4185.71,1976.1 L 4188.02,1976.33 L 4190.23,1977 L 4192.28,1978.09 L 4194.06,1979.56 L 4195.53,1981.35 L 4196.63,1983.39 L 4197.3,1985.6 L 4197.52,1987.91 L 4197.3,1990.21 L 4196.63,1992.43 L 4195.53,1994.47 L 4194.06,1996.26 L 4192.28,1997.73 L 4190.23,1998.82 L 4188.02,1999.49 L 4185.71,1999.72 L 4129.47,1999.72 L 4067.6,1999.72 L 4065.3,1999.49 L 4063.08,1998.82 L 4061.04,1997.73 L 4059.25,1996.26 L 4057.78,1994.47 L 4056.69,1992.43 L 4056.02,1990.21 L 4055.79,1987.91M 4079.41,1945.7 L 4079.41,1976.1 L 4117.66,1976.1 L 4117.66,1945.7 L 4114.14,1938.66 L 4111.22,1935.75 L 4104.18,1932.23 L 4092.89,1932.23 L 4085.85,1935.75 L 4082.93,1938.66 L 4079.41,1945.7 z " style="fill-opacity:1.000000;fill:rgb(130,116,65);stroke:rgb(0,0,0);stroke-width:2"/></g>
<g fill-rule="evenodd"><path d="M 4055.79,1869.8 L 4055.79,1824.8 L 4055.93,1822.99 L 4056.35,1821.21 L 4057.04,1819.52 L 4062.66,1808.27 L 4063.65,1806.65 L 4064.88,1805.2 L 4070.5,1799.58 L 4071.95,1798.35 L 4073.57,1797.37 L 4084.82,1791.74 L 4086.51,1791.06 L 4088.28,1790.64 L 4090.1,1790.5 L 4106.97,1790.5 L 4108.79,1790.64 L 4110.57,1791.06 L 4112.26,1791.74 L 4123.5,1797.37 L 4125.13,1798.35 L 4126.57,1799.58 L 4132.2,1805.2 L 4133.43,1806.65 L 4134.41,1808.27 L 4140.03,1819.52 L 4140.14,1819.79 L 4178.94,1792.63 L 4180.96,1791.5 L 4183.16,1790.78 L 4185.46,1790.5 L 4187.77,1790.68 L 4190,1791.3 L 4192.06,1792.35 L 4193.88,1793.78 L 4195.39,1795.53 L 4196.52,1797.55 L 4197.24,1799.75 L 4197.52,1802.05 L 4197.34,1804.36 L 4196.72,1806.59 L 4195.67,1808.65 L 4194.24,1810.48 L 4192.49,1811.98 L 4141.28,1847.83 L 4141.28,1857.99 L 4185.71,1857.99 L 4188.02,1858.22 L 4190.23,1858.89 L 4192.28,1859.98 L 4194.06,1861.45 L 4195.53,1863.24 L 4196.63,1865.28 L 4197.3,1867.49 L 4197.52,1869.8 L 4197.3,1872.1 L 4196.63,1874.32 L 4195.53,1876.36 L 4194.06,1878.15 L 4192.28,1879.62 L 4190.23,1880.71 L 4188.02,1881.38 L 4185.71,1881.61 L 4129.47,1881.61 L 4067.6,1881.61 L 4065.3,1881.38 L 4063.08,1880.71 L 4061.04,1879.62 L 4059.25,1878.15 L 4057.78,1876.36 L 4056.69,1874.32 L 4056.02,1872.1 L 4055.79,1869.8M 4079.41,1827.59 L 4079.41,1857.99 L 4117.66,1857.99 L 4117.66,1827.59 L 4114.14,1820.55 L 4111.22,1817.64 L 4104.18,1814.12 L 4092.89,1814.12 L 4085.85,1817.64 L 4082.93,1820.55 L 4079.41,1827.59 z " style="fill-opacity:1.000000;fill:rgb(33,61,220);stroke:rgb(0,0,0);stroke-width:2"/></g>
<g fill-rule="evenodd"><path d="M 4055.79,1751.69 L 4055.79,1695.45 L 4056.02,1693.14 L 4056.69,1690.93 L 4057.78,1688.88 L 4059.25,1687.09 L 4061.04,1685.62 L 4063.08,1684.53 L 4065.3,1683.86 L 4067.6,1683.63 L 4069.91,1683.86 L 4072.12,1684.53 L 4074.17,1685.62 L 4075.95,1687.09 L 4077.42,1688.88 L 4078.52,1690.93 L 4079.19,1693.14 L 4079.41,1695.45 L 4079.41,1739.88 L 4112.03,1739.88 L 4112.03,1712.32 L 4112.26,1710.01 L 4112.93,1707.8 L 4114.02,1705.76 L 4115.49,1703.97 L 4117.28,1702.5 L 4119.33,1701.41 L 4121.54,1700.74 L 4123.85,1700.51 L 4126.15,1700.74 L 4128.37,1701.41 L 4130.41,1702.5 L 4132.2,1703.97 L 4133.67,1705.76 L 4134.76,1707.8 L 4135.43,1710.01 L 4135.66,1712.32 L 4135.66,1739.88 L 4173.9,1739.88 L 4173.9,1695.45 L 4174.13,1693.14 L 4174.8,1690.93 L 4175.89,1688.88 L 4177.36,1687.09 L 4179.15,1685.62 L 4181.19,1684.53 L 4183.41,1683.86 L 4185.71,1683.63 L 4188.02,1683.86 L 4190.23,1684.53 L 4192.28,1685.62 L 4194.06,1687.09 L 4195.53,1688.88 L 4196.63,1690.93 L 4197.3,1693.14 L 4197.52,1695.45 L 4197.52,1751.69 L 4197.3,1753.99 L 4196.63,1756.21 L 4195.53,1758.25 L 4194.06,1760.04 L 4192.28,1761.51 L 4190.23,1762.6 L 4188.02,1763.27 L 4185.71,1763.5 L 4123.85,1763.5 L 4067.6,1763.5 L 4065.3,1763.27 L 4063.08,1762.6 L 4061.04,1761.51 L 4059.25,1760.04 L 4057.78,1758.25 L 4056.69,1756.21 L 4056.02,1753.99 L 4055.79,1751.69 z " style="fill-opacity:1.000000;fill:rgb(135,112,233);stroke:rgb(0,0,0);stroke-width:2"/></g>
<g fill-rule="evenodd"><path d="M 4055.79,1408.61 L 4055.79,1363.61 L 4055.93,1361.79 L 4056.35,1360.02 L 4057.04,1358.33 L 4062.66,1347.08 L 4063.65,1345.46 L 4064.88,1344.01 L 4070.5,1338.39 L 4071.95,1337.16 L 4073.57,1336.17 L 4084.82,1330.55 L 4086.51,1329.86 L 4088.28,1329.44 L 4090.1,1329.3 L 4106.97,1329.3 L 4108.79,1329.44 L 4110.57,1329.86 L 4112.26,1330.55 L 4123.5,1336.18 L 4125.13,1337.16 L 4126.57,1338.39 L 4132.2,1344.01 L 4133.43,1345.46 L 4134.41,1347.08 L 4140.03,1358.33 L 4140.72,1360.02 L 4141.14,1361.79 L 4141.28,1363.61 L 4141.28,1396.8 L 4185.71,1396.8 L 4188.02,1397.02 L 4190.23,1397.7 L 4192.28,1398.79 L 4194.06,1400.26 L 4195.53,1402.05 L 4196.63,1404.09 L 4197.3,1406.3 L 4197.52,1408.61 L 4197.3,1410.91 L 4196.63,1413.13 L 4195.53,1415.17 L 4194.06,1416.96 L 4192.28,1418.43 L 4190.23,1419.52 L 4188.02,1420.19 L 4185.71,1420.42 L 4129.47,1420.42 L 4067.6,1420.42 L 4065.3,1420.19 L 4063.08,1419.52 L 4061.04,1418.43 L 4059.25,1416.96 L 4057.78,1415.17 L 4056.69,1413.13 L 4056.02,1410.91 L 4055.79,1408.61M 4079.41,1366.4 L 4079.41,1396.8 L 4117.66,1396.8 L 4117.66,1366.4 L 4114.14,1359.36 L 4111.22,1356.45 L 4104.18,1352.93 L 4092.89,1352.93 L 4085.85,1356.45 L 4082.93,1359.36 L 4079.41,1366.4 z " style="fill-opacity:1.000000;fill:rgb(62,161,65);stroke:rgb(0,0,0);stroke-width:2"/></g>
<g fill-rule="evenodd"><path d="M 4055.79,1200.51 L 4055.79,1161.14 L 4055.93,1159.32 L 4056.35,1157.54 L 4057.04,1155.86 L 4062.66,1144.61 L 4063.65,1142.98 L 4064.88,1141.54 L 4070.5,1135.91 L 4071.94,1134.68 L 4073.57,1133.7 L 4084.82,1128.08 L 4086.51,1127.39 L 4088.28,1126.97 L 4090.1,1126.83 L 4101.35,1126.83 L 4103.17,1126.97 L 4104.94,1127.39 L 4106.63,1128.08 L 4117.88,1133.7 L 4119.5,1134.68 L 4120.95,1135.91 L 4121.04,1136.01 L 4121.12,1135.91 L 4126.74,1130.29 L 4128.19,1129.06 L 4129.81,1128.08 L 4141.06,1122.45 L 4142.75,1121.76 L 4144.53,1121.34 L 4146.34,1121.2 L 4163.22,1121.2 L 4165.03,1121.34 L 4166.81,1121.76 L 4168.5,1122.45 L 4179.75,1128.07 L 4181.37,1129.06 L 4182.82,1130.29 L 4188.44,1135.91 L 4189.67,1137.36 L 4190.65,1138.98 L 4196.28,1150.23 L 4196.96,1151.92 L 4197.38,1153.7 L 4197.52,1155.51 L 4197.52,1200.51 L 4197.3,1202.81 L 4196.63,1205.03 L 4195.53,1207.07 L 4194.06,1208.86 L 4192.28,1210.33 L 4190.23,1211.42 L 4188.02,1212.09 L 4185.71,1212.32 L 4067.6,1212.32 L 4065.3,1212.09 L 4063.08,1211.42 L 4061.04,1210.33 L 4059.25,1208.86 L 4057.78,1207.07 L 4056.69,1205.03 L 4056.02,1202.81 L 4055.79,1200.51M 4079.41,1163.93 L 4079.41,1188.7 L 4112.03,1188.7 L 4112.03,1163.93 L 4108.51,1156.89 L 4105.6,1153.97 L 4098.56,1150.45 L 4092.89,1150.45 L 4085.85,1153.97 L 4082.93,1156.89 L 4079.41,1163.93M 4135.66,1188.7 L 4173.9,1188.7 L 4173.9,1158.3 L 4170.38,1151.26 L 4167.47,1148.35 L 4160.43,1144.83 L 4149.13,1144.83 L 4142.09,1148.35 L 4139.79,1150.64 L 4135.66,1163.05 L 4135.66,1188.7 z " style="fill-opacity:1.000000;fill:rgb(225,252,103);stroke:rgb(0,0,0);stroke-width:2"/></g>
<g fill-rule="evenodd"><path d="M 4055.79,1059.9 L 4055.79,1037.4 L 4055.93,1035.59 L 4056.35,1033.81 L 4057.04,1032.12 L 4062.66,1020.87 L 4063.65,1019.25 L 4064.88,1017.8 L 4076.12,1006.55 L 4077.76,1005.19 L 4079.6,1004.15 L 4081.61,1003.45 L 4104.11,997.823 L 4105.53,997.559 L 4106.97,997.47 L 4146.34,997.47 L 4147.79,997.559 L 4149.21,997.823 L 4171.71,1003.45 L 4173.71,1004.15 L 4175.56,1005.19 L 4177.19,1006.55 L 4188.44,1017.8 L 4189.67,1019.25 L 4190.65,1020.87 L 4196.28,1032.12 L 4196.96,1033.81 L 4197.38,1035.59 L 4197.52,1037.4 L 4197.52,1059.9 L 4197.38,1061.72 L 4196.96,1063.49 L 4196.28,1065.18 L 4190.65,1076.43 L 4189.67,1078.05 L 4188.44,1079.5 L 4177.19,1090.75 L 4175.56,1092.11 L 4173.71,1093.16 L 4171.71,1093.86 L 4149.21,1099.48 L 4147.79,1099.74 L 4146.34,1099.83 L 4106.97,1099.83 L 4105.53,1099.74 L 4104.11,1099.48 L 4081.61,1093.86 L 4079.6,1093.16 L 4077.76,1092.11 L 4076.12,1090.75 L 4064.88,1079.5 L 4063.65,1078.05 L 4062.66,1076.43 L 4057.04,1065.18 L 4056.89,1064.79 L 4056.69,1064.42 L 4056.48,1063.71 L 4056.21,1063.02 L 4056.14,1062.6 L 4056.02,1062.2 L 4055.95,1061.47 L 4055.82,1060.74 L 4055.83,1060.32 L 4055.79,1059.9M 4079.41,1057.11 L 4082.93,1064.15 L 4090.51,1071.73 L 4108.43,1076.21 L 4144.89,1076.21 L 4162.8,1071.73 L 4170.38,1064.15 L 4173.9,1057.11 L 4173.9,1040.19 L 4170.38,1033.15 L 4162.8,1025.57 L 4144.89,1021.09 L 4108.43,1021.09 L 4090.51,1025.57 L 4082.93,1033.15 L 4079.41,1040.19 L 4079.41,1057.11 z " style="fill-opacity:1.000000;fill:rgb(62,1,126);stroke:rgb(0,0,0);stroke-width:2"/></g>
<g fill-rule="evenodd"><path d="M 4055.79,857.425 L 4055.79,812.431 L 4055.93,810.613 L 4056.35,808.839 L 4057.04,807.15 L 4062.66,795.9 L 4063.65,794.275 L 4064.88,792.83 L 4070.5,787.206 L 4071.95,785.975 L 4073.57,784.993 L 4084.82,779.369 L 4086.51,778.682 L 4088.28,778.263 L 4090.1,778.122 L 4106.97,778.122 L 4108.79,778.263 L 4110.57,778.682 L 4112.26,779.369 L 4123.5,784.993 L 4125.13,785.976 L 4126.57,787.206 L 4132.2,792.83 L 4133.43,794.275 L 4134.41,795.898 L 4140.03,807.148 L 4140.14,807.415 L 4178.94,780.257 L 4180.96,779.122 L 4183.16,778.402 L 4185.46,778.125 L 4187.77,778.302 L 4190,778.926 L 4192.06,779.973 L 4193.88,781.402 L 4195.39,783.16 L 4196.52,785.178 L 4197.24,787.378 L 4197.52,789.677 L 4197.34,791.986 L 4196.72,794.215 L 4195.67,796.281 L 4194.24,798.102 L 4192.49,799.609 L 4141.28,835.453 L 4141.28,845.614 L 4185.71,845.614 L 4188.02,845.841 L 4190.23,846.513 L 4192.28,847.605 L 4194.06,849.074 L 4195.53,850.863 L 4196.63,852.905 L 4197.3,855.121 L 4197.52,857.425 L 4197.3,859.729 L 4196.63,861.945 L 4195.53,863.987 L 4194.06,865.777 L 4192.28,867.246 L 4190.23,868.337 L 4188.02,869.009 L 4185.71,869.236 L 4129.47,869.236 L 4067.6,869.236 L 4065.3,869.009 L 4063.08,868.337 L 4061.04,867.246 L 4059.25,865.777 L 4057.78,863.987 L 4056.69,861.945 L 4056.02,859.729 L 4055.79,857.425M 4079.41,815.219 L 4079.41,845.614 L 4117.66,845.614 L 4117.66,815.22 L 4114.14,808.178 L 4111.22,805.264 L 4104.18,801.744 L 4092.89,801.744 L 4085.85,805.264 L 4082.93,808.177 L 4079.41,815.219 z " style="fill-opacity:1.000000;fill:rgb(151,234,220);stroke:rgb(0,0,0);stroke-width:2"/></g>
<g fill-rule="evenodd"><path d="M 4055.79,739.315 L 4055.79,711.193 L 4055.94,709.301 L 4056.4,707.458 L 4062.02,690.586 L 4062.73,688.906 L 4063.69,687.355 L 4064.87,685.97 L 4076.12,674.72 L 4077.57,673.49 L 4079.19,672.507 L 4090.44,666.883 L 4091.63,666.37 L 4092.86,665.989 L 4115.36,660.365 L 4116.78,660.101 L 4118.22,660.012 L 4135.1,660.012 L 4136.54,660.101 L 4137.96,660.365 L 4160.46,665.989 L 4161.69,666.37 L 4162.87,666.883 L 4174.12,672.507 L 4175.75,673.49 L 4177.19,674.72 L 4188.44,685.97 L 4189.63,687.355 L 4190.59,688.906 L 4191.29,690.586 L 4196.92,707.458 L 4197.37,709.301 L 4197.52,711.193 L 4197.52,739.315 L 4197.3,741.619 L 4196.63,743.835 L 4195.53,745.877 L 4194.06,747.667 L 4192.28,749.136 L 4190.23,750.227 L 4188.02,750.899 L 4185.71,751.126 L 4067.6,751.126 L 4065.3,750.899 L 4063.08,750.227 L 4061.04,749.136 L 4059.25,747.667 L 4057.78,745.877 L 4056.69,743.835 L 4056.02,741.619 L 4055.79,739.315M 4079.41,713.11 L 4079.41,727.504 L 4173.9,727.504 L 4173.9,713.11 L 4169.77,700.701 L 4161.84,692.778 L 4153.47,688.591 L 4133.64,683.634 L 4119.68,683.634 L 4099.85,688.591 L 4091.47,692.778 L 4083.55,700.701 L 4079.41,713.11 z " style="fill-opacity:1.000000;fill:rgb(107,150,143);stroke:rgb(0,0,0);stroke-width:2"/></g>
<g fill-rule="evenodd"><path d="M 4055.8,1543.89 L 4055.96,1541.61 L 4056.55,1539.41 L 4057.56,1537.37 L 4058.94,1535.56 L 4060.65,1534.04 L 4062.61,1532.89 L 4124.04,1504.22 L 4062.61,1475.55 L 4060.65,1474.39 L 4058.94,1472.88 L 4057.56,1471.07 L 4056.55,1469.02 L 4055.96,1466.83 L 4055.8,1464.55 L 4056.07,1462.29 L 4056.78,1460.12 L 4057.89,1458.13 L 4059.36,1456.39 L 4061.13,1454.97 L 4063.15,1453.91 L 4065.34,1453.26 L 4067.6,1453.04 L 4185.71,1453.04 L 4188.02,1453.27 L 4190.23,1453.94 L 4192.28,1455.03 L 4194.06,1456.5 L 4195.53,1458.29 L 4196.63,1460.33 L 4197.3,1462.54 L 4197.52,1464.85 L 4197.3,1467.15 L 4196.63,1469.37 L 4195.53,1471.41 L 4194.06,1473.2 L 4192.28,1474.67 L 4190.23,1475.76 L 4188.02,1476.43 L 4185.71,1476.66 L 4120.84,1476.66 L 4156.96,1493.52 L 4158.88,1494.65 L 4160.56,1496.12 L 4161.93,1497.87 L 4162.94,1499.86 L 4163.57,1502 L 4163.78,1504.22 L 4163.57,1506.44 L 4162.94,1508.58 L 4161.93,1510.56 L 4160.56,1512.32 L 4158.88,1513.79 L 4156.96,1514.92 L 4120.84,1531.78 L 4185.71,1531.78 L 4188.02,1532.01 L 4190.23,1532.68 L 4192.28,1533.77 L 4194.06,1535.24 L 4195.53,1537.03 L 4196.63,1539.07 L 4197.3,1541.28 L 4197.52,1543.59 L 4197.3,1545.89 L 4196.63,1548.11 L 4195.53,1550.15 L 4194.06,1551.94 L 4192.28,1553.41 L 4190.23,1554.5 L 4188.02,1555.17 L 4185.71,1555.4 L 4067.6,1555.4 L 4065.34,1555.18 L 4063.15,1554.53 L 4061.13,1553.47 L 4059.36,1552.04 L 4057.89,1550.3 L 4056.78,1548.31 L 4056.07,1546.15 L 4055.8,1543.89 z " style="fill-opacity:1.000000;fill:rgb(56,92,42);stroke:rgb(0,0,0);stroke-width:2"/></g>
<g fill-rule="evenodd"><path d="M 4055.85,1623.46 L 4055.85,1621.2 L 4056.28,1618.97 L 4057.13,1616.87 L 4058.36,1614.97 L 4059.94,1613.34 L 4061.8,1612.04 L 4063.87,1611.12 L 4181.98,1571.75 L 4184.24,1571.24 L 4186.55,1571.18 L 4188.83,1571.57 L 4191,1572.4 L 4192.95,1573.63 L 4194.64,1575.22 L 4195.97,1577.11 L 4196.92,1579.22 L 4197.43,1581.48 L 4197.49,1583.8 L 4197.1,1586.08 L 4196.28,1588.24 L 4195.04,1590.2 L 4193.45,1591.88 L 4191.56,1593.22 L 4189.45,1594.16 L 4163.78,1602.72 L 4163.78,1641.94 L 4189.45,1650.49 L 4191.56,1651.44 L 4193.45,1652.78 L 4195.04,1654.46 L 4196.28,1656.42 L 4197.1,1658.58 L 4197.49,1660.86 L 4197.43,1663.18 L 4196.92,1665.43 L 4195.97,1667.55 L 4194.64,1669.44 L 4192.95,1671.03 L 4191,1672.26 L 4188.83,1673.09 L 4186.55,1673.48 L 4184.24,1673.42 L 4181.98,1672.9 L 4148.23,1661.66 L 4148.23,1661.66 L 4063.87,1633.53 L 4061.8,1632.61 L 4059.94,1631.32 L 4058.36,1629.69 L 4057.13,1627.79 L 4056.28,1625.69 L 4055.85,1623.46M 4104.95,1622.33 L 4140.16,1634.06 L 4140.16,1610.59 L 4104.95,1622.33 z " style="fill-opacity:1.000000;fill:rgb(236,176,59);stroke:rgb(0,0,0);stroke-width:2"/></g>
<g fill-rule="evenodd"><path d="M 4055.85,937.298 L 4055.85,935.032 L 4056.28,932.808 L 4057.13,930.707 L 4058.36,928.807 L 4059.94,927.178 L 4061.8,925.88 L 4063.87,924.96 L 4181.98,885.59 L 4184.24,885.077 L 4186.55,885.014 L 4188.83,885.404 L 4191,886.231 L 4192.95,887.465 L 4194.64,889.057 L 4195.97,890.946 L 4196.92,893.06 L 4197.43,895.318 L 4197.49,897.632 L 4197.1,899.915 L 4196.28,902.077 L 4195.04,904.037 L 4193.45,905.718 L 4191.56,907.056 L 4189.45,908 L 4163.78,916.557 L 4163.78,955.774 L 4189.45,964.33 L 4191.56,965.274 L 4193.45,966.612 L 4195.04,968.293 L 4196.28,970.253 L 4197.1,972.415 L 4197.49,974.698 L 4197.43,977.012 L 4196.92,979.27 L 4195.97,981.384 L 4194.64,983.274 L 4192.95,984.866 L 4191,986.099 L 4188.83,986.927 L 4186.55,987.316 L 4184.24,987.253 L 4181.98,986.74 L 4148.23,975.492 L 4148.23,975.492 L 4148.23,975.492 L 4063.87,947.37 L 4061.8,946.451 L 4059.94,945.152 L 4058.36,943.523 L 4057.13,941.623 L 4056.28,939.523 L 4055.85,937.298M 4104.95,936.165 L 4140.16,947.9 L 4140.16,924.431 L 4104.95,936.165 z " style="fill-opacity:1.000000;fill:rgb(251,50,175);stroke:rgb(0,0,0);stroke-width:2"/></g>
<g fill-rule="evenodd"><path d="M 4256.58,2035.72 L 4256.58,1979.47 L 4256.81,1977.17 L 4257.48,1974.95 L 4258.57,1972.91 L 4260.04,1971.12 L 4261.83,1969.65 L 4263.87,1968.56 L 4266.09,1967.89 L 4268.39,1967.66 L 4270.7,1967.89 L 4272.91,1968.56 L 4274.95,1969.65 L 4276.74,1971.12 L 4278.21,1972.91 L 4279.3,1974.95 L 4279.98,1977.17 L 4280.2,1979.47 L 4280.2,2025.03 L 4301.93,2027.2 L 4301.71,2026.29 L 4301.57,2024.47 L 4301.57,1996.35 L 4301.71,1994.53 L 4302.13,1992.75 L 4302.82,1991.06 L 4308.45,1979.82 L 4309.43,1978.19 L 4310.66,1976.75 L 4316.28,1971.12 L 4317.73,1969.89 L 4319.35,1968.91 L 4330.6,1963.28 L 4332.29,1962.6 L 4334.06,1962.18 L 4335.88,1962.04 L 4364,1962.04 L 4365.82,1962.18 L 4367.6,1962.6 L 4369.29,1963.28 L 4380.53,1968.91 L 4382.16,1969.89 L 4383.6,1971.12 L 4389.23,1976.74 L 4390.46,1978.19 L 4391.44,1979.82 L 4397.07,1991.06 L 4397.75,1992.75 L 4398.17,1994.53 L 4398.31,1996.35 L 4398.31,2024.47 L 4398.17,2026.29 L 4397.75,2028.06 L 4397.07,2029.75 L 4391.44,2041 L 4390.46,2042.62 L 4389.23,2044.07 L 4383.6,2049.69 L 4381.81,2051.16 L 4379.77,2052.25 L 4377.55,2052.92 L 4375.25,2053.15 L 4372.94,2052.92 L 4370.73,2052.25 L 4368.69,2051.16 L 4366.9,2049.69 L 4365.43,2047.9 L 4364.34,2045.86 L 4363.67,2043.64 L 4363.44,2041.34 L 4363.67,2039.03 L 4364.34,2036.82 L 4365.43,2034.78 L 4366.9,2032.99 L 4371.17,2028.72 L 4374.69,2021.68 L 4374.69,1999.13 L 4371.17,1992.09 L 4368.26,1989.18 L 4361.21,1985.66 L 4338.67,1985.66 L 4331.63,1989.18 L 4328.72,1992.09 L 4325.2,1999.13 L 4325.2,2021.68 L 4328.72,2028.72 L 4332.98,2032.99 L 4334.4,2034.7 L 4335.48,2036.66 L 4336.16,2038.78 L 4336.44,2040.99 L 4336.29,2043.21 L 4335.74,2045.37 L 4334.78,2047.38 L 4333.47,2049.18 L 4331.84,2050.7 L 4329.95,2051.89 L 4327.88,2052.7 L 4325.69,2053.1 L 4323.46,2053.09 L 4267.22,2047.47 L 4265.09,2047.05 L 4263.07,2046.26 L 4261.23,2045.11 L 4259.63,2043.64 L 4258.33,2041.91 L 4257.37,2039.96 L 4256.78,2037.87 L 4256.58,2035.72 z " style="fill-opacity:1.000000;fill:rgb(60,84,236);stroke:rgb(0,0,0);stroke-width:2"/></g>
<g fill-rule="evenodd"><path d="M 4256.58,1844.49 L 4256.58,1833.24 L 4256.72,1831.42 L 4257.14,1829.65 L 4257.83,1827.96 L 4263.45,1816.71 L 4264.43,1815.09 L 4265.66,1813.64 L 4271.29,1808.02 L 4272.73,1806.79 L 4274.36,1805.8 L 4285.61,1800.18 L 4286.79,1799.67 L 4288.02,1799.28 L 4310.52,1793.66 L 4311.94,1793.4 L 4313.39,1793.31 L 4341.51,1793.31 L 4342.95,1793.4 L 4344.37,1793.66 L 4366.87,1799.28 L 4368.1,1799.67 L 4369.29,1800.18 L 4380.53,1805.8 L 4382.16,1806.78 L 4383.6,1808.01 L 4389.23,1813.64 L 4390.46,1815.08 L 4391.44,1816.71 L 4397.07,1827.96 L 4397.75,1829.65 L 4398.17,1831.42 L 4398.31,1833.24 L 4398.31,1844.49 L 4398.17,1846.31 L 4397.75,1848.08 L 4397.07,1849.77 L 4391.44,1861.02 L 4390.46,1862.64 L 4389.23,1864.09 L 4383.6,1869.71 L 4382.16,1870.94 L 4380.53,1871.92 L 4369.29,1877.55 L 4368.1,1878.06 L 4366.87,1878.45 L 4344.37,1884.07 L 4342.95,1884.33 L 4341.51,1884.42 L 4313.39,1884.42 L 4311.94,1884.33 L 4310.52,1884.07 L 4288.02,1878.45 L 4286.79,1878.06 L 4285.6,1877.55 L 4274.36,1871.92 L 4272.73,1870.94 L 4271.29,1869.71 L 4265.66,1864.09 L 4264.43,1862.64 L 4263.45,1861.02 L 4257.83,1849.77 L 4257.68,1849.38 L 4257.48,1849.01 L 4257.26,1848.3 L 4257,1847.61 L 4256.93,1847.2 L 4256.81,1846.79 L 4256.73,1846.06 L 4256.61,1845.33 L 4256.62,1844.91 L 4256.58,1844.49M 4280.2,1841.7 L 4283.72,1848.74 L 4286.64,1851.65 L 4295.01,1855.84 L 4314.84,1860.8 L 4340.05,1860.8 L 4359.88,1855.84 L 4368.26,1851.65 L 4371.17,1848.74 L 4374.69,1841.7 L 4374.69,1836.03 L 4371.17,1828.99 L 4368.26,1826.07 L 4359.88,1821.89 L 4340.05,1816.93 L 4314.84,1816.93 L 4295.01,1821.89 L 4286.64,1826.07 L 4283.72,1828.99 L 4280.2,1836.03 L 4280.2,1841.7 z " style="fill-opacity:1.000000;fill:rgb(24,219,92);stroke:rgb(0,0,0);stroke-width:2"/></g>
<g fill-rule="evenodd"><path d="M 4256.58,1653.26 L 4256.58,1625.14 L 4256.72,1623.32 L 4257.14,1621.55 L 4257.83,1619.86 L 4263.45,1608.61 L 4264.43,1606.99 L 4265.66,1605.54 L 4271.29,1599.92 L 4272.73,1598.69 L 4274.36,1597.71 L 4285.61,1592.08 L 4287.29,1591.39 L 4289.07,1590.97 L 4290.89,1590.83 L 4302.14,1590.83 L 4304.03,1590.99 L 4305.87,1591.44 L 4322.74,1597.06 L 4324.42,1597.77 L 4325.98,1598.73 L 4327.36,1599.92 L 4374.69,1647.25 L 4374.69,1602.65 L 4374.92,1600.34 L 4375.59,1598.13 L 4376.68,1596.08 L 4378.15,1594.29 L 4379.94,1592.82 L 4381.98,1591.73 L 4384.2,1591.06 L 4386.5,1590.83 L 4388.81,1591.06 L 4391.02,1591.73 L 4393.06,1592.82 L 4394.85,1594.29 L 4396.32,1596.08 L 4397.41,1598.13 L 4398.09,1600.34 L 4398.31,1602.65 L 4398.31,1675.76 L 4398.09,1678.07 L 4397.41,1680.28 L 4396.32,1682.32 L 4394.85,1684.11 L 4393.06,1685.58 L 4391.02,1686.67 L 4388.81,1687.35 L 4386.5,1687.57 L 4384.2,1687.35 L 4381.98,1686.67 L 4379.94,1685.58 L 4378.15,1684.11 L 4312.63,1618.59 L 4300.22,1614.46 L 4293.68,1614.46 L 4286.64,1617.98 L 4283.72,1620.89 L 4280.2,1627.93 L 4280.2,1650.47 L 4283.72,1657.51 L 4287.99,1661.78 L 4289.46,1663.57 L 4290.55,1665.62 L 4291.22,1667.83 L 4291.45,1670.14 L 4291.22,1672.44 L 4290.55,1674.66 L 4289.46,1676.7 L 4287.99,1678.49 L 4286.2,1679.96 L 4284.16,1681.05 L 4281.94,1681.72 L 4279.64,1681.95 L 4277.33,1681.72 L 4275.12,1681.05 L 4273.08,1679.96 L 4271.29,1678.49 L 4265.66,1672.86 L 4264.43,1671.42 L 4263.45,1669.79 L 4257.83,1658.55 L 4257.14,1656.86 L 4256.72,1655.08 L 4256.58,1653.26 z " style="fill-opacity:1.000000;fill:rgb(2,26,254);stroke:rgb(0,0,0);stroke-width:2"/></g>
<g fill-rule="evenodd"><path d="M 4256.58,1529.53 L 4256.58,1518.28 L 4256.72,1516.46 L 4257.14,1514.69 L 4257.83,1513 L 4263.45,1501.75 L 4264.43,1500.13 L 4265.66,1498.68 L 4271.29,1493.06 L 4272.73,1491.83 L 4274.36,1490.84 L 4285.61,1485.22 L 4286.79,1484.71 L 4288.02,1484.32 L 4310.52,1478.7 L 4311.94,1478.44 L 4313.39,1478.35 L 4341.51,1478.35 L 4342.95,1478.44 L 4344.37,1478.7 L 4366.87,1484.32 L 4368.1,1484.71 L 4369.29,1485.22 L 4380.53,1490.84 L 4382.16,1491.82 L 4383.6,1493.05 L 4389.23,1498.68 L 4390.46,1500.12 L 4391.44,1501.75 L 4397.07,1513 L 4397.75,1514.69 L 4398.17,1516.46 L 4398.31,1518.28 L 4398.31,1529.53 L 4398.17,1531.35 L 4397.75,1533.12 L 4397.07,1534.81 L 4391.44,1546.06 L 4390.46,1547.68 L 4389.23,1549.13 L 4383.6,1554.75 L 4382.16,1555.98 L 4380.53,1556.97 L 4369.29,1562.59 L 4368.1,1563.1 L 4366.87,1563.48 L 4344.37,1569.11 L 4342.95,1569.37 L 4341.51,1569.46 L 4313.39,1569.46 L 4311.94,1569.37 L 4310.52,1569.11 L 4288.02,1563.48 L 4286.79,1563.1 L 4285.61,1562.59 L 4274.36,1556.97 L 4272.73,1555.98 L 4271.29,1554.75 L 4265.66,1549.13 L 4264.43,1547.68 L 4263.45,1546.06 L 4257.83,1534.81 L 4257.68,1534.42 L 4257.48,1534.05 L 4257.26,1533.34 L 4257,1532.65 L 4256.93,1532.24 L 4256.81,1531.83 L 4256.73,1531.1 L 4256.61,1530.37 L 4256.62,1529.95 L 4256.58,1529.53M 4280.2,1526.74 L 4283.72,1533.78 L 4286.64,1536.69 L 4295.01,1540.88 L 4314.84,1545.84 L 4340.05,1545.84 L 4359.88,1540.88 L 4368.26,1536.69 L 4371.17,1533.78 L 4374.69,1526.74 L 4374.69,1521.07 L 4371.17,1514.03 L 4368.26,1511.11 L 4359.88,1506.93 L 4340.05,1501.97 L 4314.84,1501.97 L 4295.01,1506.93 L 4286.64,1511.11 L 4283.72,1514.03 L 4280.2,1521.07 L 4280.2,1526.74 z " style="fill-opacity:1.000000;fill:rgb(67,251,250);stroke:rgb(0,0,0);stroke-width:2"/></g>
<g fill-rule="evenodd"><path d="M 4256.58,1428.29 L 4256.58,1400.17 L 4256.72,1398.35 L 4257.14,1396.58 L 4257.83,1394.89 L 4263.45,1383.64 L 4264.43,1382.02 L 4265.66,1380.57 L 4271.29,1374.95 L 4272.73,1373.72 L 4274.36,1372.73 L 4285.61,1367.11 L 4287.29,1366.42 L 4289.07,1366 L 4290.89,1365.86 L 4302.14,1365.86 L 4304.03,1366.01 L 4305.87,1366.47 L 4322.74,1372.09 L 4324.42,1372.8 L 4325.98,1373.76 L 4327.36,1374.95 L 4374.69,1422.27 L 4374.69,1377.67 L 4374.92,1375.37 L 4375.59,1373.15 L 4376.68,1371.11 L 4378.15,1369.32 L 4379.94,1367.85 L 4381.98,1366.76 L 4384.2,1366.09 L 4386.5,1365.86 L 4388.81,1366.09 L 4391.02,1366.76 L 4393.06,1367.85 L 4394.85,1369.32 L 4396.32,1371.11 L 4397.41,1373.15 L 4398.09,1375.37 L 4398.31,1377.67 L 4398.31,1450.79 L 4398.09,1453.09 L 4397.41,1455.31 L 4396.32,1457.35 L 4394.85,1459.14 L 4393.06,1460.61 L 4391.02,1461.7 L 4388.81,1462.37 L 4386.5,1462.6 L 4384.2,1462.37 L 4381.98,1461.7 L 4379.94,1460.61 L 4378.15,1459.14 L 4312.63,1393.62 L 4300.22,1389.48 L 4293.68,1389.48 L 4286.64,1393 L 4283.72,1395.92 L 4280.2,1402.96 L 4280.2,1425.5 L 4283.72,1432.54 L 4287.99,1436.81 L 4289.46,1438.6 L 4290.55,1440.64 L 4291.22,1442.86 L 4291.45,1445.16 L 4291.22,1447.47 L 4290.55,1449.68 L 4289.46,1451.73 L 4287.99,1453.51 L 4286.2,1454.98 L 4284.16,1456.08 L 4281.94,1456.75 L 4279.64,1456.97 L 4277.33,1456.75 L 4275.12,1456.08 L 4273.08,1454.98 L 4271.29,1453.51 L 4265.66,1447.89 L 4264.43,1446.45 L 4263.45,1444.82 L 4257.83,1433.57 L 4257.14,1431.88 L 4256.72,1430.11 L 4256.58,1428.29 z " style="fill-opacity:1.000000;fill:rgb(170,58,251);stroke:rgb(0,0,0);stroke-width:2"/></g>
<g fill-rule="evenodd"><path d="M 4256.58,1045.84 L 4256.58,1034.59 L 4256.72,1032.77 L 4257.14,1031 L 4257.83,1029.31 L 4263.45,1018.06 L 4264.43,1016.44 L 4265.66,1014.99 L 4271.29,1009.37 L 4272.73,1008.14 L 4274.36,1007.15 L 4285.61,1001.53 L 4286.79,1001.02 L 4288.02,1000.63 L 4310.52,995.011 L 4311.94,994.747 L 4313.39,994.658 L 4341.51,994.658 L 4342.95,994.747 L 4344.37,995.011 L 4366.87,1000.63 L 4368.1,1001.02 L 4369.29,1001.53 L 4380.53,1007.15 L 4382.16,1008.13 L 4383.6,1009.36 L 4389.23,1014.99 L 4390.46,1016.43 L 4391.44,1018.06 L 4397.07,1029.31 L 4397.75,1031 L 4398.17,1032.77 L 4398.31,1034.59 L 4398.31,1045.84 L 4398.17,1047.66 L 4397.75,1049.43 L 4397.07,1051.12 L 4391.44,1062.37 L 4390.46,1063.99 L 4389.23,1065.44 L 4383.6,1071.06 L 4382.16,1072.29 L 4380.53,1073.27 L 4369.29,1078.9 L 4368.1,1079.41 L 4366.87,1079.8 L 4344.37,1085.42 L 4342.95,1085.68 L 4341.51,1085.77 L 4313.39,1085.77 L 4311.94,1085.68 L 4310.52,1085.42 L 4288.02,1079.8 L 4286.79,1079.41 L 4285.6,1078.9 L 4274.36,1073.27 L 4272.73,1072.29 L 4271.29,1071.06 L 4265.66,1065.44 L 4264.43,1063.99 L 4263.45,1062.37 L 4257.83,1051.12 L 4257.68,1050.73 L 4257.48,1050.36 L 4257.26,1049.65 L 4257,1048.96 L 4256.93,1048.55 L 4256.81,1048.14 L 4256.73,1047.41 L 4256.61,1046.68 L 4256.62,1046.26 L 4256.58,1045.84M 4280.2,1043.05 L 4283.72,1050.09 L 4286.64,1053 L 4295.01,1057.19 L 4314.84,1062.15 L 4340.05,1062.15 L 4359.88,1057.19 L 4368.26,1053 L 4371.17,1050.09 L 4374.69,1043.05 L 4374.69,1037.38 L 4371.17,1030.34 L 4368.26,1027.42 L 4359.88,1023.24 L 4340.05,1018.28 L 4314.84,1018.28 L 4295.01,1023.24 L 4286.64,1027.42 L 4283.72,1030.34 L 4280.2,1037.38 L 4280.2,1043.05 z " style="fill-opacity:1.000000;fill:rgb(41,209,230);stroke:rgb(0,0,0);stroke-width:2"/></g>
<g fill-rule="evenodd"><path d="M 4256.58,955.851 L 4256.58,899.607 L 4256.81,897.303 L 4257.48,895.087 L 4258.57,893.045 L 4260.04,891.256 L 4261.83,889.787 L 4263.87,888.695 L 4266.09,888.023 L 4268.39,887.796 L 4270.7,888.023 L 4272.91,888.695 L 4274.95,889.787 L 4276.74,891.256 L 4278.21,893.045 L 4279.3,895.087 L 4279.98,897.303 L 4280.2,899.607 L 4280.2,945.162 L 4301.93,947.335 L 4301.71,946.419 L 4301.57,944.601 L 4301.57,916.481 L 4301.71,914.663 L 4302.13,912.889 L 4302.82,911.2 L 4308.44,899.95 L 4309.43,898.325 L 4310.66,896.88 L 4316.28,891.256 L 4317.73,890.026 L 4319.35,889.043 L 4330.6,883.419 L 4332.29,882.732 L 4334.06,882.313 L 4335.88,882.172 L 4364,882.172 L 4365.82,882.313 L 4367.6,882.732 L 4369.29,883.419 L 4380.53,889.043 L 4382.16,890.025 L 4383.6,891.254 L 4389.23,896.878 L 4390.46,898.325 L 4391.44,899.95 L 4397.07,911.2 L 4397.75,912.889 L 4398.17,914.663 L 4398.31,916.481 L 4398.31,944.601 L 4398.17,946.419 L 4397.75,948.194 L 4397.07,949.882 L 4391.44,961.132 L 4390.46,962.758 L 4389.23,964.204 L 4383.6,969.828 L 4381.81,971.297 L 4379.77,972.388 L 4377.55,973.06 L 4375.25,973.286 L 4372.94,973.059 L 4370.73,972.386 L 4368.69,971.295 L 4366.9,969.825 L 4365.43,968.035 L 4364.34,965.993 L 4363.67,963.777 L 4363.44,961.473 L 4363.67,959.169 L 4364.34,956.953 L 4365.43,954.912 L 4366.9,953.122 L 4371.17,948.854 L 4374.69,941.813 L 4374.69,919.269 L 4371.17,912.228 L 4368.26,909.315 L 4361.21,905.794 L 4338.67,905.794 L 4331.63,909.314 L 4328.72,912.227 L 4325.2,919.269 L 4325.2,941.813 L 4328.72,948.855 L 4332.98,953.124 L 4334.4,954.84 L 4335.48,956.793 L 4336.16,958.913 L 4336.44,961.124 L 4336.29,963.347 L 4335.74,965.504 L 4334.78,967.517 L 4333.47,969.315 L 4331.84,970.835 L 4329.95,972.021 L 4327.88,972.832 L 4325.69,973.239 L 4323.46,973.228 L 4267.22,967.604 L 4265.09,967.191 L 4263.07,966.395 L 4261.23,965.244 L 4259.63,963.776 L 4258.33,962.041 L 4257.37,960.098 L 4256.78,958.011 L 4256.58,955.851 z " style="fill-opacity:1.000000;fill:rgb(5,60,124);stroke:rgb(0,0,0);stroke-width:2"/></g>
<g fill-rule="evenodd"><path d="M 4256.58,584.647 L 4256.58,528.403 L 4256.81,526.099 L 4257.48,523.883 L 4258.57,521.841 L 4260.04,520.052 L 4261.83,518.583 L 4263.87,517.491 L 4266.09,516.819 L 4268.39,516.592 L 4270.7,516.819 L 4272.91,517.491 L 4274.95,518.583 L 4276.74,520.052 L 4278.21,521.841 L 4279.3,523.883 L 4279.98,526.099 L 4280.2,528.403 L 4280.2,573.958 L 4301.93,576.131 L 4301.71,575.215 L 4301.57,573.397 L 4301.57,545.277 L 4301.71,543.459 L 4302.13,541.685 L 4302.82,539.996 L 4308.44,528.746 L 4309.43,527.121 L 4310.66,525.676 L 4316.28,520.052 L 4317.73,518.822 L 4319.35,517.839 L 4330.6,512.215 L 4332.29,511.528 L 4334.06,511.109 L 4335.88,510.968 L 4364,510.968 L 4365.82,511.109 L 4367.6,511.528 L 4369.29,512.215 L 4380.53,517.839 L 4382.16,518.821 L 4383.6,520.05 L 4389.23,525.674 L 4390.46,527.121 L 4391.44,528.746 L 4397.07,539.996 L 4397.75,541.685 L 4398.17,543.459 L 4398.31,545.277 L 4398.31,573.397 L 4398.17,575.215 L 4397.75,576.99 L 4397.07,578.678 L 4391.44,589.928 L 4390.46,591.554 L 4389.23,593 L 4383.6,598.624 L 4381.81,600.093 L 4379.77,601.184 L 4377.55,601.856 L 4375.25,602.082 L 4372.94,601.855 L 4370.73,601.182 L 4368.69,600.091 L 4366.9,598.621 L 4365.43,596.831 L 4364.34,594.789 L 4363.67,592.573 L 4363.44,590.269 L 4363.67,587.965 L 4364.34,585.749 L 4365.43,583.708 L 4366.9,581.918 L 4371.17,577.65 L 4374.69,570.609 L 4374.69,548.065 L 4371.17,541.024 L 4368.26,538.111 L 4361.21,534.59 L 4338.67,534.59 L 4331.63,538.11 L 4328.72,541.023 L 4325.2,548.065 L 4325.2,570.609 L 4328.72,577.651 L 4332.98,581.92 L 4334.4,583.636 L 4335.48,585.589 L 4336.16,587.709 L 4336.44,589.92 L 4336.29,592.143 L 4335.74,594.3 L 4334.78,596.313 L 4333.47,598.111 L 4331.84,599.631 L 4329.95,600.817 L 4327.88,601.628 L 4325.69,602.035 L 4323.46,602.024 L 4267.22,596.4 L 4265.09,595.987 L 4263.07,595.191 L 4261.23,594.04 L 4259.63,592.572 L 4258.33,590.837 L 4257.37,588.894 L 4256.78,586.807 L 4256.58,584.647 z " style="fill-opacity:1.000000;fill:rgb(148,117,216);stroke:rgb(0,0,0);stroke-width:2"/></g>
<g fill-rule="evenodd"><path d="M 4256.61,1299.77 L 4256.65,1297.62 L 4257.09,1295.51 L 4257.9,1293.52 L 4259.05,1291.7 L 4260.52,1290.13 L 4262.25,1288.85 L 4264.18,1287.9 L 4266.25,1287.32 L 4268.39,1287.12 L 4374.69,1287.12 L 4374.69,1265.19 L 4374.92,1262.88 L 4375.59,1260.67 L 4376.68,1258.63 L 4378.15,1256.84 L 4379.94,1255.37 L 4381.98,1254.28 L 4384.2,1253.6 L 4386.5,1253.38 L 4388.81,1253.6 L 4391.02,1254.28 L 4393.06,1255.37 L 4394.85,1256.84 L 4396.32,1258.63 L 4397.41,1260.67 L 4398.09,1262.88 L 4398.31,1265.19 L 4398.31,1298.93 L 4398.31,1332.68 L 4398.09,1334.98 L 4397.41,1337.2 L 4396.32,1339.24 L 4394.85,1341.03 L 4393.06,1342.5 L 4391.02,1343.59 L 4388.81,1344.26 L 4386.5,1344.49 L 4384.2,1344.26 L 4381.98,1343.59 L 4379.94,1342.5 L 4378.15,1341.03 L 4376.68,1339.24 L 4375.59,1337.2 L 4374.92,1334.98 L 4374.69,1332.68 L 4374.69,1310.74 L 4302.53,1310.74 L 4304.86,1313.08 L 4306.09,1314.52 L 4307.07,1316.15 L 4312.7,1327.39 L 4313.53,1329.56 L 4313.92,1331.84 L 4313.86,1334.15 L 4313.34,1336.41 L 4312.4,1338.52 L 4311.06,1340.41 L 4309.38,1342.01 L 4307.42,1343.24 L 4305.26,1344.07 L 4302.98,1344.46 L 4300.66,1344.4 L 4298.4,1343.88 L 4296.29,1342.94 L 4294.4,1341.6 L 4292.81,1339.92 L 4291.57,1337.96 L 4286.8,1328.43 L 4277.74,1319.36 L 4261.84,1308.76 L 4260.17,1307.41 L 4258.76,1305.78 L 4257.68,1303.92 L 4256.96,1301.89 L 4256.61,1299.77 z " style="fill-opacity:1.000000;fill:rgb(190,97,137);stroke:rgb(0,0,0);stroke-width:2"/></g>
<g fill-rule="evenodd"><path d="M 4256.61,669.847 L 4256.65,667.696 L 4257.09,665.589 L 4257.9,663.595 L 4259.05,661.781 L 4260.52,660.207 L 4262.25,658.925 L 4264.18,657.977 L 4266.25,657.396 L 4268.39,657.2 L 4374.69,657.2 L 4374.69,635.265 L 4374.92,632.961 L 4375.59,630.745 L 4376.68,628.703 L 4378.15,626.914 L 4379.94,625.445 L 4381.98,624.353 L 4384.2,623.681 L 4386.5,623.454 L 4388.81,623.681 L 4391.02,624.353 L 4393.06,625.445 L 4394.85,626.914 L 4396.32,628.703 L 4397.41,630.745 L 4398.09,632.961 L 4398.31,635.265 L 4398.31,669.011 L 4398.31,702.757 L 4398.09,705.061 L 4397.41,707.277 L 4396.32,709.319 L 4394.85,711.109 L 4393.06,712.578 L 4391.02,713.669 L 4388.81,714.341 L 4386.5,714.568 L 4384.2,714.341 L 4381.98,713.669 L 4379.94,712.578 L 4378.15,711.109 L 4376.68,709.319 L 4375.59,707.277 L 4374.92,705.061 L 4374.69,702.757 L 4374.69,680.822 L 4302.53,680.822 L 4304.86,683.158 L 4306.09,684.603 L 4307.07,686.226 L 4312.7,697.474 L 4313.53,699.636 L 4313.92,701.918 L 4313.86,704.233 L 4313.34,706.491 L 4312.4,708.605 L 4311.06,710.494 L 4309.38,712.087 L 4307.42,713.321 L 4305.26,714.148 L 4302.98,714.538 L 4300.66,714.476 L 4298.4,713.963 L 4296.29,713.019 L 4294.4,711.681 L 4292.81,710 L 4291.57,708.041 L 4286.8,698.506 L 4277.74,689.437 L 4261.84,678.839 L 4260.17,677.487 L 4258.76,675.854 L 4257.68,673.995 L 4256.96,671.97 L 4256.61,669.847 z " style="fill-opacity:1.000000;fill:rgb(249,92,187);stroke:rgb(0,0,0);stroke-width:2"/></g>
<g fill-rule="evenodd"><path d="M 4256.61,2152.99 L 4257,2150.71 L 4257.83,2148.54 L 4259.06,2146.58 L 4260.65,2144.9 L 4262.54,2143.56 L 4264.66,2142.62 L 4349.15,2114.46 L 4264.66,2086.29 L 4262.54,2085.35 L 4260.65,2084.01 L 4259.06,2082.33 L 4257.83,2080.37 L 4257,2078.2 L 4256.61,2075.92 L 4256.67,2073.61 L 4257.19,2071.35 L 4258.13,2069.24 L 4259.47,2067.35 L 4261.15,2065.75 L 4263.11,2064.52 L 4265.27,2063.69 L 4267.55,2063.3 L 4269.87,2063.37 L 4272.13,2063.88 L 4390.24,2103.25 L 4392.31,2104.17 L 4394.16,2105.47 L 4395.74,2107.1 L 4396.98,2109 L 4397.82,2111.1 L 4398.26,2113.32 L 4398.26,2115.59 L 4397.82,2117.81 L 4396.98,2119.91 L 4395.74,2121.81 L 4394.16,2123.44 L 4392.31,2124.74 L 4390.24,2125.66 L 4272.13,2165.03 L 4269.87,2165.54 L 4267.55,2165.61 L 4265.27,2165.22 L 4263.11,2164.39 L 4261.15,2163.16 L 4259.47,2161.56 L 4258.13,2159.67 L 4257.19,2157.56 L 4256.67,2155.3 L 4256.61,2152.99 z " style="fill-opacity:1.000000;fill:rgb(168,153,15);stroke:rgb(0,0,0);stroke-width:2"/></g>
<g fill-rule="evenodd"><path d="M 4329.7,1214.57 L 4329.7,1124.58 L 4329.92,1122.27 L 4330.6,1120.06 L 4331.69,1118.02 L 4333.16,1116.23 L 4334.95,1114.76 L 4336.99,1113.67 L 4339.2,1113 L 4341.51,1112.77 L 4343.81,1113 L 4346.03,1113.67 L 4348.07,1114.76 L 4349.86,1116.23 L 4351.33,1118.02 L 4352.42,1120.06 L 4353.09,1122.27 L 4353.32,1124.58 L 4353.32,1124.58 L 4353.32,1214.57 L 4353.09,1216.87 L 4352.42,1219.09 L 4351.33,1221.13 L 4349.86,1222.92 L 4348.07,1224.39 L 4346.03,1225.48 L 4343.81,1226.15 L 4341.51,1226.38 L 4339.2,1226.15 L 4336.99,1225.48 L 4334.95,1224.39 L 4333.16,1222.92 L 4331.69,1221.13 L 4330.6,1219.09 L 4329.92,1216.87 L 4329.7,1214.57 z " style="fill-opacity:1.000000;fill:rgb(149,177,235);stroke:rgb(0,0,0);stroke-width:2"/></g>
<g fill-rule="evenodd"><path d="M 4329.7,843.365 L 4329.7,753.375 L 4329.92,751.071 L 4330.6,748.855 L 4331.69,746.813 L 4333.16,745.024 L 4334.95,743.555 L 4336.99,742.463 L 4339.2,741.791 L 4341.51,741.564 L 4343.81,741.791 L 4346.03,742.463 L 4348.07,743.555 L 4349.86,745.024 L 4351.33,746.813 L 4352.42,748.855 L 4353.09,751.071 L 4353.32,753.375 L 4353.32,753.375 L 4353.32,843.365 L 4353.09,845.669 L 4352.42,847.885 L 4351.33,849.927 L 4349.86,851.717 L 4348.07,853.186 L 4346.03,854.277 L 4343.81,854.949 L 4341.51,855.176 L 4339.2,854.949 L 4336.99,854.277 L 4334.95,853.186 L 4333.16,851.717 L 4331.69,849.927 L 4330.6,847.885 L 4329.92,845.669 L 4329.7,843.365 z " style="fill-opacity:1.000000;fill:rgb(241,179,5);stroke:rgb(0,0,0);stroke-width:2"/></g>
<g fill-rule="evenodd"><path d="M 4363.44,1923.23 L 4363.47,1922.89 L 4363.46,1922.51 L 4363.6,1921.61 L 4363.67,1920.93 L 4363.74,1920.68 L 4363.78,1920.4 L 4364.13,1919.39 L 4364.34,1918.71 L 4364.42,1918.56 L 4364.48,1918.38 L 4365.12,1917.25 L 4365.43,1916.67 L 4365.49,1916.6 L 4365.53,1916.52 L 4366.87,1914.92 L 4366.9,1914.88 L 4366.9,1914.88 L 4366.9,1914.88 L 4372.53,1909.25 L 4374.32,1907.78 L 4376.36,1906.69 L 4378.57,1906.02 L 4380.88,1905.79 L 4383.18,1906.02 L 4385.4,1906.69 L 4387.44,1907.78 L 4389.23,1909.25 L 4394.85,1914.88 L 4396.18,1916.45 L 4396.25,1916.57 L 4396.32,1916.67 L 4396.6,1917.2 L 4397.21,1918.24 L 4397.3,1918.5 L 4397.41,1918.71 L 4397.59,1919.3 L 4397.91,1920.17 L 4397.98,1920.59 L 4398.09,1920.92 L 4398.14,1921.47 L 4398.27,1922.2 L 4398.27,1922.77 L 4398.31,1923.23 L 4398.27,1923.69 L 4398.27,1924.26 L 4398.14,1924.98 L 4398.09,1925.53 L 4397.98,1925.87 L 4397.91,1926.29 L 4397.59,1927.16 L 4397.41,1927.75 L 4397.3,1927.96 L 4397.21,1928.22 L 4396.6,1929.26 L 4396.32,1929.79 L 4396.25,1929.88 L 4396.18,1930 L 4394.85,1931.58 L 4389.23,1937.2 L 4387.44,1938.67 L 4385.4,1939.76 L 4383.18,1940.44 L 4380.88,1940.66 L 4378.57,1940.44 L 4376.36,1939.77 L 4374.32,1938.67 L 4372.53,1937.21 L 4366.9,1931.58 L 4366.5,1931.09 L 4365.95,1930.51 L 4365.7,1930.11 L 4365.43,1929.79 L 4365.16,1929.29 L 4364.79,1928.72 L 4364.57,1928.19 L 4364.34,1927.75 L 4364.2,1927.28 L 4363.97,1926.74 L 4363.83,1926.08 L 4363.67,1925.54 L 4363.63,1925.12 L 4363.53,1924.65 L 4363.5,1923.86 L 4363.44,1923.23 z " style="fill-opacity:1.000000;fill:rgb(239,247,0);stroke:rgb(0,0,0);stroke-width:2"/></g>
</svg>
