<?xml version="1.0" standalone="no"?>
<!DOCTYPE svg PUBLIC "-//W3C//DTD SVG 1.1//EN"
"http://www.w3.org/Graphics/SVG/1.1/DTD/svg11.dtd">
<svg width="221.537" height="130.337" viewBox="0 0 4615.35 2715.35" version="1.1"
xmlns="http://www.w3.org/2000/svg"
xmlns:xlink="http://www.w3.org/1999/xlink">
<g fill-rule="evenodd"><path d="M 75.1952,2296.64 L 75.1952,2208.08 L 75.2712,2206.54 L 75.4972,2205.02 L 75.8732,2203.52 L 76.3932,2202.07 L 77.0512,2200.67 L 77.8452,2199.35 L 78.7632,2198.11 L 79.7992,2196.97 L 80.9432,2195.93 L 82.1832,2195.01 L 83.5052,2194.22 L 84.8992,2193.56 L 86.3532,2193.04 L 87.8492,2192.67 L 89.3752,2192.44 L 90.9152,2192.36 L 374.437,2192.36 L 375.977,2192.44 L 377.503,2192.67 L 378.999,2193.04 L 380.453,2193.56 L 381.847,2194.22 L 383.169,2195.01 L 384.409,2195.93 L 385.553,2196.97 L 386.589,2198.11 L 387.507,2199.35 L 388.301,2200.67 L 388.959,2202.07 L 389.479,2203.52 L 389.855,2205.02 L 390.081,2206.54 L 390.157,2208.08 L 390.157,2222.84 L 657.795,2222.84 L 662.414,2223.2 L 666.92,2224.28 L 671.2,2226.05 L 675.151,2228.47 L 678.674,2231.48 L 873.568,2426.38 L 2835.01,2426.38 L 3128.19,2133.2 L 3128.19,1435.93 L 3070.6,1378.35 L 2478.77,1378.35 L 2392.63,1464.48 L 2394.29,1469.58 L 2395.67,1482.68 L 2394.29,1495.77 L 2390.22,1508.3 L 2383.64,1519.7 L 2374.83,1529.49 L 2364.17,1537.23 L 2352.14,1542.59 L 2339.26,1545.32 L 2326.09,1545.32 L 2313.21,1542.59 L 2301.18,1537.23 L 2290.53,1529.49 L 2281.72,1519.7 L 2275.13,1508.3 L 2271.06,1495.77 L 2269.69,1482.68 L 2271.06,1469.58 L 2275.13,1457.06 L 2281.72,1445.65 L 2290.53,1435.86 L 2301.18,1428.12 L 2313.21,1422.77 L 2326.09,1420.03 L 2339.26,1420.03 L 2351.06,1422.54 L 2445.66,1327.94 L 2450.13,1324.27 L 2455.24,1321.54 L 2460.77,1319.86 L 2466.54,1319.29 L 3070.6,1319.29 L 3506.3,883.596 L 3506.3,761.417 L 3378.35,761.417 L 3361.98,759.697 L 3346.32,754.61 L 3332.06,746.379 L 3319.83,735.365 L 3310.16,722.047 L 3303.46,707.009 L 3300.04,690.908 L 3300.04,674.447 L 3303.46,658.345 L 3310.16,643.307 L 3319.83,629.99 L 3332.06,618.975 L 3346.32,610.744 L 3361.98,605.658 L 3378.35,603.937 L 3535.83,603.937 L 3552.2,605.658 L 3567.85,610.744 L 3582.11,618.975 L 3594.34,629.99 L 3604.02,643.307 L 3610.71,658.345 L 3614.14,674.447 L 3614.14,690.908 L 3610.71,707.009 L 3604.02,722.047 L 3594.34,735.365 L 3582.11,746.379 L 3567.85,754.61 L 3565.35,755.422 L 3565.35,895.827 L 3564.79,901.588 L 3563.11,907.127 L 3560.38,912.232 L 3556.7,916.706 L 3124.59,1348.82 L 3178.59,1402.82 L 3182.27,1407.3 L 3185,1412.4 L 3186.68,1417.94 L 3187.24,1423.7 L 3187.24,2145.43 L 3186.68,2151.19 L 3185,2156.73 L 3182.27,2161.84 L 3178.59,2166.31 L 2868.12,2476.79 L 2864.6,2479.8 L 2860.65,2482.22 L 2856.37,2483.99 L 2851.86,2485.07 L 2847.24,2485.43 L 861.337,2485.43 L 856.718,2485.07 L 852.213,2483.99 L 847.932,2482.22 L 843.981,2479.8 L 840.458,2476.79 L 645.564,2281.89 L 390.157,2281.89 L 390.157,2296.64 L 390.081,2298.18 L 389.855,2299.71 L 389.479,2301.21 L 388.959,2302.66 L 388.301,2304.05 L 387.507,2305.38 L 386.589,2306.62 L 385.553,2307.76 L 384.409,2308.8 L 383.169,2309.71 L 381.847,2310.51 L 380.453,2311.17 L 378.999,2311.69 L 377.503,2312.06 L 375.977,2312.29 L 374.437,2312.36 L 90.9152,2312.36 L 89.3752,2312.29 L 87.8492,2312.06 L 86.3532,2311.69 L 84.8992,2311.17 L 83.5052,2310.51 L 82.1832,2309.71 L 80.9432,2308.8 L 79.7992,2307.76 L 78.7632,2306.62 L 77.8452,2305.38 L 77.0512,2304.05 L 76.3932,2302.66 L 75.8732,2301.21 L 75.4972,2299.71 L 75.2712,2298.18 L 75.1952,2296.64 z " style="fill-opacity:1.000000;fill:rgb(103,198,105);stroke:rgb(0,0,0);stroke-width:2"/></g>
<g fill-rule="evenodd"><path d="M 75.1952,2096.64 L 75.1952,2008.08 L 75.2712,2006.54 L 75.4972,2005.02 L 75.8732,2003.52 L 76.3932,2002.07 L 77.0512,2000.67 L 77.8452,1999.35 L 78.7632,1998.11 L 79.7992,1996.97 L 80.9432,1995.93 L 82.1832,1995.01 L 83.5052,1994.22 L 84.8992,1993.56 L 86.3532,1993.04 L 87.8492,1992.67 L 89.3752,1992.44 L 90.9152,1992.36 L 374.437,1992.36 L 375.977,1992.44 L 377.503,1992.67 L 378.999,1993.04 L 380.453,1993.56 L 381.847,1994.22 L 383.169,1995.01 L 384.409,1995.93 L 385.553,1996.97 L 386.589,1998.11 L 387.507,1999.35 L 388.301,2000.67 L 388.959,2002.07 L 389.479,2003.52 L 389.855,2005.02 L 390.081,2006.54 L 390.157,2008.08 L 390.157,2096.64 L 390.081,2098.18 L 389.855,2099.71 L 389.479,2101.21 L 388.959,2102.66 L 388.301,2104.05 L 387.507,2105.38 L 386.589,2106.62 L 385.553,2107.76 L 384.409,2108.8 L 383.169,2109.71 L 381.847,2110.51 L 380.453,2111.17 L 378.999,2111.69 L 377.503,2112.06 L 375.977,2112.29 L 374.437,2112.36 L 90.9152,2112.36 L 89.3752,2112.29 L 87.8492,2112.06 L 86.3532,2111.69 L 84.8992,2111.17 L 83.5052,2110.51 L 82.1832,2109.71 L 80.9432,2108.8 L 79.7992,2107.76 L 78.7632,2106.62 L 77.8452,2105.38 L 77.0512,2104.05 L 76.3932,2102.66 L 75.8732,2101.21 L 75.4972,2099.71 L 75.2712,2098.18 L 75.1952,2096.64 z " style="fill-opacity:1.000000;fill:rgb(115,81,255);stroke:rgb(0,0,0);stroke-width:2"/></g>
<g fill-rule="evenodd"><path d="M 75.1952,1896.64 L 75.1952,1808.08 L 75.2712,1806.54 L 75.4972,1805.02 L 75.8732,1803.52 L 76.3932,1802.07 L 77.0512,1800.67 L 77.8452,1799.35 L 78.7632,1798.11 L 79.7992,1796.97 L 80.9432,1795.93 L 82.1832,1795.01 L 83.5052,1794.22 L 84.8992,1793.56 L 86.3532,1793.04 L 87.8492,1792.67 L 89.3752,1792.44 L 90.9152,1792.36 L 374.437,1792.36 L 375.977,1792.44 L 377.503,1792.67 L 378.999,1793.04 L 380.453,1793.56 L 381.847,1794.22 L 383.169,1795.01 L 384.409,1795.93 L 385.553,1796.97 L 386.589,1798.11 L 387.507,1799.35 L 388.301,1800.67 L 388.959,1802.07 L 389.479,1803.52 L 389.855,1805.02 L 390.081,1806.54 L 390.157,1808.08 L 390.157,1822.84 L 435.669,1822.84 L 440.288,1823.2 L 444.794,1824.28 L 449.074,1826.05 L 453.025,1828.47 L 456.548,1831.48 L 976.56,2351.5 L 2804.07,2351.5 L 3053.31,2102.26 L 3053.31,2048.85 L 2794.62,1790.16 L 2544.91,1790.16 L 2362.2,1972.86 L 2362.2,2027.25 L 2364.17,2028.12 L 2374.83,2035.86 L 2383.64,2045.65 L 2390.22,2057.06 L 2394.29,2069.58 L 2395.67,2082.68 L 2394.29,2095.77 L 2390.22,2108.3 L 2383.64,2119.7 L 2374.83,2129.49 L 2364.17,2137.23 L 2352.14,2142.59 L 2339.26,2145.32 L 2326.09,2145.32 L 2313.21,2142.59 L 2301.18,2137.23 L 2290.53,2129.49 L 2281.72,2119.7 L 2275.13,2108.3 L 2271.06,2095.77 L 2269.69,2082.68 L 2271.06,2069.58 L 2275.13,2057.06 L 2281.72,2045.65 L 2290.53,2035.86 L 2301.18,2028.12 L 2303.15,2027.25 L 2303.15,1960.63 L 2303.72,1954.87 L 2305.4,1949.33 L 2308.13,1944.23 L 2311.8,1939.75 L 2503.15,1748.4 L 2503.15,1538.11 L 2501.18,1537.23 L 2490.53,1529.49 L 2481.72,1519.7 L 2475.13,1508.3 L 2471.06,1495.77 L 2469.69,1482.68 L 2471.06,1469.58 L 2475.13,1457.06 L 2481.72,1445.65 L 2490.53,1435.86 L 2501.18,1428.12 L 2513.21,1422.77 L 2526.09,1420.03 L 2539.26,1420.03 L 2552.14,1422.77 L 2564.17,1428.12 L 2574.83,1435.86 L 2583.64,1445.65 L 2590.22,1457.06 L 2594.29,1469.58 L 2595.67,1482.68 L 2594.29,1495.77 L 2590.22,1508.3 L 2583.64,1519.7 L 2574.83,1529.49 L 2564.17,1537.23 L 2562.2,1538.11 L 2562.2,1731.1 L 2806.85,1731.1 L 2812.61,1731.67 L 2818.15,1733.35 L 2823.25,1736.08 L 2827.73,1739.75 L 3103.71,2015.74 L 3107.38,2020.21 L 3110.11,2025.32 L 3111.79,2030.85 L 3112.36,2036.62 L 3112.36,2114.49 L 3111.79,2120.25 L 3110.11,2125.79 L 3107.38,2130.89 L 3103.71,2135.37 L 2837.18,2401.9 L 2833.66,2404.91 L 2829.7,2407.33 L 2825.42,2409.11 L 2820.92,2410.19 L 2816.3,2410.55 L 964.329,2410.55 L 959.71,2410.19 L 955.205,2409.11 L 950.924,2407.33 L 946.973,2404.91 L 943.45,2401.9 L 423.438,1881.89 L 390.157,1881.89 L 390.157,1896.64 L 390.081,1898.18 L 389.855,1899.71 L 389.479,1901.21 L 388.959,1902.66 L 388.301,1904.05 L 387.507,1905.38 L 386.589,1906.62 L 385.553,1907.76 L 384.409,1908.8 L 383.169,1909.71 L 381.847,1910.51 L 380.453,1911.17 L 378.999,1911.69 L 377.503,1912.06 L 375.977,1912.29 L 374.437,1912.36 L 90.9152,1912.36 L 89.3752,1912.29 L 87.8492,1912.06 L 86.3532,1911.69 L 84.8992,1911.17 L 83.5052,1910.51 L 82.1832,1909.71 L 80.9432,1908.8 L 79.7992,1907.76 L 78.7632,1906.62 L 77.8452,1905.38 L 77.0512,1904.05 L 76.3932,1902.66 L 75.8732,1901.21 L 75.4972,1899.71 L 75.2712,1898.18 L 75.1952,1896.64 z " style="fill-opacity:1.000000;fill:rgb(74,236,41);stroke:rgb(0,0,0);stroke-width:2"/></g>
<g fill-rule="evenodd"><path d="M 75.1952,1696.64 L 75.1952,1608.08 L 75.2712,1606.54 L 75.4972,1605.02 L 75.8732,1603.52 L 76.3932,1602.07 L 77.0512,1600.67 L 77.8452,1599.35 L 78.7632,1598.11 L 79.7992,1596.97 L 80.9432,1595.93 L 82.1832,1595.01 L 83.5052,1594.22 L 84.8992,1593.56 L 86.3532,1593.04 L 87.8492,1592.67 L 89.3752,1592.44 L 90.9152,1592.36 L 374.437,1592.36 L 375.977,1592.44 L 377.503,1592.67 L 378.999,1593.04 L 380.453,1593.56 L 381.847,1594.22 L 383.169,1595.01 L 384.409,1595.93 L 385.553,1596.97 L 386.589,1598.11 L 387.507,1599.35 L 388.301,1600.67 L 388.959,1602.07 L 389.479,1603.52 L 389.855,1605.02 L 390.081,1606.54 L 390.157,1608.08 L 390.157,1696.64 L 390.081,1698.18 L 389.855,1699.71 L 389.479,1701.21 L 388.959,1702.66 L 388.301,1704.05 L 387.507,1705.38 L 386.589,1706.62 L 385.553,1707.76 L 384.409,1708.8 L 383.169,1709.71 L 381.847,1710.51 L 380.453,1711.17 L 378.999,1711.69 L 377.503,1712.06 L 375.977,1712.29 L 374.437,1712.36 L 90.9152,1712.36 L 89.3752,1712.29 L 87.8492,1712.06 L 86.3532,1711.69 L 84.8992,1711.17 L 83.5052,1710.51 L 82.1832,1709.71 L 80.9432,1708.8 L 79.7992,1707.76 L 78.7632,1706.62 L 77.8452,1705.38 L 77.0512,1704.05 L 76.3932,1702.66 L 75.8732,1701.21 L 75.4972,1699.71 L 75.2712,1698.18 L 75.1952,1696.64 z " style="fill-opacity:1.000000;fill:rgb(205,186,171);stroke:rgb(0,0,0);stroke-width:2"/></g>
<g fill-rule="evenodd"><path d="M 75.1952,1496.64 L 75.1952,1408.08 L 75.2712,1406.54 L 75.4972,1405.02 L 75.8732,1403.52 L 76.3932,1402.07 L 77.0512,1400.67 L 77.8452,1399.35 L 78.7632,1398.11 L 79.7992,1396.97 L 80.9432,1395.93 L 82.1832,1395.01 L 83.5052,1394.22 L 84.8992,1393.56 L 86.3532,1393.04 L 87.8492,1392.67 L 89.3752,1392.44 L 90.9152,1392.36 L 374.437,1392.36 L 375.977,1392.44 L 377.503,1392.67 L 378.999,1393.04 L 380.453,1393.56 L 381.847,1394.22 L 383.169,1395.01 L 384.409,1395.93 L 385.553,1396.97 L 386.589,1398.11 L 387.507,1399.35 L 388.301,1400.67 L 388.959,1402.07 L 389.479,1403.52 L 389.855,1405.02 L 390.081,1406.54 L 390.157,1408.08 L 390.157,1495.72 L 823.41,1928.98 L 1095.51,1928.98 L 1101.27,1929.54 L 1106.81,1931.23 L 1111.92,1933.95 L 1116.39,1937.63 L 1455.38,2276.62 L 2696.98,2276.62 L 2872.72,2100.88 L 2871.06,2095.77 L 2869.69,2082.68 L 2871.06,2069.58 L 2875.13,2057.06 L 2881.72,2045.65 L 2890.53,2035.86 L 2901.18,2028.12 L 2913.21,2022.77 L 2926.09,2020.03 L 2939.26,2020.03 L 2952.14,2022.77 L 2964.17,2028.12 L 2974.83,2035.86 L 2983.64,2045.65 L 2990.22,2057.06 L 2994.29,2069.58 L 2995.67,2082.68 L 2994.29,2095.77 L 2990.22,2108.3 L 2983.64,2119.7 L 2974.83,2129.49 L 2964.17,2137.23 L 2952.14,2142.59 L 2939.26,2145.32 L 2926.09,2145.32 L 2914.3,2142.82 L 2730.09,2327.02 L 2725.62,2330.69 L 2720.51,2333.42 L 2714.97,2335.1 L 2709.21,2335.67 L 1443.15,2335.67 L 1437.39,2335.1 L 1431.85,2333.42 L 1426.74,2330.69 L 1422.27,2327.02 L 1083.28,1988.03 L 811.179,1988.03 L 806.56,1987.67 L 802.055,1986.59 L 797.774,1984.81 L 793.823,1982.39 L 790.3,1979.38 L 323.281,1512.36 L 90.9152,1512.36 L 89.3752,1512.29 L 87.8492,1512.06 L 86.3532,1511.69 L 84.8992,1511.17 L 83.5052,1510.51 L 82.1832,1509.71 L 80.9432,1508.8 L 79.7992,1507.76 L 78.7632,1506.62 L 77.8452,1505.38 L 77.0512,1504.05 L 76.3932,1502.66 L 75.8732,1501.21 L 75.4972,1499.71 L 75.2712,1498.18 L 75.1952,1496.64 z " style="fill-opacity:1.000000;fill:rgb(242,251,227);stroke:rgb(0,0,0);stroke-width:2"/></g>
<g fill-rule="evenodd"><path d="M 75.1952,1296.64 L 75.1952,1208.08 L 75.2712,1206.54 L 75.4972,1205.02 L 75.8732,1203.52 L 76.3932,1202.07 L 77.0512,1200.67 L 77.8452,1199.35 L 78.7632,1198.11 L 79.7992,1196.97 L 80.9432,1195.93 L 82.1832,1195.01 L 83.5052,1194.22 L 84.8992,1193.56 L 86.3532,1193.04 L 87.8492,1192.67 L 89.3752,1192.44 L 90.9152,1192.36 L 374.437,1192.36 L 375.977,1192.44 L 377.503,1192.67 L 378.999,1193.04 L 380.453,1193.56 L 381.847,1194.22 L 383.169,1195.01 L 384.409,1195.93 L 385.553,1196.97 L 386.589,1198.11 L 387.507,1199.35 L 388.301,1200.67 L 388.959,1202.07 L 389.479,1203.52 L 389.855,1205.02 L 390.081,1206.54 L 390.157,1208.08 L 390.157,1296.64 L 390.081,1298.18 L 389.855,1299.71 L 389.479,1301.21 L 388.959,1302.66 L 388.301,1304.05 L 387.507,1305.38 L 386.589,1306.62 L 385.553,1307.76 L 384.409,1308.8 L 383.169,1309.71 L 381.847,1310.51 L 380.453,1311.17 L 378.999,1311.69 L 377.503,1312.06 L 375.977,1312.29 L 374.437,1312.36 L 90.9152,1312.36 L 89.3752,1312.29 L 87.8492,1312.06 L 86.3532,1311.69 L 84.8992,1311.17 L 83.5052,1310.51 L 82.1832,1309.71 L 80.9432,1308.8 L 79.7992,1307.76 L 78.7632,1306.62 L 77.8452,1305.38 L 77.0512,1304.05 L 76.3932,1302.66 L 75.8732,1301.21 L 75.4972,1299.71 L 75.2712,1298.18 L 75.1952,1296.64 z " style="fill-opacity:1.000000;fill:rgb(70,124,194);stroke:rgb(0,0,0);stroke-width:2"/></g>
<g fill-rule="evenodd"><path d="M 75.1952,1096.64 L 75.1952,1008.08 L 75.2712,1006.54 L 75.4972,1005.02 L 75.8732,1003.52 L 76.3932,1002.07 L 77.0512,1000.67 L 77.8452,999.349 L 78.7632,998.111 L 79.7992,996.967 L 80.9432,995.931 L 82.1832,995.013 L 83.5052,994.219 L 84.8992,993.559 L 86.3532,993.039 L 87.8492,992.665 L 89.3752,992.439 L 90.9152,992.363 L 374.437,992.363 L 375.977,992.439 L 377.503,992.665 L 378.999,993.039 L 380.453,993.559 L 381.847,994.219 L 383.169,995.013 L 384.409,995.931 L 385.553,996.967 L 386.589,998.111 L 387.507,999.349 L 388.301,1000.67 L 388.959,1002.07 L 389.479,1003.52 L 389.855,1005.02 L 390.081,1006.54 L 390.157,1008.08 L 390.157,1068.64 L 464.658,1143.14 L 468.33,1147.61 L 471.059,1152.72 L 472.739,1158.26 L 473.307,1164.02 L 473.307,1472.81 L 842.702,1842.21 L 1177.87,1842.21 L 1183.63,1842.77 L 1189.17,1844.45 L 1194.28,1847.18 L 1198.75,1850.85 L 1537.35,2189.45 L 1852.41,2189.45 L 2075.83,1966.04 L 2075.83,1050.55 L 2076.39,1044.79 L 2078.07,1039.25 L 2080.8,1034.15 L 2084.47,1029.67 L 2185.34,928.806 L 2188.86,925.797 L 2192.81,923.376 L 2197.09,921.603 L 2201.6,920.521 L 2206.22,920.158 L 2508.82,920.158 L 2514.58,920.725 L 2520.12,922.405 L 2525.22,925.134 L 2529.7,928.806 L 2834.12,1233.23 L 3029.26,1233.23 L 3085.04,1177.45 L 3085.04,727.559 L 3085.6,721.799 L 3087.29,716.259 L 3090.01,711.155 L 3093.69,706.68 L 3267.94,532.428 L 3272.41,528.756 L 3277.52,526.027 L 3283.06,524.347 L 3288.82,523.78 L 3603.31,523.78 L 3609.07,524.347 L 3614.6,526.027 L 3619.71,528.756 L 3624.18,532.428 L 3695.69,603.937 L 3968.9,603.937 L 3968.9,761.417 L 3762.2,761.417 L 3762.2,820.473 L 3761.84,825.092 L 3760.76,829.598 L 3759.05,833.714 L 3759.05,2003.94 L 3887.01,2003.94 L 3903.38,2005.66 L 3919.03,2010.74 L 3933.29,2018.98 L 3945.52,2029.99 L 3955.2,2043.31 L 3961.89,2058.35 L 3965.32,2074.45 L 3965.32,2090.91 L 3961.89,2107.01 L 3955.2,2122.05 L 3945.52,2135.36 L 3933.29,2146.38 L 3919.03,2154.61 L 3903.38,2159.7 L 3887.01,2161.42 L 3729.53,2161.42 L 3713.16,2159.7 L 3697.5,2154.61 L 3683.25,2146.38 L 3671.01,2135.36 L 3661.34,2122.05 L 3654.64,2107.01 L 3651.22,2090.91 L 3651.22,2074.45 L 3654.64,2058.35 L 3661.34,2043.31 L 3671.01,2029.99 L 3683.25,2018.98 L 3697.5,2010.74 L 3700,2009.93 L 3700,823.623 L 3700.36,819.004 L 3701.44,814.499 L 3703.15,810.383 L 3703.15,761.417 L 3653.94,761.417 L 3653.94,645.697 L 3591.07,582.835 L 3301.05,582.835 L 3144.09,739.79 L 3144.09,1189.69 L 3143.53,1195.45 L 3141.85,1200.98 L 3139.12,1206.09 L 3135.44,1210.56 L 3062.37,1283.64 L 3058.85,1286.65 L 3054.9,1289.07 L 3050.62,1290.84 L 3046.11,1291.92 L 3041.5,1292.28 L 2821.89,1292.28 L 2816.13,1291.72 L 2810.59,1290.04 L 2805.48,1287.31 L 2801.01,1283.64 L 2496.59,979.213 L 2218.45,979.213 L 2134.88,1062.78 L 2134.88,1978.27 L 2134.31,1984.03 L 2132.63,1989.57 L 2129.9,1994.67 L 2126.23,1999.15 L 1885.52,2239.86 L 1881.05,2243.53 L 1875.94,2246.26 L 1870.41,2247.94 L 1864.65,2248.5 L 1525.12,2248.5 L 1519.36,2247.94 L 1513.82,2246.26 L 1508.71,2243.53 L 1504.24,2239.86 L 1165.64,1901.26 L 830.471,1901.26 L 824.711,1900.69 L 819.171,1899.01 L 814.067,1896.28 L 809.592,1892.61 L 422.9,1505.92 L 419.228,1501.45 L 416.499,1496.34 L 414.819,1490.8 L 414.252,1485.04 L 414.252,1176.25 L 350.367,1112.36 L 90.9152,1112.36 L 89.3752,1112.29 L 87.8492,1112.06 L 86.3532,1111.69 L 84.8992,1111.17 L 83.5052,1110.51 L 82.1832,1109.71 L 80.9432,1108.8 L 79.7992,1107.76 L 78.7632,1106.62 L 77.8452,1105.38 L 77.0512,1104.05 L 76.3932,1102.66 L 75.8732,1101.21 L 75.4972,1099.71 L 75.2712,1098.18 L 75.1952,1096.64 z " style="fill-opacity:1.000000;fill:rgb(84,248,27);stroke:rgb(0,0,0);stroke-width:2"/></g>
<g fill-rule="evenodd"><path d="M 75.1952,896.643 L 75.1952,808.083 L 75.2712,806.543 L 75.4972,805.017 L 75.8732,803.519 L 76.3932,802.067 L 77.0512,800.673 L 77.8452,799.349 L 78.7632,798.111 L 79.7992,796.967 L 80.9432,795.931 L 82.1832,795.013 L 83.5052,794.219 L 84.8992,793.559 L 86.3532,793.039 L 87.8492,792.665 L 89.3752,792.439 L 90.9152,792.363 L 374.437,792.363 L 375.977,792.439 L 377.503,792.665 L 378.999,793.039 L 380.453,793.559 L 381.847,794.219 L 383.169,795.013 L 384.409,795.931 L 385.553,796.967 L 386.589,798.111 L 387.507,799.349 L 388.301,800.673 L 388.959,802.067 L 389.479,803.519 L 389.855,805.017 L 390.081,806.543 L 390.157,808.083 L 390.157,822.836 L 1060.37,822.836 L 1131.18,752.022 L 1131.18,521.68 L 1091.39,481.891 L 390.157,481.891 L 390.157,496.643 L 390.081,498.183 L 389.855,499.709 L 389.479,501.207 L 388.959,502.659 L 388.301,504.053 L 387.507,505.377 L 386.589,506.615 L 385.553,507.759 L 384.409,508.795 L 383.169,509.713 L 381.847,510.507 L 380.453,511.167 L 378.999,511.687 L 377.503,512.061 L 375.977,512.287 L 374.437,512.363 L 90.9152,512.363 L 89.3752,512.287 L 87.8492,512.061 L 86.3532,511.687 L 84.8992,511.167 L 83.5052,510.507 L 82.1832,509.713 L 80.9432,508.795 L 79.7992,507.759 L 78.7632,506.615 L 77.8452,505.377 L 77.0512,504.053 L 76.3932,502.659 L 75.8732,501.207 L 75.4972,499.709 L 75.2712,498.183 L 75.1952,496.643 L 75.1952,408.083 L 75.2712,406.543 L 75.4972,405.017 L 75.8732,403.519 L 76.3932,402.067 L 77.0512,400.673 L 77.8452,399.349 L 78.7632,398.111 L 79.7992,396.967 L 80.9432,395.931 L 82.1832,395.013 L 83.5052,394.219 L 84.8992,393.559 L 86.3532,393.039 L 87.8492,392.665 L 89.3752,392.439 L 90.9152,392.363 L 374.437,392.363 L 375.977,392.439 L 377.503,392.665 L 378.999,393.039 L 380.453,393.559 L 381.847,394.219 L 383.169,395.013 L 384.409,395.931 L 385.553,396.967 L 386.589,398.111 L 387.507,399.349 L 388.301,400.673 L 388.959,402.067 L 389.479,403.519 L 389.855,405.017 L 390.081,406.543 L 390.157,408.083 L 390.157,422.836 L 1103.62,422.836 L 1109.38,423.403 L 1114.92,425.083 L 1120.03,427.812 L 1124.5,431.484 L 1160.71,467.691 L 1199.75,428.65 L 1204.22,424.978 L 1209.33,422.249 L 1214.87,420.569 L 1220.63,420.002 L 2377.32,420.002 L 2383.08,420.569 L 2388.62,422.249 L 2393.73,424.978 L 2398.2,428.65 L 2847.26,877.704 L 2850.27,881.227 L 2852.69,885.178 L 2854.46,889.459 L 2855.54,893.964 L 2855.9,898.583 L 2855.9,1003.94 L 2983.86,1003.94 L 3000.23,1005.66 L 3015.88,1010.74 L 3030.14,1018.98 L 3042.37,1029.99 L 3052.05,1043.31 L 3058.74,1058.35 L 3062.17,1074.45 L 3062.17,1090.91 L 3058.74,1107.01 L 3052.05,1122.05 L 3042.37,1135.36 L 3030.14,1146.38 L 3015.88,1154.61 L 3000.23,1159.7 L 2983.86,1161.42 L 2826.38,1161.42 L 2810.01,1159.7 L 2794.35,1154.61 L 2780.1,1146.38 L 2767.86,1135.36 L 2758.19,1122.05 L 2751.49,1107.01 L 2748.07,1090.91 L 2748.07,1074.45 L 2751.49,1058.35 L 2758.19,1043.31 L 2767.86,1029.99 L 2780.1,1018.98 L 2794.35,1010.74 L 2796.85,1009.93 L 2796.85,910.814 L 2365.09,479.057 L 1232.86,479.057 L 1190.23,521.68 L 1190.23,764.253 L 1189.67,770.014 L 1187.99,775.553 L 1185.26,780.658 L 1181.59,785.132 L 1093.48,873.242 L 1089,876.914 L 1083.9,879.643 L 1078.36,881.323 L 1072.6,881.891 L 390.157,881.891 L 390.157,896.643 L 390.081,898.183 L 389.855,899.709 L 389.479,901.207 L 388.959,902.659 L 388.301,904.053 L 387.507,905.377 L 386.589,906.615 L 385.553,907.759 L 384.409,908.795 L 383.169,909.713 L 381.847,910.507 L 380.453,911.167 L 378.999,911.687 L 377.503,912.061 L 375.977,912.287 L 374.437,912.363 L 90.9152,912.363 L 89.3752,912.287 L 87.8492,912.061 L 86.3532,911.687 L 84.8992,911.167 L 83.5052,910.507 L 82.1832,909.713 L 80.9432,908.795 L 79.7992,907.759 L 78.7632,906.615 L 77.8452,905.377 L 77.0512,904.053 L 76.3932,902.659 L 75.8732,901.207 L 75.4972,899.709 L 75.2712,898.183 L 75.1952,896.643 z " style="fill-opacity:1.000000;fill:rgb(232,231,141);stroke:rgb(0,0,0);stroke-width:2"/></g>
<g fill-rule="evenodd"><path d="M 75.1952,696.643 L 75.1952,608.083 L 75.2712,606.543 L 75.4972,605.017 L 75.8732,603.519 L 76.3932,602.067 L 77.0512,600.673 L 77.8452,599.349 L 78.7632,598.111 L 79.7992,596.967 L 80.9432,595.931 L 82.1832,595.013 L 83.5052,594.219 L 84.8992,593.559 L 86.3532,593.039 L 87.8492,592.665 L 89.3752,592.439 L 90.9152,592.363 L 374.437,592.363 L 375.977,592.439 L 377.503,592.665 L 378.999,593.039 L 380.453,593.559 L 381.847,594.219 L 383.169,595.013 L 384.409,595.931 L 385.553,596.967 L 386.589,598.111 L 387.507,599.349 L 388.301,600.673 L 388.959,602.067 L 389.479,603.519 L 389.855,605.017 L 390.081,606.543 L 390.157,608.083 L 390.157,622.836 L 707.085,622.836 L 712.845,623.403 L 718.384,625.083 L 723.489,627.811 L 727.964,631.483 L 749.631,653.15 L 802.624,653.149 L 807.006,643.307 L 816.682,629.99 L 828.915,618.975 L 843.17,610.744 L 858.826,605.658 L 875.197,603.937 L 1032.68,603.937 L 1049.05,605.658 L 1064.7,610.744 L 1078.96,618.975 L 1091.19,629.99 L 1100.87,643.307 L 1107.56,658.345 L 1110.99,674.447 L 1110.99,690.908 L 1107.56,707.009 L 1100.87,722.047 L 1091.19,735.365 L 1078.96,746.379 L 1064.7,754.61 L 1049.05,759.697 L 1032.68,761.417 L 875.197,761.417 L 858.826,759.697 L 843.17,754.61 L 828.915,746.379 L 816.682,735.365 L 807.006,722.047 L 802.624,712.205 L 737.401,712.205 L 731.641,711.637 L 726.102,709.957 L 720.997,707.229 L 716.523,703.557 L 694.855,681.891 L 390.157,681.891 L 390.157,696.643 L 390.081,698.183 L 389.855,699.709 L 389.479,701.207 L 388.959,702.659 L 388.301,704.053 L 387.507,705.377 L 386.589,706.615 L 385.553,707.759 L 384.409,708.795 L 383.169,709.713 L 381.847,710.507 L 380.453,711.167 L 378.999,711.687 L 377.503,712.061 L 375.977,712.287 L 374.437,712.363 L 90.9152,712.363 L 89.3752,712.287 L 87.8492,712.061 L 86.3532,711.687 L 84.8992,711.167 L 83.5052,710.507 L 82.1832,709.713 L 80.9432,708.795 L 79.7992,707.759 L 78.7632,706.615 L 77.8452,705.377 L 77.0512,704.053 L 76.3932,702.659 L 75.8732,701.207 L 75.4972,699.709 L 75.2712,698.183 L 75.1952,696.643 z " style="fill-opacity:1.000000;fill:rgb(118,90,46);stroke:rgb(0,0,0);stroke-width:2"/></g>
<g fill-rule="evenodd"><path d="M 796.888,2090.91 L 796.888,2074.45 L 800.311,2058.35 L 807.006,2043.31 L 816.682,2029.99 L 828.915,2018.98 L 843.17,2010.74 L 858.826,2005.66 L 875.197,2003.94 L 1032.68,2003.94 L 1049.05,2005.66 L 1064.7,2010.74 L 1078.96,2018.98 L 1091.19,2029.99 L 1100.87,2043.31 L 1107.56,2058.35 L 1110.99,2074.45 L 1110.99,2090.91 L 1107.56,2107.01 L 1100.87,2122.05 L 1091.19,2135.36 L 1078.96,2146.38 L 1064.7,2154.61 L 1049.05,2159.7 L 1032.68,2161.42 L 1032.68,2161.42 L 875.197,2161.42 L 858.826,2159.7 L 843.17,2154.61 L 828.915,2146.38 L 816.682,2135.36 L 807.006,2122.05 L 800.311,2107.01 L 796.888,2090.91 z " style="fill-opacity:1.000000;fill:rgb(99,51,159);stroke:rgb(0,0,0);stroke-width:2"/></g>
<g fill-rule="evenodd"><path d="M 796.888,1690.91 L 796.888,1674.45 L 800.311,1658.35 L 807.006,1643.31 L 816.682,1629.99 L 828.915,1618.98 L 843.17,1610.74 L 858.826,1605.66 L 875.197,1603.94 L 1032.68,1603.94 L 1049.05,1605.66 L 1064.7,1610.74 L 1078.96,1618.98 L 1091.19,1629.99 L 1100.87,1643.31 L 1105.25,1653.15 L 1170.47,1653.15 L 1176.23,1653.72 L 1181.77,1655.4 L 1186.88,1658.13 L 1191.35,1661.8 L 1195.02,1666.27 L 1197.75,1671.38 L 1199.43,1676.92 L 1200,1682.68 L 1200,1746.04 L 1507.11,2053.15 L 1560.1,2053.15 L 1564.49,2043.31 L 1574.16,2029.99 L 1586.39,2018.98 L 1600.65,2010.74 L 1603.91,2009.69 L 1969.76,1643.83 L 1969.76,820.789 L 1970.33,815.029 L 1972.01,809.49 L 1974.74,804.385 L 1978.41,799.91 L 2116.52,661.798 L 2120.05,658.789 L 2124,656.368 L 2128.28,654.595 L 2132.78,653.513 L 2137.4,653.15 L 2202.62,653.15 L 2207.01,643.307 L 2216.68,629.99 L 2228.91,618.975 L 2243.17,610.744 L 2258.83,605.658 L 2275.2,603.937 L 2432.68,603.937 L 2449.05,605.658 L 2464.7,610.744 L 2478.96,618.975 L 2491.19,629.99 L 2500.87,643.307 L 2507.56,658.345 L 2510.99,674.447 L 2510.99,690.908 L 2507.56,707.009 L 2500.87,722.047 L 2491.19,735.365 L 2478.96,746.379 L 2464.7,754.61 L 2449.05,759.697 L 2432.68,761.417 L 2275.2,761.417 L 2258.83,759.697 L 2243.17,754.61 L 2228.91,746.379 L 2216.68,735.365 L 2207.01,722.047 L 2202.62,712.205 L 2149.63,712.205 L 2028.82,833.02 L 2028.82,1656.06 L 2028.25,1661.82 L 2026.57,1667.36 L 2023.84,1672.47 L 2020.17,1676.94 L 1693.18,2003.94 L 1790.16,2003.94 L 1806.53,2005.66 L 1822.18,2010.74 L 1836.44,2018.98 L 1848.67,2029.99 L 1858.35,2043.31 L 1865.04,2058.35 L 1868.47,2074.45 L 1868.47,2090.91 L 1865.04,2107.01 L 1858.35,2122.05 L 1848.67,2135.36 L 1836.44,2146.38 L 1822.18,2154.61 L 1806.53,2159.7 L 1790.16,2161.42 L 1632.68,2161.42 L 1616.31,2159.7 L 1600.65,2154.61 L 1586.39,2146.38 L 1574.16,2135.36 L 1564.49,2122.05 L 1560.1,2112.2 L 1494.88,2112.2 L 1489.12,2111.64 L 1483.58,2109.96 L 1478.48,2107.23 L 1474,2103.56 L 1149.59,1779.15 L 1146.58,1775.63 L 1144.16,1771.67 L 1142.39,1767.39 L 1141.31,1762.89 L 1140.94,1758.27 L 1140.94,1712.2 L 1105.25,1712.2 L 1100.87,1722.05 L 1091.19,1735.36 L 1078.96,1746.38 L 1064.7,1754.61 L 1049.05,1759.7 L 1032.68,1761.42 L 875.197,1761.42 L 858.826,1759.7 L 843.17,1754.61 L 828.915,1746.38 L 816.682,1735.36 L 807.006,1722.05 L 800.311,1707.01 L 796.888,1690.91 z " style="fill-opacity:1.000000;fill:rgb(201,154,102);stroke:rgb(0,0,0);stroke-width:2"/></g>
<g fill-rule="evenodd"><path d="M 796.888,1090.91 L 796.888,1074.45 L 800.311,1058.35 L 807.006,1043.31 L 816.682,1029.99 L 828.915,1018.98 L 843.17,1010.74 L 858.826,1005.66 L 875.197,1003.94 L 1032.68,1003.94 L 1049.05,1005.66 L 1064.7,1010.74 L 1078.96,1018.98 L 1091.19,1029.99 L 1100.87,1043.31 L 1105.25,1053.15 L 1158.24,1053.15 L 1465.35,746.038 L 1465.35,682.677 L 1465.92,676.917 L 1467.6,671.377 L 1470.33,666.273 L 1474,661.798 L 1478.48,658.126 L 1483.58,655.397 L 1489.12,653.717 L 1494.88,653.15 L 1560.1,653.149 L 1564.49,643.307 L 1574.16,629.99 L 1586.39,618.975 L 1600.65,610.744 L 1616.31,605.658 L 1632.68,603.937 L 1790.16,603.937 L 1806.53,605.658 L 1822.18,610.744 L 1836.44,618.975 L 1848.67,629.99 L 1858.35,643.307 L 1865.04,658.345 L 1868.47,674.447 L 1868.47,690.908 L 1865.04,707.009 L 1858.35,722.047 L 1848.67,735.365 L 1836.44,746.379 L 1822.18,754.61 L 1806.53,759.697 L 1790.16,761.417 L 1632.68,761.417 L 1616.31,759.697 L 1600.65,754.61 L 1586.39,746.379 L 1574.16,735.365 L 1564.49,722.047 L 1560.1,712.205 L 1524.41,712.205 L 1524.41,758.269 L 1524.05,762.888 L 1522.96,767.394 L 1521.19,771.674 L 1518.77,775.625 L 1515.76,779.148 L 1191.35,1103.56 L 1186.88,1107.23 L 1181.77,1109.96 L 1176.23,1111.64 L 1170.47,1112.2 L 1105.25,1112.2 L 1100.87,1122.05 L 1091.19,1135.36 L 1078.96,1146.38 L 1064.7,1154.61 L 1049.05,1159.7 L 1032.68,1161.42 L 875.197,1161.42 L 858.826,1159.7 L 843.17,1154.61 L 828.915,1146.38 L 816.682,1135.36 L 807.006,1122.05 L 800.311,1107.01 L 796.888,1090.91 z " style="fill-opacity:1.000000;fill:rgb(50,13,183);stroke:rgb(0,0,0);stroke-width:2"/></g>
<g fill-rule="evenodd"><path d="M 1207.4,656.693 L 1209.98,632.136 L 1217.61,608.653 L 1229.96,587.269 L 1246.48,568.92 L 1266.46,554.406 L 1289.01,544.363 L 1313.17,539.23 L 1337.86,539.23 L 1362.01,544.363 L 1384.57,554.406 L 1385.42,555.026 L 1402.82,537.626 L 1407.29,533.954 L 1412.4,531.225 L 1417.94,529.545 L 1423.7,528.978 L 1846.69,528.978 L 1852.45,529.545 L 1857.99,531.225 L 1863.1,533.954 L 1867.57,537.626 L 1945.21,615.264 L 1948.88,619.739 L 1951.61,624.843 L 1953.29,630.383 L 1953.86,636.143 L 1953.86,1253.23 L 1953.29,1258.99 L 1951.61,1264.53 L 1948.88,1269.63 L 1945.21,1274.11 L 1662.2,1557.11 L 1662.2,1603.94 L 1790.16,1603.94 L 1806.53,1605.66 L 1822.18,1610.74 L 1836.44,1618.98 L 1848.67,1629.99 L 1858.35,1643.31 L 1865.04,1658.35 L 1868.47,1674.45 L 1868.47,1690.91 L 1865.04,1707.01 L 1858.35,1722.05 L 1848.67,1735.36 L 1836.44,1746.38 L 1822.18,1754.61 L 1806.53,1759.7 L 1790.16,1761.42 L 1632.68,1761.42 L 1616.31,1759.7 L 1600.65,1754.61 L 1586.39,1746.38 L 1574.16,1735.36 L 1564.49,1722.05 L 1557.79,1707.01 L 1554.37,1690.91 L 1554.37,1674.45 L 1557.79,1658.35 L 1564.49,1643.31 L 1574.16,1629.99 L 1586.39,1618.98 L 1600.65,1610.74 L 1603.15,1609.93 L 1603.15,1544.88 L 1603.72,1539.12 L 1605.4,1533.58 L 1608.13,1528.48 L 1611.8,1524 L 1894.8,1241 L 1894.8,648.374 L 1834.46,588.033 L 1435.93,588.033 L 1426.79,597.177 L 1433.41,608.653 L 1441.04,632.136 L 1443.62,656.693 L 1441.04,681.249 L 1433.41,704.733 L 1421.06,726.116 L 1404.54,744.466 L 1384.57,758.979 L 1362.01,769.022 L 1337.86,774.156 L 1313.17,774.156 L 1289.01,769.022 L 1266.46,758.979 L 1246.48,744.466 L 1229.96,726.116 L 1217.61,704.733 L 1209.98,681.249 L 1207.4,656.693 z " style="fill-opacity:1.000000;fill:rgb(49,88,163);stroke:rgb(0,0,0);stroke-width:2"/></g>
<g fill-rule="evenodd"><path d="M 1554.37,1090.91 L 1554.37,1074.45 L 1557.79,1058.35 L 1564.49,1043.31 L 1574.16,1029.99 L 1586.39,1018.98 L 1600.65,1010.74 L 1616.31,1005.66 L 1632.68,1003.94 L 1790.16,1003.94 L 1806.53,1005.66 L 1822.18,1010.74 L 1836.44,1018.98 L 1848.67,1029.99 L 1858.35,1043.31 L 1865.04,1058.35 L 1868.47,1074.45 L 1868.47,1090.91 L 1865.04,1107.01 L 1858.35,1122.05 L 1848.67,1135.36 L 1836.44,1146.38 L 1822.18,1154.61 L 1806.53,1159.7 L 1790.16,1161.42 L 1790.16,1161.42 L 1632.68,1161.42 L 1616.31,1159.7 L 1600.65,1154.61 L 1586.39,1146.38 L 1574.16,1135.36 L 1564.49,1122.05 L 1557.79,1107.01 L 1554.37,1090.91 z " style="fill-opacity:1.000000;fill:rgb(90,37,93);stroke:rgb(0,0,0);stroke-width:2"/></g>
<g fill-rule="evenodd"><path d="M 2192.68,2149.21 L 2192.68,1430.95 L 2193.04,1426.33 L 2194.12,1421.82 L 2195.89,1417.54 L 2198.31,1413.59 L 2201.32,1410.07 L 2403.15,1208.24 L 2403.15,1161.42 L 2275.2,1161.42 L 2258.83,1159.7 L 2243.17,1154.61 L 2228.91,1146.38 L 2216.68,1135.36 L 2207.01,1122.05 L 2200.31,1107.01 L 2196.89,1090.91 L 2196.89,1074.45 L 2200.31,1058.35 L 2207.01,1043.31 L 2216.68,1029.99 L 2228.91,1018.98 L 2243.17,1010.74 L 2258.83,1005.66 L 2275.2,1003.94 L 2432.68,1003.94 L 2449.05,1005.66 L 2464.7,1010.74 L 2478.96,1018.98 L 2491.19,1029.99 L 2500.87,1043.31 L 2507.56,1058.35 L 2510.99,1074.45 L 2510.99,1090.91 L 2507.56,1107.01 L 2500.87,1122.05 L 2491.19,1135.36 L 2478.96,1146.38 L 2464.7,1154.61 L 2462.2,1155.42 L 2462.2,1220.47 L 2461.84,1225.09 L 2460.76,1229.6 L 2458.99,1233.88 L 2456.57,1237.83 L 2453.56,1241.35 L 2251.73,1443.18 L 2251.73,2136.98 L 2276.4,2161.65 L 2411.94,2161.65 L 2472.72,2100.88 L 2471.06,2095.77 L 2469.69,2082.68 L 2471.06,2069.58 L 2475.13,2057.06 L 2481.72,2045.65 L 2490.53,2035.86 L 2501.18,2028.12 L 2513.21,2022.77 L 2526.09,2020.03 L 2539.26,2020.03 L 2552.14,2022.77 L 2564.17,2028.12 L 2574.83,2035.86 L 2583.64,2045.65 L 2590.22,2057.06 L 2594.29,2069.58 L 2595.67,2082.68 L 2594.29,2095.77 L 2590.22,2108.3 L 2583.64,2119.7 L 2574.83,2129.49 L 2564.17,2137.23 L 2552.14,2142.59 L 2539.26,2145.32 L 2526.09,2145.32 L 2514.3,2142.82 L 2445.05,2212.06 L 2440.58,2215.73 L 2435.47,2218.46 L 2429.93,2220.14 L 2424.17,2220.71 L 2264.17,2220.71 L 2258.41,2220.14 L 2252.87,2218.46 L 2247.77,2215.73 L 2243.29,2212.06 L 2201.32,2170.09 L 2198.32,2166.57 L 2195.89,2162.62 L 2194.12,2158.34 L 2193.04,2153.83 L 2192.68,2149.21 z " style="fill-opacity:1.000000;fill:rgb(5,23,88);stroke:rgb(0,0,0);stroke-width:2"/></g>
<g fill-rule="evenodd"><path d="M 2669.69,2082.68 L 2671.06,2069.58 L 2675.13,2057.06 L 2681.72,2045.65 L 2690.53,2035.86 L 2701.18,2028.12 L 2713.21,2022.77 L 2726.09,2020.03 L 2739.26,2020.03 L 2752.14,2022.77 L 2764.17,2028.12 L 2774.83,2035.86 L 2783.64,2045.65 L 2790.22,2057.06 L 2794.29,2069.58 L 2795.67,2082.68 L 2794.29,2095.77 L 2790.22,2108.3 L 2783.64,2119.7 L 2774.83,2129.49 L 2764.17,2137.23 L 2752.14,2142.59 L 2739.26,2145.32 L 2726.09,2145.32 L 2713.21,2142.59 L 2701.18,2137.23 L 2690.53,2129.49 L 2681.72,2119.7 L 2675.13,2108.3 L 2671.06,2095.77 L 2669.69,2082.68 z " style="fill-opacity:1.000000;fill:rgb(233,94,212);stroke:rgb(0,0,0);stroke-width:2"/></g>
<g fill-rule="evenodd"><path d="M 2669.69,1482.68 L 2671.06,1469.58 L 2675.13,1457.06 L 2681.72,1445.65 L 2690.53,1435.86 L 2701.18,1428.12 L 2713.21,1422.77 L 2726.09,1420.03 L 2739.26,1420.03 L 2752.14,1422.77 L 2764.17,1428.12 L 2774.83,1435.86 L 2783.64,1445.65 L 2790.22,1457.06 L 2794.29,1469.58 L 2795.67,1482.68 L 2794.29,1495.77 L 2790.22,1508.3 L 2783.64,1519.7 L 2774.83,1529.49 L 2764.17,1537.23 L 2752.14,1542.59 L 2739.26,1545.32 L 2726.09,1545.32 L 2713.21,1542.59 L 2701.18,1537.23 L 2690.53,1529.49 L 2681.72,1519.7 L 2675.13,1508.3 L 2671.06,1495.77 L 2669.69,1482.68 z " style="fill-opacity:1.000000;fill:rgb(171,178,205);stroke:rgb(0,0,0);stroke-width:2"/></g>
<g fill-rule="evenodd"><path d="M 2748.07,690.908 L 2748.07,674.447 L 2751.49,658.345 L 2758.19,643.307 L 2767.86,629.99 L 2780.1,618.975 L 2794.35,610.744 L 2810.01,605.658 L 2826.38,603.937 L 2983.86,603.937 L 3000.23,605.658 L 3015.88,610.744 L 3030.14,618.975 L 3042.37,629.99 L 3052.05,643.307 L 3058.74,658.345 L 3062.17,674.447 L 3062.17,690.908 L 3058.74,707.009 L 3052.05,722.047 L 3042.37,735.365 L 3030.14,746.379 L 3015.88,754.61 L 3000.23,759.697 L 2983.86,761.417 L 2983.86,761.417 L 2826.38,761.417 L 2810.01,759.697 L 2794.35,754.61 L 2780.1,746.379 L 2767.86,735.365 L 2758.19,722.047 L 2751.49,707.009 L 2748.07,690.908 z " style="fill-opacity:1.000000;fill:rgb(198,155,180);stroke:rgb(0,0,0);stroke-width:2"/></g>
<g fill-rule="evenodd"><path d="M 2869.69,1545.67 L 2869.69,1419.69 L 2995.67,1419.69 L 2995.67,1545.67 L 2869.69,1545.67 z " style="fill-opacity:1.000000;fill:rgb(84,17,14);stroke:rgb(0,0,0);stroke-width:2"/></g>
<g fill-rule="evenodd"><path d="M 3296.46,2161.42 L 3296.46,2003.94 L 3611.42,2003.94 L 3611.42,2161.42 L 3296.46,2161.42 z " style="fill-opacity:1.000000;fill:rgb(130,116,65);stroke:rgb(0,0,0);stroke-width:2"/></g>
</svg>
