<?xml version="1.0" standalone="no"?>
<!DOCTYPE svg PUBLIC "-//W3C//DTD SVG 1.1//EN"
"http://www.w3.org/Graphics/SVG/1.1/DTD/svg11.dtd">
<svg width="221.537" height="130.337" viewBox="0 0 4615.35 2715.35" version="1.1"
xmlns="http://www.w3.org/2000/svg"
xmlns:xlink="http://www.w3.org/1999/xlink">
<polyline points="43.3052,2382.68 44.0632,2390.36 46.3032,2397.75 49.9412,2404.55 54.8372,2410.52 60.8032,2415.41 67.6092,2419.05 74.9952,2421.29 82.6772,2422.05 493.305,2422.05 493.305,2632.68 494.063,2640.36 496.303,2647.75 499.941,2654.55 504.837,2660.52 510.803,2665.41 517.609,2669.05 524.995,2671.29 532.677,2672.05 4532.68,2672.05 4540.36,2671.29 4547.74,2669.05 4554.55,2665.41 4560.52,2660.52 4565.41,2654.55 4569.05,2647.75 4571.29,2640.36 4572.05,2632.68 4572.05,82.6772 4571.29,74.9972 4569.05,67.6112 4565.41,60.8052 4560.52,54.8392 4554.55,49.9432 4547.74,46.3052 4540.36,44.0652 4532.68,43.3072 532.677,43.3072 524.995,44.0652 517.609,46.3052 510.803,49.9432 504.837,54.8392 499.941,60.8052 496.303,67.6112 494.063,74.9972 493.305,82.6772 493.305,293.307 82.6772,293.307 74.9952,294.065 67.6092,296.305 60.8032,299.943 54.8372,304.839 49.9412,310.805 46.3032,317.611 44.0632,324.997 43.3052,332.677 43.3052,2382.68" style="stroke:rgb(103,198,105);stroke-width:78.740157;fill:none;stroke-opacity:0.5;stroke-linecap:round;stroke-linejoin:round;;fill:none"/>
<polyline points="43.3052,2382.68 44.0632,2390.36 46.3032,2397.75 49.9412,2404.55 54.8372,2410.52 60.8032,2415.41 67.6092,2419.05 74.9952,2421.29 82.6772,2422.05 493.305,2422.05 493.305,2632.68 494.063,2640.36 496.303,2647.75 499.941,2654.55 504.837,2660.52 510.803,2665.41 517.609,2669.05 524.995,2671.29 532.677,2672.05 4532.68,2672.05 4540.36,2671.29 4547.74,2669.05 4554.55,2665.41 4560.52,2660.52 4565.41,2654.55 4569.05,2647.75 4571.29,2640.36 4572.05,2632.68 4572.05,82.6772 4571.29,74.9972 4569.05,67.6112 4565.41,60.8052 4560.52,54.8392 4554.55,49.9432 4547.74,46.3052 4540.36,44.0652 4532.68,43.3072 532.677,43.3072 524.995,44.0652 517.609,46.3052 510.803,49.9432 504.837,54.8392 499.941,60.8052 496.303,67.6112 494.063,74.9972 493.305,82.6772 493.305,293.307 82.6772,293.307 74.9952,294.065 67.6092,296.305 60.8032,299.943 54.8372,304.839 49.9412,310.805 46.3032,317.611 44.0632,324.997 43.3052,332.677 43.3052,2382.68" style="stroke:rgb(0,0,0);stroke-width:1px;fill:none;stroke-opacity:1;stroke-linecap:round;stroke-linejoin:round;;fill:none"/>
</svg>
