M48
; DRILL file {KiCad (5.1.9)-1} date 05/05/21 14:33:46
; FORMAT={-:-/ absolute / metric / decimal}
; #@! TF.CreationDate,2021-05-05T14:33:46-07:00
; #@! TF.GenerationSoftware,Kicad,Pcbnew,(5.1.9)-1
; #@! TF.FileFunction,Plated,1,2,PTH
FMAT,2
METRIC
T1C1.000
%
G90
G05
T1
X11.43Y35.54
X11.43Y33.04
X22.86Y35.54
X22.86Y33.04
X39.37Y45.72
X39.37Y43.18
X39.37Y40.64
X39.37Y38.1
X39.37Y35.56
X39.37Y33.02
X39.37Y30.48
X39.37Y27.94
X39.37Y25.4
X39.37Y22.86
X41.91Y45.72
X41.91Y43.18
X41.91Y40.64
X41.91Y38.1
X41.91Y35.56
X41.91Y33.02
X41.91Y30.48
X41.91Y27.94
X41.91Y25.4
X41.91Y22.86
X62.23Y63.5
X62.23Y52.415
X62.23Y38.26
X62.23Y30.32
X62.23Y16.165
X62.23Y5.08
X64.77Y38.26
X64.77Y30.32
X67.31Y38.26
X67.31Y30.32
X69.85Y63.5
X69.85Y52.415
X69.85Y38.26
X69.85Y30.32
X69.85Y16.165
X69.85Y5.08
X90.17Y44.37
X90.17Y39.37
X90.17Y31.75
X90.17Y26.75
T0
M30
