%TF.GenerationSoftware,KiCad,Pcbnew,(5.1.9)-1*%
%TF.CreationDate,2021-05-05T14:34:00-07:00*%
%TF.ProjectId,preamp-board-v4,70726561-6d70-42d6-926f-6172642d7634,rev?*%
%TF.SameCoordinates,PX11a33a70PY316e4430*%
%TF.FileFunction,Copper,L2,Bot*%
%TF.FilePolarity,Positive*%
%FSLAX46Y46*%
G04 Gerber Fmt 4.6, Leading zero omitted, Abs format (unit mm)*
G04 Created by KiCad (PCBNEW (5.1.9)-1) date 2021-05-05 14:34:00*
%MOMM*%
%LPD*%
G01*
G04 APERTURE LIST*
%TA.AperFunction,ComponentPad*%
%ADD10O,3.000000X4.000000*%
%TD*%
%TA.AperFunction,ComponentPad*%
%ADD11O,4.000000X3.000000*%
%TD*%
%TA.AperFunction,ComponentPad*%
%ADD12O,1.250000X4.000000*%
%TD*%
%TA.AperFunction,ComponentPad*%
%ADD13O,4.000000X1.000000*%
%TD*%
%TA.AperFunction,ComponentPad*%
%ADD14O,1.130000X4.000000*%
%TD*%
%TA.AperFunction,ComponentPad*%
%ADD15R,1.130000X4.000000*%
%TD*%
%TA.AperFunction,Conductor*%
%ADD16C,1.000000*%
%TD*%
G04 APERTURE END LIST*
D10*
%TO.P,C1,2*%
%TO.N,Net-(C1-Pad2)*%
X90170000Y45070000D03*
%TO.P,C1,1*%
%TO.N,Net-(C1-Pad1)*%
X90170000Y38670000D03*
%TD*%
%TO.P,C2,2*%
%TO.N,Net-(C2-Pad2)*%
X90170000Y26050000D03*
%TO.P,C2,1*%
%TO.N,Net-(C2-Pad1)*%
X90170000Y32450000D03*
%TD*%
D11*
%TO.P,R1,2*%
%TO.N,Net-(J1-Pad8)*%
X61530000Y5080000D03*
%TO.P,R1,1*%
%TO.N,Net-(C2-Pad2)*%
X70550000Y5080000D03*
%TD*%
%TO.P,R2,2*%
%TO.N,Net-(J1-Pad18)*%
X61530000Y16165000D03*
%TO.P,R2,1*%
%TO.N,Net-(C2-Pad2)*%
X70550000Y16165000D03*
%TD*%
%TO.P,R4,2*%
%TO.N,Net-(J1-Pad14)*%
X61530000Y52415000D03*
%TO.P,R4,1*%
%TO.N,Net-(C1-Pad2)*%
X70550000Y52415000D03*
%TD*%
%TO.P,R3,2*%
%TO.N,Net-(J1-Pad6)*%
X61530000Y63500000D03*
%TO.P,R3,1*%
%TO.N,Net-(C1-Pad2)*%
X70550000Y63500000D03*
%TD*%
D12*
%TO.P,C4,2*%
%TO.N,Net-(C2-Pad1)*%
X22860000Y31710000D03*
%TO.P,C4,1*%
%TO.N,Net-(C4-Pad1)*%
X22860000Y36870000D03*
%TD*%
%TO.P,C3,2*%
%TO.N,Net-(C1-Pad1)*%
X11430000Y31710000D03*
%TO.P,C3,1*%
%TO.N,Net-(C3-Pad1)*%
X11430000Y36870000D03*
%TD*%
D13*
%TO.P,J1,20*%
%TO.N,Net-(J1-Pad20)*%
X43210000Y22860000D03*
%TO.P,J1,18*%
%TO.N,Net-(J1-Pad18)*%
X43210000Y25400000D03*
%TO.P,J1,16*%
%TO.N,Net-(C2-Pad1)*%
X43210000Y27940000D03*
%TO.P,J1,14*%
%TO.N,Net-(J1-Pad14)*%
X43210000Y30480000D03*
%TO.P,J1,12*%
%TO.N,Net-(C1-Pad1)*%
X43210000Y33020000D03*
%TO.P,J1,10*%
%TO.N,GND*%
X43210000Y35560000D03*
%TO.P,J1,8*%
%TO.N,Net-(J1-Pad8)*%
X43210000Y38100000D03*
%TO.P,J1,6*%
%TO.N,Net-(J1-Pad6)*%
X43210000Y40640000D03*
%TO.P,J1,4*%
%TO.N,Net-(J1-Pad4)*%
X43210000Y43180000D03*
%TO.P,J1,2*%
%TO.N,Net-(J1-Pad2)*%
X43210000Y45720000D03*
%TO.P,J1,19*%
%TO.N,Net-(J1-Pad19)*%
X38070000Y22860000D03*
%TO.P,J1,17*%
%TO.N,Net-(J1-Pad17)*%
X38070000Y25400000D03*
%TO.P,J1,15*%
%TO.N,GND*%
X38070000Y27940000D03*
%TO.P,J1,13*%
%TO.N,Net-(J1-Pad11)*%
X38070000Y30480000D03*
%TO.P,J1,11*%
X38070000Y33020000D03*
%TO.P,J1,9*%
%TO.N,Net-(C4-Pad1)*%
X38070000Y35560000D03*
%TO.P,J1,7*%
%TO.N,GND*%
X38070000Y38100000D03*
%TO.P,J1,5*%
%TO.N,Net-(J1-Pad3)*%
X38070000Y40640000D03*
%TO.P,J1,3*%
X38070000Y43180000D03*
%TO.P,J1,1*%
%TO.N,Net-(C3-Pad1)*%
%TA.AperFunction,ComponentPad*%
G36*
G01*
X36070000Y45367000D02*
X36070000Y46073000D01*
G75*
G02*
X36217000Y46220000I147000J0D01*
G01*
X39923000Y46220000D01*
G75*
G02*
X40070000Y46073000I0J-147000D01*
G01*
X40070000Y45367000D01*
G75*
G02*
X39923000Y45220000I-147000J0D01*
G01*
X36217000Y45220000D01*
G75*
G02*
X36070000Y45367000I0J147000D01*
G01*
G37*
%TD.AperFunction*%
%TD*%
D14*
%TO.P,U1,8*%
%TO.N,Net-(J1-Pad2)*%
X69850000Y29020000D03*
%TO.P,U1,7*%
%TO.N,Net-(C2-Pad1)*%
X67310000Y29020000D03*
%TO.P,U1,6*%
%TO.N,Net-(C2-Pad2)*%
X64770000Y29020000D03*
%TO.P,U1,5*%
%TO.N,GND*%
X62230000Y29020000D03*
%TO.P,U1,4*%
%TO.N,Net-(J1-Pad20)*%
X62230000Y39560000D03*
%TO.P,U1,3*%
%TO.N,GND*%
X64770000Y39560000D03*
%TO.P,U1,2*%
%TO.N,Net-(C1-Pad2)*%
X67310000Y39560000D03*
D15*
%TO.P,U1,1*%
%TO.N,Net-(C1-Pad1)*%
X69850000Y39560000D03*
%TD*%
D16*
%TO.N,Net-(C1-Pad1)*%
X41910000Y33020000D02*
X45523000Y33020000D01*
X45523000Y33020000D02*
X48712000Y36209000D01*
X48712000Y36209000D02*
X48712000Y47525000D01*
X48712000Y47525000D02*
X43682000Y52555000D01*
X43682000Y52555000D02*
X32221000Y52555000D01*
X32221000Y52555000D02*
X12706000Y33040000D01*
X12706000Y33040000D02*
X11430000Y33040000D01*
%TO.N,Net-(C1-Pad2)*%
X69850000Y63500000D02*
X69850000Y52415000D01*
%TO.N,Net-(C2-Pad2)*%
X69850000Y16165000D02*
X67049000Y16165000D01*
X64770000Y30320000D02*
X64770000Y18444000D01*
X64770000Y18444000D02*
X67049000Y16165000D01*
%TO.N,Net-(J1-Pad2)*%
X69850000Y30320000D02*
X69850000Y25519000D01*
X69850000Y25519000D02*
X74255000Y21114000D01*
X74255000Y21114000D02*
X74255000Y15044000D01*
X74255000Y15044000D02*
X72035000Y12824000D01*
X72035000Y12824000D02*
X40161000Y12824000D01*
X40161000Y12824000D02*
X32026000Y20959000D01*
X32026000Y20959000D02*
X32026000Y45024000D01*
X32026000Y45024000D02*
X35315000Y48313000D01*
X35315000Y48313000D02*
X40445000Y48313000D01*
X40445000Y48313000D02*
X41910000Y46848000D01*
X41910000Y46848000D02*
X41910000Y45720000D01*
%TO.N,Net-(J1-Pad11)*%
X39370000Y33020000D02*
X39370000Y30480000D01*
%TO.N,GND*%
X39370000Y38100000D02*
X34569000Y38100000D01*
X34569000Y38100000D02*
X34569000Y27940000D01*
X62230000Y30320000D02*
X62230000Y25519000D01*
X62230000Y25519000D02*
X57215000Y20504000D01*
X57215000Y20504000D02*
X35403000Y20504000D01*
X35403000Y20504000D02*
X34569000Y21338000D01*
X34569000Y21338000D02*
X34569000Y27940000D01*
X64770000Y36059000D02*
X62230000Y33519000D01*
X62230000Y33519000D02*
X62230000Y30320000D01*
X39370000Y27940000D02*
X34569000Y27940000D01*
X64770000Y38260000D02*
X64770000Y36059000D01*
%TO.N,Net-(J1-Pad14)*%
X46711000Y30480000D02*
X62230000Y45999000D01*
X62230000Y45999000D02*
X62230000Y49414000D01*
X62230000Y52415000D02*
X62230000Y49414000D01*
X41910000Y30480000D02*
X46711000Y30480000D01*
%TO.N,Net-(J1-Pad20)*%
X46711000Y22860000D02*
X46830000Y22860000D01*
X46830000Y22860000D02*
X62230000Y38260000D01*
X41910000Y22860000D02*
X46711000Y22860000D01*
%TO.N,Net-(J1-Pad3)*%
X39370000Y43180000D02*
X39370000Y40640000D01*
%TO.N,Net-(J1-Pad8)*%
X62230000Y5080000D02*
X44360000Y5080000D01*
X44360000Y5080000D02*
X30024000Y19416000D01*
X30024000Y19416000D02*
X30024000Y45853000D01*
X30024000Y45853000D02*
X34725000Y50554000D01*
X34725000Y50554000D02*
X42853000Y50554000D01*
X42853000Y50554000D02*
X46711000Y46696000D01*
X46711000Y46696000D02*
X46711000Y38100000D01*
X41910000Y38100000D02*
X46711000Y38100000D01*
%TD*%
M02*
