%TF.GenerationSoftware,KiCad,Pcbnew,(5.1.9-0-10_14)*%
%TF.CreationDate,2021-05-08T08:44:35-07:00*%
%TF.ProjectId,io-board-milling,696f2d62-6f61-4726-942d-6d696c6c696e,rev?*%
%TF.SameCoordinates,PX3072580PY791ddc0*%
%TF.FileFunction,Copper,L2,Bot*%
%TF.FilePolarity,Positive*%
%FSLAX46Y46*%
G04 Gerber Fmt 4.6, Leading zero omitted, Abs format (unit mm)*
G04 Created by KiCad (PCBNEW (5.1.9-0-10_14)) date 2021-05-08 08:44:35*
%MOMM*%
%LPD*%
G01*
G04 APERTURE LIST*
%TA.AperFunction,ComponentPad*%
%ADD10O,1.500000X4.000000*%
%TD*%
%TA.AperFunction,ComponentPad*%
%ADD11R,1.500000X4.000000*%
%TD*%
%TA.AperFunction,ComponentPad*%
%ADD12O,4.000000X1.500000*%
%TD*%
%TA.AperFunction,ComponentPad*%
%ADD13R,4.000000X1.500000*%
%TD*%
%TA.AperFunction,ComponentPad*%
%ADD14O,1.400000X4.000000*%
%TD*%
%TA.AperFunction,ViaPad*%
%ADD15C,2.000000*%
%TD*%
%TA.AperFunction,Conductor*%
%ADD16C,1.143000*%
%TD*%
G04 APERTURE END LIST*
D10*
%TO.P,J19,3*%
%TO.N,/CH_C_R_IN*%
X100965000Y43180000D03*
%TO.P,J19,2*%
%TO.N,GND*%
X98425000Y43180000D03*
D11*
%TO.P,J19,1*%
%TO.N,/CH_C_L_IN*%
X95885000Y43180000D03*
%TD*%
D12*
%TO.P,J17,3*%
%TO.N,/BUS_B_R_OUT*%
X163830000Y26670000D03*
%TO.P,J17,2*%
%TO.N,GND*%
X163830000Y29210000D03*
D13*
%TO.P,J17,1*%
%TO.N,/BUS_B_L_OUT*%
X163830000Y31750000D03*
%TD*%
D14*
%TO.P,J18,20*%
%TO.N,/-_15V*%
X146685000Y31880000D03*
%TO.P,J18,18*%
%TO.N,Net-(J18-Pad18)*%
X144145000Y31880000D03*
%TO.P,J18,16*%
%TO.N,Net-(J18-Pad16)*%
X141605000Y31880000D03*
%TO.P,J18,14*%
%TO.N,Net-(J18-Pad14)*%
X139065000Y31880000D03*
%TO.P,J18,12*%
%TO.N,Net-(J18-Pad12)*%
X136525000Y31880000D03*
%TO.P,J18,10*%
%TO.N,GND*%
X133985000Y31880000D03*
%TO.P,J18,8*%
%TO.N,Net-(J18-Pad8)*%
X131445000Y31880000D03*
%TO.P,J18,6*%
%TO.N,Net-(J18-Pad6)*%
X128905000Y31880000D03*
%TO.P,J18,4*%
%TO.N,Net-(J18-Pad4)*%
X126365000Y31880000D03*
%TO.P,J18,2*%
%TO.N,/+_15V*%
X123825000Y31880000D03*
%TO.P,J18,19*%
%TO.N,/BUS_B_R_OUT*%
X146685000Y26540000D03*
%TO.P,J18,17*%
%TO.N,/BUS_B_L_OUT*%
X144145000Y26540000D03*
%TO.P,J18,15*%
%TO.N,/CH_D_R_OUT*%
X141605000Y26540000D03*
%TO.P,J18,13*%
%TO.N,/CH_D_L_OUT*%
X139065000Y26540000D03*
%TO.P,J18,11*%
%TO.N,/CH_C_R_OUT*%
X136525000Y26540000D03*
%TO.P,J18,9*%
%TO.N,/CH_C_L_OUT*%
X133985000Y26540000D03*
%TO.P,J18,7*%
%TO.N,/CH_B_R_OUT*%
X131445000Y26540000D03*
%TO.P,J18,5*%
%TO.N,/CH_B_L_OUT*%
X128905000Y26540000D03*
%TO.P,J18,3*%
%TO.N,/CH_A_R_OUT*%
X126365000Y26540000D03*
%TO.P,J18,1*%
%TO.N,/CH_A_L_OUT*%
%TA.AperFunction,ComponentPad*%
G36*
G01*
X124319200Y24540000D02*
X123330800Y24540000D01*
G75*
G02*
X123125000Y24745800I0J205800D01*
G01*
X123125000Y28334200D01*
G75*
G02*
X123330800Y28540000I205800J0D01*
G01*
X124319200Y28540000D01*
G75*
G02*
X124525000Y28334200I0J-205800D01*
G01*
X124525000Y24745800D01*
G75*
G02*
X124319200Y24540000I-205800J0D01*
G01*
G37*
%TD.AperFunction*%
%TD*%
D10*
%TO.P,J15,3*%
%TO.N,/CH_B_R_LEVEL_TERM_B*%
X58420000Y57150000D03*
%TO.P,J15,2*%
%TO.N,/CH_B_R_LEVEL_WIPER*%
X55880000Y57150000D03*
D11*
%TO.P,J15,1*%
%TO.N,/CH_B_R_LEVEL_TERM_A*%
X53340000Y57150000D03*
%TD*%
D10*
%TO.P,J13,3*%
%TO.N,Net-(J13-Pad3)*%
X81280000Y57150000D03*
%TO.P,J13,2*%
%TO.N,/CH_B_R_GAIN_WIPER*%
X78740000Y57150000D03*
D11*
%TO.P,J13,1*%
%TO.N,/CH_B_R_GAIN_TERM_A*%
X76200000Y57150000D03*
%TD*%
D10*
%TO.P,J14,3*%
%TO.N,/CH_B_LEVEL_TERM_B*%
X53340000Y72390000D03*
%TO.P,J14,2*%
%TO.N,/CH_B_L_LEVEL_WIPER*%
X55880000Y72390000D03*
D11*
%TO.P,J14,1*%
%TO.N,/CH_B_L_LEVEL_TERM_A*%
X58420000Y72390000D03*
%TD*%
D10*
%TO.P,J12,3*%
%TO.N,Net-(J12-Pad3)*%
X81280000Y72390000D03*
%TO.P,J12,2*%
%TO.N,/CH_B_L_GAIN_WIPER*%
X78740000Y72390000D03*
D11*
%TO.P,J12,1*%
%TO.N,/CH_B_L_GAIN_TERM_A*%
X76200000Y72390000D03*
%TD*%
D10*
%TO.P,J11,3*%
%TO.N,/CH_B_R_IN*%
X58420000Y43180000D03*
%TO.P,J11,2*%
%TO.N,GND*%
X55880000Y43180000D03*
D11*
%TO.P,J11,1*%
%TO.N,/CH_B_L_IN*%
X53340000Y43180000D03*
%TD*%
D12*
%TO.P,J9,3*%
%TO.N,/BUS_A_R_OUT*%
X107315000Y26670000D03*
%TO.P,J9,2*%
%TO.N,GND*%
X107315000Y29210000D03*
D13*
%TO.P,J9,1*%
%TO.N,/BUS_A_L_OUT*%
X107315000Y31750000D03*
%TD*%
D14*
%TO.P,J10,20*%
%TO.N,/-_15V*%
X92075000Y31880000D03*
%TO.P,J10,18*%
%TO.N,Net-(J10-Pad18)*%
X89535000Y31880000D03*
%TO.P,J10,16*%
%TO.N,Net-(J10-Pad16)*%
X86995000Y31880000D03*
%TO.P,J10,14*%
%TO.N,Net-(J10-Pad14)*%
X84455000Y31880000D03*
%TO.P,J10,12*%
%TO.N,Net-(J10-Pad12)*%
X81915000Y31880000D03*
%TO.P,J10,10*%
%TO.N,GND*%
X79375000Y31880000D03*
%TO.P,J10,8*%
%TO.N,Net-(J10-Pad8)*%
X76835000Y31880000D03*
%TO.P,J10,6*%
%TO.N,Net-(J10-Pad6)*%
X74295000Y31880000D03*
%TO.P,J10,4*%
%TO.N,Net-(J10-Pad4)*%
X71755000Y31880000D03*
%TO.P,J10,2*%
%TO.N,/+_15V*%
X69215000Y31880000D03*
%TO.P,J10,19*%
%TO.N,/BUS_A_R_OUT*%
X92075000Y26540000D03*
%TO.P,J10,17*%
%TO.N,/BUS_A_L_OUT*%
X89535000Y26540000D03*
%TO.P,J10,15*%
%TO.N,/CH_D_R_OUT*%
X86995000Y26540000D03*
%TO.P,J10,13*%
%TO.N,/CH_D_L_OUT*%
X84455000Y26540000D03*
%TO.P,J10,11*%
%TO.N,/CH_C_R_OUT*%
X81915000Y26540000D03*
%TO.P,J10,9*%
%TO.N,/CH_C_L_OUT*%
X79375000Y26540000D03*
%TO.P,J10,7*%
%TO.N,/CH_B_R_OUT*%
X76835000Y26540000D03*
%TO.P,J10,5*%
%TO.N,/CH_B_L_OUT*%
X74295000Y26540000D03*
%TO.P,J10,3*%
%TO.N,/CH_A_R_OUT*%
X71755000Y26540000D03*
%TO.P,J10,1*%
%TO.N,/CH_A_L_OUT*%
%TA.AperFunction,ComponentPad*%
G36*
G01*
X69709200Y24540000D02*
X68720800Y24540000D01*
G75*
G02*
X68515000Y24745800I0J205800D01*
G01*
X68515000Y28334200D01*
G75*
G02*
X68720800Y28540000I205800J0D01*
G01*
X69709200Y28540000D01*
G75*
G02*
X69915000Y28334200I0J-205800D01*
G01*
X69915000Y24745800D01*
G75*
G02*
X69709200Y24540000I-205800J0D01*
G01*
G37*
%TD.AperFunction*%
%TD*%
D10*
%TO.P,J7,3*%
%TO.N,/CH_A_R_LEVEL_TERM_B*%
X17145000Y57150000D03*
%TO.P,J7,2*%
%TO.N,/CH_A_R_LEVEL_WIPER*%
X14605000Y57150000D03*
D11*
%TO.P,J7,1*%
%TO.N,/CH_A_R_LEVEL_TERM_A*%
X12065000Y57150000D03*
%TD*%
D10*
%TO.P,J6,3*%
%TO.N,/CH_A_LEVEL_TERM_B*%
X11430000Y72390000D03*
%TO.P,J6,2*%
%TO.N,/CH_A_L_LEVEL_WIPER*%
X13970000Y72390000D03*
D11*
%TO.P,J6,1*%
%TO.N,/CH_A_L_LEVEL_TERM_A*%
X16510000Y72390000D03*
%TD*%
D10*
%TO.P,J5,3*%
%TO.N,Net-(J5-Pad3)*%
X38735000Y57150000D03*
%TO.P,J5,2*%
%TO.N,/CH_A_R_GAIN_WIPER*%
X36195000Y57150000D03*
D11*
%TO.P,J5,1*%
%TO.N,/CH_A_R_GAIN_TERM_A*%
X33655000Y57150000D03*
%TD*%
D10*
%TO.P,J4,3*%
%TO.N,Net-(J4-Pad3)*%
X38735000Y72390000D03*
%TO.P,J4,2*%
%TO.N,/CH_A_L_GAIN_WIPER*%
X36195000Y72390000D03*
D11*
%TO.P,J4,1*%
%TO.N,/CH_A_L_GAIN_TERM_A*%
X33655000Y72390000D03*
%TD*%
D10*
%TO.P,J3,3*%
%TO.N,/CH_A_R_IN*%
X12700000Y43180000D03*
%TO.P,J3,2*%
%TO.N,GND*%
X15240000Y43180000D03*
D11*
%TO.P,J3,1*%
%TO.N,/CH_A_L_IN*%
X17780000Y43180000D03*
%TD*%
D14*
%TO.P,J2,20*%
%TO.N,/-_15V*%
X37465000Y31880000D03*
%TO.P,J2,18*%
%TO.N,Net-(J2-Pad18)*%
X34925000Y31880000D03*
%TO.P,J2,16*%
%TO.N,Net-(J2-Pad16)*%
X32385000Y31880000D03*
%TO.P,J2,14*%
%TO.N,Net-(J2-Pad14)*%
X29845000Y31880000D03*
%TO.P,J2,12*%
%TO.N,Net-(J2-Pad12)*%
X27305000Y31880000D03*
%TO.P,J2,10*%
%TO.N,GND*%
X24765000Y31880000D03*
%TO.P,J2,8*%
%TO.N,Net-(J2-Pad8)*%
X22225000Y31880000D03*
%TO.P,J2,6*%
%TO.N,Net-(J2-Pad6)*%
X19685000Y31880000D03*
%TO.P,J2,4*%
%TO.N,Net-(J2-Pad4)*%
X17145000Y31880000D03*
%TO.P,J2,2*%
%TO.N,/+_15V*%
X14605000Y31880000D03*
%TO.P,J2,19*%
%TO.N,/ST_R_OUT*%
X37465000Y26540000D03*
%TO.P,J2,17*%
%TO.N,/ST_L_OUT*%
X34925000Y26540000D03*
%TO.P,J2,15*%
%TO.N,/CH_D_R_OUT*%
X32385000Y26540000D03*
%TO.P,J2,13*%
%TO.N,/CH_D_L_OUT*%
X29845000Y26540000D03*
%TO.P,J2,11*%
%TO.N,/CH_C_R_OUT*%
X27305000Y26540000D03*
%TO.P,J2,9*%
%TO.N,/CH_C_L_OUT*%
X24765000Y26540000D03*
%TO.P,J2,7*%
%TO.N,/CH_B_R_OUT*%
X22225000Y26540000D03*
%TO.P,J2,5*%
%TO.N,/CH_B_L_OUT*%
X19685000Y26540000D03*
%TO.P,J2,3*%
%TO.N,/CH_A_R_OUT*%
X17145000Y26540000D03*
%TO.P,J2,1*%
%TO.N,/CH_A_L_OUT*%
%TA.AperFunction,ComponentPad*%
G36*
G01*
X15099200Y24540000D02*
X14110800Y24540000D01*
G75*
G02*
X13905000Y24745800I0J205800D01*
G01*
X13905000Y28334200D01*
G75*
G02*
X14110800Y28540000I205800J0D01*
G01*
X15099200Y28540000D01*
G75*
G02*
X15305000Y28334200I0J-205800D01*
G01*
X15305000Y24745800D01*
G75*
G02*
X15099200Y24540000I-205800J0D01*
G01*
G37*
%TD.AperFunction*%
%TD*%
%TO.P,J16,20*%
%TO.N,/-_15V*%
X78740000Y91570000D03*
%TO.P,J16,18*%
%TO.N,/CH_B_R_GAIN_TERM_A*%
X76200000Y91570000D03*
%TO.P,J16,16*%
%TO.N,/CH_B_R_GAIN_WIPER*%
X73660000Y91570000D03*
%TO.P,J16,14*%
%TO.N,/CH_B_L_GAIN_TERM_A*%
X71120000Y91570000D03*
%TO.P,J16,12*%
%TO.N,/CH_B_L_GAIN_WIPER*%
X68580000Y91570000D03*
%TO.P,J16,10*%
%TO.N,GND*%
X66040000Y91570000D03*
%TO.P,J16,8*%
%TO.N,/CH_B_R_IN*%
X63500000Y91570000D03*
%TO.P,J16,6*%
%TO.N,/CH_B_L_IN*%
X60960000Y91570000D03*
%TO.P,J16,4*%
%TO.N,Net-(J16-Pad4)*%
X58420000Y91570000D03*
%TO.P,J16,2*%
%TO.N,/+_15V*%
X55880000Y91570000D03*
%TO.P,J16,19*%
%TO.N,Net-(J16-Pad19)*%
X78740000Y86230000D03*
%TO.P,J16,17*%
%TO.N,Net-(J16-Pad17)*%
X76200000Y86230000D03*
%TO.P,J16,15*%
%TO.N,/CH_B_R_LEVEL_TERM_B*%
X73660000Y86230000D03*
%TO.P,J16,13*%
%TO.N,/CH_B_R_OUT*%
X71120000Y86230000D03*
%TO.P,J16,11*%
%TO.N,/CH_B_R_LEVEL_WIPER*%
X68580000Y86230000D03*
%TO.P,J16,9*%
%TO.N,/CH_B_R_LEVEL_TERM_A*%
X66040000Y86230000D03*
%TO.P,J16,7*%
%TO.N,/CH_B_LEVEL_TERM_B*%
X63500000Y86230000D03*
%TO.P,J16,5*%
%TO.N,/CH_B_L_OUT*%
X60960000Y86230000D03*
%TO.P,J16,3*%
%TO.N,/CH_B_L_LEVEL_WIPER*%
X58420000Y86230000D03*
%TO.P,J16,1*%
%TO.N,/CH_B_L_LEVEL_TERM_A*%
%TA.AperFunction,ComponentPad*%
G36*
G01*
X56374200Y84230000D02*
X55385800Y84230000D01*
G75*
G02*
X55180000Y84435800I0J205800D01*
G01*
X55180000Y88024200D01*
G75*
G02*
X55385800Y88230000I205800J0D01*
G01*
X56374200Y88230000D01*
G75*
G02*
X56580000Y88024200I0J-205800D01*
G01*
X56580000Y84435800D01*
G75*
G02*
X56374200Y84230000I-205800J0D01*
G01*
G37*
%TD.AperFunction*%
%TD*%
%TO.P,Jr,20*%
%TO.N,/-_15V*%
X36195000Y91570000D03*
%TO.P,Jr,18*%
%TO.N,/CH_A_R_GAIN_TERM_A*%
X33655000Y91570000D03*
%TO.P,Jr,16*%
%TO.N,/CH_A_R_GAIN_WIPER*%
X31115000Y91570000D03*
%TO.P,Jr,14*%
%TO.N,/CH_A_L_GAIN_TERM_A*%
X28575000Y91570000D03*
%TO.P,Jr,12*%
%TO.N,/CH_A_L_GAIN_WIPER*%
X26035000Y91570000D03*
%TO.P,Jr,10*%
%TO.N,GND*%
X23495000Y91570000D03*
%TO.P,Jr,8*%
%TO.N,/CH_A_R_IN*%
X20955000Y91570000D03*
%TO.P,Jr,6*%
%TO.N,/CH_A_L_IN*%
X18415000Y91570000D03*
%TO.P,Jr,4*%
%TO.N,Net-(J8-Pad4)*%
X15875000Y91570000D03*
%TO.P,Jr,2*%
%TO.N,/+_15V*%
X13335000Y91570000D03*
%TO.P,Jr,19*%
%TO.N,Net-(J8-Pad19)*%
X36195000Y86230000D03*
%TO.P,Jr,17*%
%TO.N,Net-(J8-Pad17)*%
X33655000Y86230000D03*
%TO.P,Jr,15*%
%TO.N,/CH_A_R_LEVEL_TERM_B*%
X31115000Y86230000D03*
%TO.P,Jr,13*%
%TO.N,/CH_A_R_OUT*%
X28575000Y86230000D03*
%TO.P,Jr,11*%
%TO.N,/CH_A_R_LEVEL_WIPER*%
X26035000Y86230000D03*
%TO.P,Jr,9*%
%TO.N,/CH_A_R_LEVEL_TERM_A*%
X23495000Y86230000D03*
%TO.P,Jr,7*%
%TO.N,/CH_A_LEVEL_TERM_B*%
X20955000Y86230000D03*
%TO.P,Jr,5*%
%TO.N,/CH_A_L_OUT*%
X18415000Y86230000D03*
%TO.P,Jr,3*%
%TO.N,/CH_A_L_LEVEL_WIPER*%
X15875000Y86230000D03*
%TO.P,Jr,1*%
%TO.N,/CH_A_L_LEVEL_TERM_A*%
%TA.AperFunction,ComponentPad*%
G36*
G01*
X13829200Y84230000D02*
X12840800Y84230000D01*
G75*
G02*
X12635000Y84435800I0J205800D01*
G01*
X12635000Y88024200D01*
G75*
G02*
X12840800Y88230000I205800J0D01*
G01*
X13829200Y88230000D01*
G75*
G02*
X14035000Y88024200I0J-205800D01*
G01*
X14035000Y84435800D01*
G75*
G02*
X13829200Y84230000I-205800J0D01*
G01*
G37*
%TD.AperFunction*%
%TD*%
D12*
%TO.P,J1,3*%
%TO.N,/ST_R_OUT*%
X52705000Y31750000D03*
%TO.P,J1,2*%
%TO.N,GND*%
X52705000Y29210000D03*
D13*
%TO.P,J1,1*%
%TO.N,/ST_L_OUT*%
X52705000Y26670000D03*
%TD*%
D10*
%TO.P,J20,3*%
%TO.N,Net-(J20-Pad3)*%
X123825000Y72390000D03*
%TO.P,J20,2*%
%TO.N,/CH_C_L_GAIN_WIPER*%
X121285000Y72390000D03*
D11*
%TO.P,J20,1*%
%TO.N,/CH_C_L_GAIN_TERM_A*%
X118745000Y72390000D03*
%TD*%
D10*
%TO.P,J21,3*%
%TO.N,Net-(J21-Pad3)*%
X124460000Y57150000D03*
%TO.P,J21,2*%
%TO.N,/CH_C_R_GAIN_WIPER*%
X121920000Y57150000D03*
D11*
%TO.P,J21,1*%
%TO.N,/CH_C_R_GAIN_TERM_A*%
X119380000Y57150000D03*
%TD*%
D10*
%TO.P,J22,3*%
%TO.N,/CH_C_LEVEL_TERM_B*%
X95885000Y72390000D03*
%TO.P,J22,2*%
%TO.N,/CH_C_L_LEVEL_WIPER*%
X98425000Y72390000D03*
D11*
%TO.P,J22,1*%
%TO.N,/CH_C_L_LEVEL_TERM_A*%
X100965000Y72390000D03*
%TD*%
D10*
%TO.P,J23,3*%
%TO.N,/CH_C_R_LEVEL_TERM_B*%
X100965000Y57150000D03*
%TO.P,J23,2*%
%TO.N,/CH_C_R_LEVEL_WIPER*%
X98425000Y57150000D03*
D11*
%TO.P,J23,1*%
%TO.N,/CH_C_R_LEVEL_TERM_A*%
X95885000Y57150000D03*
%TD*%
D14*
%TO.P,J24,20*%
%TO.N,/-_15V*%
X121285000Y91570000D03*
%TO.P,J24,18*%
%TO.N,/CH_C_R_GAIN_TERM_A*%
X118745000Y91570000D03*
%TO.P,J24,16*%
%TO.N,/CH_C_R_GAIN_WIPER*%
X116205000Y91570000D03*
%TO.P,J24,14*%
%TO.N,/CH_C_L_GAIN_TERM_A*%
X113665000Y91570000D03*
%TO.P,J24,12*%
%TO.N,/CH_C_L_GAIN_WIPER*%
X111125000Y91570000D03*
%TO.P,J24,10*%
%TO.N,GND*%
X108585000Y91570000D03*
%TO.P,J24,8*%
%TO.N,/CH_C_R_IN*%
X106045000Y91570000D03*
%TO.P,J24,6*%
%TO.N,/CH_C_L_IN*%
X103505000Y91570000D03*
%TO.P,J24,4*%
%TO.N,Net-(J24-Pad4)*%
X100965000Y91570000D03*
%TO.P,J24,2*%
%TO.N,/+_15V*%
X98425000Y91570000D03*
%TO.P,J24,19*%
%TO.N,Net-(J24-Pad19)*%
X121285000Y86230000D03*
%TO.P,J24,17*%
%TO.N,Net-(J24-Pad17)*%
X118745000Y86230000D03*
%TO.P,J24,15*%
%TO.N,/CH_C_R_LEVEL_TERM_B*%
X116205000Y86230000D03*
%TO.P,J24,13*%
%TO.N,/CH_C_R_OUT*%
X113665000Y86230000D03*
%TO.P,J24,11*%
%TO.N,/CH_C_R_LEVEL_WIPER*%
X111125000Y86230000D03*
%TO.P,J24,9*%
%TO.N,/CH_C_R_LEVEL_TERM_A*%
X108585000Y86230000D03*
%TO.P,J24,7*%
%TO.N,/CH_C_LEVEL_TERM_B*%
X106045000Y86230000D03*
%TO.P,J24,5*%
%TO.N,/CH_C_L_OUT*%
X103505000Y86230000D03*
%TO.P,J24,3*%
%TO.N,/CH_C_L_LEVEL_WIPER*%
X100965000Y86230000D03*
%TO.P,J24,1*%
%TO.N,/CH_C_L_LEVEL_TERM_A*%
%TA.AperFunction,ComponentPad*%
G36*
G01*
X98919200Y84230000D02*
X97930800Y84230000D01*
G75*
G02*
X97725000Y84435800I0J205800D01*
G01*
X97725000Y88024200D01*
G75*
G02*
X97930800Y88230000I205800J0D01*
G01*
X98919200Y88230000D01*
G75*
G02*
X99125000Y88024200I0J-205800D01*
G01*
X99125000Y84435800D01*
G75*
G02*
X98919200Y84230000I-205800J0D01*
G01*
G37*
%TD.AperFunction*%
%TD*%
D10*
%TO.P,J25,3*%
%TO.N,/CH_D_R_IN*%
X144145000Y43180000D03*
%TO.P,J25,2*%
%TO.N,GND*%
X141605000Y43180000D03*
D11*
%TO.P,J25,1*%
%TO.N,/CH_D_L_IN*%
X139065000Y43180000D03*
%TD*%
D10*
%TO.P,J26,3*%
%TO.N,Net-(J26-Pad3)*%
X167005000Y72390000D03*
%TO.P,J26,2*%
%TO.N,/CH_D_L_GAIN_WIPER*%
X164465000Y72390000D03*
D11*
%TO.P,J26,1*%
%TO.N,/CH_D_L_GAIN_TERM_A*%
X161925000Y72390000D03*
%TD*%
D10*
%TO.P,J27,3*%
%TO.N,Net-(J27-Pad3)*%
X167005000Y57150000D03*
%TO.P,J27,2*%
%TO.N,/CH_D_R_GAIN_WIPER*%
X164465000Y57150000D03*
D11*
%TO.P,J27,1*%
%TO.N,/CH_D_R_GAIN_TERM_A*%
X161925000Y57150000D03*
%TD*%
D10*
%TO.P,J28,3*%
%TO.N,/CH_D_LEVEL_TERM_B*%
X139065000Y72390000D03*
%TO.P,J28,2*%
%TO.N,/CH_D_L_LEVEL_WIPER*%
X141605000Y72390000D03*
D11*
%TO.P,J28,1*%
%TO.N,/CH_D_L_LEVEL_TERM_A*%
X144145000Y72390000D03*
%TD*%
D10*
%TO.P,J29,3*%
%TO.N,/CH_D_R_LEVEL_TERM_B*%
X144145000Y57150000D03*
%TO.P,J29,2*%
%TO.N,/CH_D_R_LEVEL_WIPER*%
X141605000Y57150000D03*
D11*
%TO.P,J29,1*%
%TO.N,/CH_D_R_LEVEL_TERM_A*%
X139065000Y57150000D03*
%TD*%
D14*
%TO.P,J30,20*%
%TO.N,/-_15V*%
X164465000Y91570000D03*
%TO.P,J30,18*%
%TO.N,/CH_D_R_GAIN_TERM_A*%
X161925000Y91570000D03*
%TO.P,J30,16*%
%TO.N,/CH_D_R_GAIN_WIPER*%
X159385000Y91570000D03*
%TO.P,J30,14*%
%TO.N,/CH_D_L_GAIN_TERM_A*%
X156845000Y91570000D03*
%TO.P,J30,12*%
%TO.N,/CH_D_L_GAIN_WIPER*%
X154305000Y91570000D03*
%TO.P,J30,10*%
%TO.N,GND*%
X151765000Y91570000D03*
%TO.P,J30,8*%
%TO.N,/CH_D_R_IN*%
X149225000Y91570000D03*
%TO.P,J30,6*%
%TO.N,/CH_D_L_IN*%
X146685000Y91570000D03*
%TO.P,J30,4*%
%TO.N,Net-(J30-Pad4)*%
X144145000Y91570000D03*
%TO.P,J30,2*%
%TO.N,/+_15V*%
X141605000Y91570000D03*
%TO.P,J30,19*%
%TO.N,Net-(J30-Pad19)*%
X164465000Y86230000D03*
%TO.P,J30,17*%
%TO.N,Net-(J30-Pad17)*%
X161925000Y86230000D03*
%TO.P,J30,15*%
%TO.N,/CH_D_R_LEVEL_TERM_B*%
X159385000Y86230000D03*
%TO.P,J30,13*%
%TO.N,/CH_D_R_OUT*%
X156845000Y86230000D03*
%TO.P,J30,11*%
%TO.N,/CH_D_R_LEVEL_WIPER*%
X154305000Y86230000D03*
%TO.P,J30,9*%
%TO.N,/CH_D_R_LEVEL_TERM_A*%
X151765000Y86230000D03*
%TO.P,J30,7*%
%TO.N,/CH_D_LEVEL_TERM_B*%
X149225000Y86230000D03*
%TO.P,J30,5*%
%TO.N,/CH_D_L_OUT*%
X146685000Y86230000D03*
%TO.P,J30,3*%
%TO.N,/CH_D_L_LEVEL_WIPER*%
X144145000Y86230000D03*
%TO.P,J30,1*%
%TO.N,/CH_D_L_LEVEL_TERM_A*%
%TA.AperFunction,ComponentPad*%
G36*
G01*
X142099200Y84230000D02*
X141110800Y84230000D01*
G75*
G02*
X140905000Y84435800I0J205800D01*
G01*
X140905000Y88024200D01*
G75*
G02*
X141110800Y88230000I205800J0D01*
G01*
X142099200Y88230000D01*
G75*
G02*
X142305000Y88024200I0J-205800D01*
G01*
X142305000Y84435800D01*
G75*
G02*
X142099200Y84230000I-205800J0D01*
G01*
G37*
%TD.AperFunction*%
%TD*%
D10*
%TO.P,J31,3*%
%TO.N,/+_15V*%
X167005000Y43180000D03*
%TO.P,J31,2*%
%TO.N,GND*%
X164465000Y43180000D03*
D11*
%TO.P,J31,1*%
%TO.N,/-_15V*%
X161925000Y43180000D03*
%TD*%
D15*
%TO.N,/CH_A_L_OUT*%
X118663200Y22778200D03*
%TO.N,/CH_B_L_OUT*%
X49574700Y23620000D03*
X101296800Y12374200D03*
%TO.N,/CH_C_L_OUT*%
X85312100Y14895300D03*
%TO.N,/CH_D_L_OUT*%
X114810300Y14435900D03*
X86980200Y20543200D03*
%TO.N,/-_15V*%
X44553700Y42772800D03*
X73297300Y39503300D03*
%TO.N,/CH_A_R_OUT*%
X11911200Y36413000D03*
X112745800Y20201600D03*
X76309600Y8640000D03*
%TO.N,/CH_B_R_OUT*%
X48977200Y47837100D03*
X44765000Y23082700D03*
X96443300Y12936900D03*
%TO.N,/CH_C_R_OUT*%
X84895900Y18239000D03*
X111172500Y70536200D03*
%TO.N,/CH_D_R_OUT*%
X120428300Y17385200D03*
X142032200Y20481100D03*
%TO.N,/+_15V*%
X132912900Y42514200D03*
%TO.N,/CH_B_L_IN*%
X52316100Y78607100D03*
%TO.N,/CH_C_R_GAIN_WIPER*%
X127880100Y78705400D03*
%TO.N,/CH_D_L_IN*%
X140445900Y97671500D03*
%TD*%
D16*
%TO.N,GND*%
X52705000Y29210000D02*
X56176600Y29210000D01*
X59239200Y36349200D02*
X55880000Y39708400D01*
X79375000Y35351500D02*
X78377300Y36349200D01*
X78377300Y36349200D02*
X59239200Y36349200D01*
X56176600Y29210000D02*
X56176600Y33286600D01*
X56176600Y33286600D02*
X59239200Y36349200D01*
X55880000Y43180000D02*
X55880000Y39708400D01*
X79375000Y35351500D02*
X86241200Y42217700D01*
X86241200Y42217700D02*
X88238100Y42217700D01*
X79375000Y34840800D02*
X79375000Y35351500D01*
X66040000Y95041600D02*
X63986100Y97095500D01*
X63986100Y97095500D02*
X25548900Y97095500D01*
X25548900Y97095500D02*
X23495000Y95041600D01*
X79375000Y30480000D02*
X79375000Y34840800D01*
X103248700Y37629000D02*
X92826800Y37629000D01*
X92826800Y37629000D02*
X88238100Y42217700D01*
X88238100Y42217700D02*
X88238100Y96411100D01*
X141605000Y43180000D02*
X141605000Y39708400D01*
X133985000Y30480000D02*
X133985000Y35351600D01*
X133985000Y35351600D02*
X137248200Y35351600D01*
X137248200Y35351600D02*
X141605000Y39708400D01*
X15240000Y43180000D02*
X15240000Y39708400D01*
X24765000Y30480000D02*
X24765000Y35351600D01*
X24765000Y35351600D02*
X19596800Y35351600D01*
X19596800Y35351600D02*
X15240000Y39708400D01*
X23495000Y90170000D02*
X23495000Y95041600D01*
X88238100Y96411100D02*
X85521400Y99127800D01*
X85521400Y99127800D02*
X70126200Y99127800D01*
X70126200Y99127800D02*
X66040000Y95041600D01*
X108749800Y95612100D02*
X105195300Y99166600D01*
X105195300Y99166600D02*
X90993600Y99166600D01*
X90993600Y99166600D02*
X88238100Y96411100D01*
X151765000Y90170000D02*
X151765000Y95442300D01*
X151765000Y95442300D02*
X145998700Y101208600D01*
X145998700Y101208600D02*
X114346300Y101208600D01*
X114346300Y101208600D02*
X108749800Y95612100D01*
X103248700Y37629000D02*
X103248700Y45333600D01*
X103248700Y45333600D02*
X101930700Y46651600D01*
X101930700Y46651600D02*
X98425000Y46651600D01*
X110786600Y29210000D02*
X110786600Y33159900D01*
X110786600Y33159900D02*
X106317500Y37629000D01*
X106317500Y37629000D02*
X103248700Y37629000D01*
X98425000Y43180000D02*
X98425000Y46651600D01*
X107315000Y29210000D02*
X110786600Y29210000D01*
X163830000Y29210000D02*
X160358400Y29210000D01*
X164465000Y43180000D02*
X164465000Y39708400D01*
X164465000Y39708400D02*
X160358400Y35601800D01*
X160358400Y35601800D02*
X160358400Y29210000D01*
X108749800Y95612100D02*
X108585000Y95447300D01*
X108585000Y95447300D02*
X108585000Y90170000D01*
X66040000Y90170000D02*
X66040000Y95041600D01*
%TO.N,/CH_A_L_OUT*%
X18415000Y87630000D02*
X18415000Y84352000D01*
X18415000Y84352000D02*
X20796100Y81970900D01*
X20796100Y81970900D02*
X20796100Y68876200D01*
X20796100Y68876200D02*
X13575900Y61656000D01*
X13575900Y61656000D02*
X11682400Y61656000D01*
X11682400Y61656000D02*
X8365100Y58338700D01*
X8365100Y58338700D02*
X8365100Y33654700D01*
X8365100Y33654700D02*
X14079800Y27940000D01*
X14079800Y27940000D02*
X14605000Y27940000D01*
X61405900Y20048400D02*
X75285900Y6168400D01*
X75285900Y6168400D02*
X102263200Y6168400D01*
X102263200Y6168400D02*
X118663200Y22568400D01*
X118663200Y22568400D02*
X118663200Y22778200D01*
X14605000Y27940000D02*
X14605000Y24676200D01*
X14605000Y24676200D02*
X20759600Y18521600D01*
X20759600Y18521600D02*
X59879100Y18521600D01*
X59879100Y18521600D02*
X61405900Y20048400D01*
X69215000Y27940000D02*
X61405900Y20130900D01*
X61405900Y20130900D02*
X61405900Y20048400D01*
%TO.N,/CH_B_L_OUT*%
X49181300Y23620000D02*
X49181300Y44545800D01*
X49181300Y44545800D02*
X51469300Y46833800D01*
X51469300Y46833800D02*
X51469300Y48989400D01*
X51469300Y48989400D02*
X51109900Y49348800D01*
X51109900Y49348800D02*
X51109900Y59781100D01*
X51109900Y59781100D02*
X56450300Y65121500D01*
X56450300Y65121500D02*
X58935000Y65121500D01*
X58935000Y65121500D02*
X62717100Y68903600D01*
X62717100Y68903600D02*
X62717100Y82518500D01*
X62717100Y82518500D02*
X60960000Y84275600D01*
X60960000Y84275600D02*
X60960000Y87630000D01*
X49181300Y23620000D02*
X46172400Y20611100D01*
X46172400Y20611100D02*
X22142300Y20611100D01*
X22142300Y20611100D02*
X19685000Y23068400D01*
X49181300Y23620000D02*
X49574700Y23620000D01*
X19685000Y27940000D02*
X19685000Y23068400D01*
X74295000Y27940000D02*
X74295000Y19476800D01*
X74295000Y19476800D02*
X83398700Y10373100D01*
X83398700Y10373100D02*
X99295700Y10373100D01*
X99295700Y10373100D02*
X101296800Y12374200D01*
%TO.N,/CH_C_L_OUT*%
X79375000Y27940000D02*
X79375000Y20264600D01*
X79375000Y20264600D02*
X84180100Y15459500D01*
X84180100Y15459500D02*
X85312100Y15459500D01*
X115757700Y27816800D02*
X103400400Y15459500D01*
X103400400Y15459500D02*
X85312100Y15459500D01*
X85312100Y15459500D02*
X85312100Y14895300D01*
X133985000Y23068400D02*
X133953200Y23036600D01*
X133953200Y23036600D02*
X122244400Y23036600D01*
X122244400Y23036600D02*
X117464200Y27816800D01*
X117464200Y27816800D02*
X115757700Y27816800D01*
X133985000Y27940000D02*
X133985000Y23068400D01*
X103505000Y82758400D02*
X113825100Y72438300D01*
X113825100Y72438300D02*
X113825100Y53853600D01*
X113825100Y53853600D02*
X115757700Y51921000D01*
X115757700Y51921000D02*
X115757700Y27816800D01*
X103505000Y87630000D02*
X103505000Y82758400D01*
%TO.N,/CH_D_L_OUT*%
X139065000Y23068400D02*
X135857200Y19860600D01*
X135857200Y19860600D02*
X119371000Y19860600D01*
X119371000Y19860600D02*
X114810300Y15299900D01*
X114810300Y15299900D02*
X114810300Y14435900D01*
X146685000Y87630000D02*
X146685000Y84264900D01*
X146685000Y84264900D02*
X148919400Y82030500D01*
X148919400Y82030500D02*
X148919400Y24381200D01*
X148919400Y24381200D02*
X147606600Y23068400D01*
X147606600Y23068400D02*
X139065000Y23068400D01*
X86980200Y20543200D02*
X84455000Y23068400D01*
X84455000Y27940000D02*
X84455000Y23068400D01*
X139065000Y27940000D02*
X139065000Y23068400D01*
%TO.N,/-_15V*%
X41549100Y42772800D02*
X31417200Y52904700D01*
X31417200Y52904700D02*
X31417200Y77040300D01*
X31417200Y77040300D02*
X38374900Y83998000D01*
X38374900Y83998000D02*
X38374900Y88479300D01*
X38374900Y88479300D02*
X36684200Y90170000D01*
X36684200Y90170000D02*
X36195000Y90170000D01*
X44553700Y42772800D02*
X41549100Y42772800D01*
X37465000Y35351600D02*
X37465000Y38688700D01*
X37465000Y38688700D02*
X41549100Y42772800D01*
X78740000Y90170000D02*
X79234300Y90170000D01*
X79234300Y90170000D02*
X80918700Y88485600D01*
X80918700Y88485600D02*
X80918700Y81997900D01*
X80918700Y81997900D02*
X73297400Y74376600D01*
X73297400Y74376600D02*
X73297400Y39503300D01*
X73297400Y39503300D02*
X73297300Y39503300D01*
X37465000Y30480000D02*
X37465000Y35351600D01*
X161925000Y43180000D02*
X159703400Y43180000D01*
X164465000Y90170000D02*
X164919400Y90170000D01*
X164919400Y90170000D02*
X166661400Y88428000D01*
X166661400Y88428000D02*
X166661400Y84046100D01*
X166661400Y84046100D02*
X159703400Y77088100D01*
X159703400Y77088100D02*
X159703400Y43180000D01*
%TO.N,/CH_A_R_OUT*%
X28575000Y87630000D02*
X28575000Y63726700D01*
X28575000Y63726700D02*
X10459400Y45611100D01*
X10459400Y45611100D02*
X10459400Y37864800D01*
X10459400Y37864800D02*
X11911200Y36413000D01*
X76309600Y8640000D02*
X76681200Y8268400D01*
X76681200Y8268400D02*
X100812600Y8268400D01*
X100812600Y8268400D02*
X112745800Y20201600D01*
X71755000Y27940000D02*
X71755000Y13194600D01*
X71755000Y13194600D02*
X76309600Y8640000D01*
%TO.N,/CH_B_R_OUT*%
X41606700Y26241100D02*
X38415200Y23049600D01*
X38415200Y23049600D02*
X23865100Y23049600D01*
X23865100Y23049600D02*
X22225000Y24689700D01*
X22225000Y24689700D02*
X22225000Y27940000D01*
X44765000Y23082700D02*
X41606700Y26241100D01*
X48977200Y47837100D02*
X47103000Y45962900D01*
X47103000Y45962900D02*
X47103000Y31737400D01*
X47103000Y31737400D02*
X41606700Y26241100D01*
X76835000Y27940000D02*
X76835000Y19875700D01*
X76835000Y19875700D02*
X84294400Y12416300D01*
X84294400Y12416300D02*
X95922700Y12416300D01*
X95922700Y12416300D02*
X96443300Y12936900D01*
%TO.N,/CH_C_R_OUT*%
X111172500Y70536200D02*
X111172500Y53616900D01*
X111172500Y53616900D02*
X112846000Y51943400D01*
X112846000Y51943400D02*
X112846000Y27806900D01*
X112846000Y27806900D02*
X103110700Y18071600D01*
X103110700Y18071600D02*
X85063300Y18071600D01*
X85063300Y18071600D02*
X84895900Y18239000D01*
X81915000Y27940000D02*
X81915000Y21219900D01*
X81915000Y21219900D02*
X84895900Y18239000D01*
%TO.N,/CH_D_R_OUT*%
X142032200Y20481100D02*
X138936300Y17385200D01*
X138936300Y17385200D02*
X120428300Y17385200D01*
X156845000Y87630000D02*
X156845000Y29415800D01*
X156845000Y29415800D02*
X147910300Y20481100D01*
X147910300Y20481100D02*
X142032200Y20481100D01*
%TO.N,/+_15V*%
X123825000Y30480000D02*
X123825000Y35351600D01*
X132912900Y42514200D02*
X130987600Y42514200D01*
X130987600Y42514200D02*
X123825000Y35351600D01*
%TO.N,/CH_A_R_GAIN_WIPER*%
X31115000Y90170000D02*
X31115000Y95041600D01*
X31115000Y95041600D02*
X37133100Y95041600D01*
X37133100Y95041600D02*
X41014200Y91160500D01*
X41014200Y91160500D02*
X41014200Y69024900D01*
X41014200Y69024900D02*
X36195000Y64205700D01*
X36195000Y64205700D02*
X36195000Y57150000D01*
%TO.N,/CH_A_L_LEVEL_TERM_A*%
X13335000Y87630000D02*
X13335000Y81843900D01*
X13335000Y81843900D02*
X16510000Y78668900D01*
X16510000Y78668900D02*
X16510000Y72390000D01*
%TO.N,/CH_A_L_LEVEL_WIPER*%
X13970000Y72390000D02*
X13970000Y68918400D01*
X15875000Y87630000D02*
X15875000Y82758400D01*
X15875000Y82758400D02*
X18731700Y79901700D01*
X18731700Y79901700D02*
X18731700Y69773700D01*
X18731700Y69773700D02*
X17876400Y68918400D01*
X17876400Y68918400D02*
X13970000Y68918400D01*
%TO.N,/BUS_A_L_OUT*%
X89535000Y27940000D02*
X89535000Y23068400D01*
X89535000Y23068400D02*
X93013700Y23068400D01*
X93013700Y23068400D02*
X101695300Y31750000D01*
X101695300Y31750000D02*
X107315000Y31750000D01*
%TO.N,/CH_B_L_IN*%
X60960000Y90170000D02*
X60960000Y95041600D01*
X60960000Y95041600D02*
X54914500Y95041600D01*
X54914500Y95041600D02*
X52316100Y92443200D01*
X52316100Y92443200D02*
X52316100Y78607100D01*
%TO.N,/CH_B_R_GAIN_TERM_A*%
X76200000Y57150000D02*
X76200000Y62918100D01*
X76200000Y62918100D02*
X83501600Y70219700D01*
X83501600Y70219700D02*
X83501600Y91187700D01*
X83501600Y91187700D02*
X79647700Y95041600D01*
X79647700Y95041600D02*
X76200000Y95041600D01*
X76200000Y90170000D02*
X76200000Y95041600D01*
%TO.N,/CH_B_R_GAIN_WIPER*%
X78740000Y57150000D02*
X78740000Y62568800D01*
X78740000Y62568800D02*
X85544700Y69373500D01*
X85544700Y69373500D02*
X85544700Y92033900D01*
X85544700Y92033900D02*
X80493900Y97084700D01*
X80493900Y97084700D02*
X75353800Y97084700D01*
X75353800Y97084700D02*
X73660000Y95390900D01*
X73660000Y95390900D02*
X73660000Y95041600D01*
X73660000Y90170000D02*
X73660000Y95041600D01*
%TO.N,/CH_B_L_LEVEL_WIPER*%
X58420000Y82758400D02*
X60670200Y80508200D01*
X60670200Y80508200D02*
X60670200Y69795300D01*
X60670200Y69795300D02*
X59793300Y68918400D01*
X59793300Y68918400D02*
X55880000Y68918400D01*
X55880000Y72390000D02*
X55880000Y68918400D01*
X58420000Y87630000D02*
X58420000Y82758400D01*
%TO.N,/CH_B_L_LEVEL_TERM_A*%
X58420000Y72390000D02*
X58420000Y75861600D01*
X55880000Y87630000D02*
X55880000Y78401600D01*
X55880000Y78401600D02*
X58420000Y75861600D01*
%TO.N,/CH_B_R_LEVEL_WIPER*%
X55880000Y57150000D02*
X55880000Y60621600D01*
X68580000Y87630000D02*
X68580000Y82758400D01*
X68580000Y82758400D02*
X66519100Y80697500D01*
X66519100Y80697500D02*
X66519100Y69785800D01*
X66519100Y69785800D02*
X57354900Y60621600D01*
X57354900Y60621600D02*
X55880000Y60621600D01*
%TO.N,/CH_B_R_LEVEL_TERM_B*%
X60641600Y57150000D02*
X68876100Y65384500D01*
X68876100Y65384500D02*
X68876100Y77974500D01*
X68876100Y77974500D02*
X73660000Y82758400D01*
X58420000Y57150000D02*
X60641600Y57150000D01*
X73660000Y87630000D02*
X73660000Y82758400D01*
%TO.N,/CH_C_R_IN*%
X100965000Y39708400D02*
X94492300Y39708400D01*
X94492300Y39708400D02*
X91562000Y42638700D01*
X91562000Y42638700D02*
X91562000Y92024800D01*
X91562000Y92024800D02*
X96629900Y97092700D01*
X96629900Y97092700D02*
X104379700Y97092700D01*
X104379700Y97092700D02*
X106045000Y95427400D01*
X106045000Y95427400D02*
X106045000Y90170000D01*
X100965000Y43180000D02*
X100965000Y39708400D01*
%TO.N,/CH_C_L_IN*%
X95885000Y43180000D02*
X93663300Y45401700D01*
X93663300Y45401700D02*
X93663300Y91225300D01*
X93663300Y91225300D02*
X97479600Y95041600D01*
X97479600Y95041600D02*
X103505000Y95041600D01*
X103505000Y90170000D02*
X103505000Y95041600D01*
%TO.N,/CH_C_L_GAIN_TERM_A*%
X113665000Y90170000D02*
X113665000Y93420300D01*
X113665000Y93420300D02*
X117367000Y97122300D01*
X117367000Y97122300D02*
X123096000Y97122300D01*
X123096000Y97122300D02*
X125513100Y94705200D01*
X125513100Y94705200D02*
X125513100Y83121900D01*
X125513100Y83121900D02*
X118745000Y76353800D01*
X118745000Y76353800D02*
X118745000Y72390000D01*
%TO.N,/CH_C_L_GAIN_WIPER*%
X121285000Y75861600D02*
X127556300Y82132900D01*
X127556300Y82132900D02*
X127556300Y95551500D01*
X127556300Y95551500D02*
X123942300Y99165500D01*
X123942300Y99165500D02*
X115248900Y99165500D01*
X115248900Y99165500D02*
X111125000Y95041600D01*
X121285000Y72390000D02*
X121285000Y75861600D01*
X111125000Y90170000D02*
X111125000Y95041600D01*
%TO.N,/CH_C_R_GAIN_TERM_A*%
X118745000Y95041600D02*
X122254300Y95041600D01*
X122254300Y95041600D02*
X123458600Y93837300D01*
X123458600Y93837300D02*
X123458600Y84025300D01*
X123458600Y84025300D02*
X116523300Y77090000D01*
X116523300Y77090000D02*
X116523300Y57785100D01*
X116523300Y57785100D02*
X117158400Y57150000D01*
X119380000Y57150000D02*
X117158400Y57150000D01*
X118745000Y90170000D02*
X118745000Y95041600D01*
%TO.N,/CH_C_R_GAIN_WIPER*%
X121920000Y57150000D02*
X121920000Y64285000D01*
X121920000Y64285000D02*
X127880100Y70245100D01*
X127880100Y70245100D02*
X127880100Y78705400D01*
%TO.N,/CH_C_L_LEVEL_WIPER*%
X100965000Y82758400D02*
X100965000Y79583200D01*
X100965000Y79583200D02*
X103186700Y77361500D01*
X103186700Y77361500D02*
X103186700Y69744700D01*
X103186700Y69744700D02*
X102360400Y68918400D01*
X102360400Y68918400D02*
X98425000Y68918400D01*
X98425000Y72390000D02*
X98425000Y68918400D01*
X100965000Y87630000D02*
X100965000Y82758400D01*
%TO.N,/CH_C_L_LEVEL_TERM_A*%
X98425000Y87630000D02*
X98425000Y79233900D01*
X98425000Y79233900D02*
X100965000Y76693900D01*
X100965000Y76693900D02*
X100965000Y72390000D01*
%TO.N,/CH_D_L_IN*%
X136843400Y43180000D02*
X134749300Y45274100D01*
X134749300Y45274100D02*
X134749300Y91974900D01*
X134749300Y91974900D02*
X140445900Y97671500D01*
X139065000Y43180000D02*
X136843400Y43180000D01*
%TO.N,/CH_D_R_IN*%
X149225000Y90170000D02*
X149225000Y95041600D01*
X144145000Y43180000D02*
X144145000Y46651600D01*
X144145000Y46651600D02*
X136792500Y54004100D01*
X136792500Y54004100D02*
X136792500Y91128700D01*
X136792500Y91128700D02*
X140705400Y95041600D01*
X140705400Y95041600D02*
X149225000Y95041600D01*
%TO.N,/CH_D_R_GAIN_TERM_A*%
X161925000Y90170000D02*
X161925000Y93441000D01*
X161925000Y93441000D02*
X163525600Y95041600D01*
X163525600Y95041600D02*
X165372800Y95041600D01*
X165372800Y95041600D02*
X169273000Y91141400D01*
X169273000Y91141400D02*
X169273000Y70265500D01*
X169273000Y70265500D02*
X161925000Y62917500D01*
X161925000Y62917500D02*
X161925000Y57150000D01*
%TO.N,/CH_D_R_GAIN_WIPER*%
X164465000Y57150000D02*
X164465000Y61316400D01*
X164465000Y61316400D02*
X171316100Y68167500D01*
X171316100Y68167500D02*
X171316100Y91987600D01*
X171316100Y91987600D02*
X166219000Y97084700D01*
X166219000Y97084700D02*
X161428100Y97084700D01*
X161428100Y97084700D02*
X159385000Y95041600D01*
X159385000Y90170000D02*
X159385000Y95041600D01*
%TO.N,/CH_D_L_LEVEL_WIPER*%
X141605000Y72390000D02*
X141605000Y68918400D01*
X144145000Y87630000D02*
X144145000Y82758400D01*
X144145000Y82758400D02*
X146366700Y80536700D01*
X146366700Y80536700D02*
X146366700Y69773700D01*
X146366700Y69773700D02*
X145511400Y68918400D01*
X145511400Y68918400D02*
X141605000Y68918400D01*
%TO.N,/CH_D_L_LEVEL_TERM_A*%
X141605000Y87630000D02*
X141605000Y81288300D01*
X141605000Y81288300D02*
X144145000Y78748300D01*
X144145000Y78748300D02*
X144145000Y72390000D01*
%TD*%
M02*
